<svg width="1172" height="636" viewBox="0 0 1172 636" fill="none" xmlns="http://www.w3.org/2000/svg">
<path d="M1100.41 288.375C1111.13 255.424 1123.15 211.187 1136.46 155.667H1158.64C1158.07 157.811 1156.72 163.171 1154.58 171.747C1152.54 180.211 1151.25 185.684 1150.68 188.167C1150.12 190.536 1148.88 195.558 1146.96 203.232C1145.04 210.793 1143.63 216.153 1142.73 219.312C1141.94 222.359 1140.64 227.381 1138.83 234.378C1137.03 241.261 1135.5 246.678 1134.26 250.628C1133.13 254.577 1131.61 259.825 1129.69 266.37C1127.77 272.915 1125.97 278.727 1124.28 283.805C1122.7 288.883 1120.83 294.582 1118.69 300.901C1116.66 307.22 1114.57 313.484 1112.43 319.69C1109.72 327.364 1107.57 333.119 1105.99 336.956C1104.53 340.905 1102.38 345.363 1099.56 350.328C1096.74 355.293 1093.69 359.074 1090.42 361.669C1079.81 370.584 1063.45 375.042 1041.33 375.042V354.729C1057.47 354.729 1068.53 352.416 1074.51 347.789C1077.11 345.871 1079.48 342.937 1081.62 338.987C1083.88 335.037 1085.63 331.37 1086.87 327.984C1088.22 324.599 1090.7 317.715 1094.32 307.333H1085.51C1073.33 285.215 1063.11 261.856 1054.88 237.255C1046.75 212.655 1039.3 185.458 1032.53 155.667H1054.71C1066.44 209.608 1081.11 253.844 1098.72 288.375H1100.41Z" fill="white"/>
<mask id="mask0_405_32" style="mask-type:alpha" maskUnits="userSpaceOnUse" x="0" y="17" width="247" height="114">
<rect y="17" width="246.87" height="113.534" fill="#D9D9D9"/>
</mask>
<g mask="url(#mask0_405_32)">
<path d="M41.4683 329.878C51.6674 233.845 75.0452 153.169 111.602 87.8486H133.948C170.505 153.169 193.882 233.845 204.081 329.878H180.876C180.303 322.887 179.558 315.954 178.641 309.078C177.724 302.088 176.349 293.264 174.515 282.606C172.796 271.949 171.765 265.474 171.421 263.182H74.1284C73.5554 266.735 72.696 272.006 71.55 278.997C70.404 285.872 69.4872 291.545 68.7997 296.014C68.1121 300.483 67.3672 305.87 66.565 312.172C65.7628 318.475 65.1326 324.377 64.6742 329.878H41.4683ZM167.468 242.555C161.05 214.364 154.404 189.496 147.528 167.952C140.767 146.408 132.802 126.525 123.634 108.304H121.915C112.748 126.525 104.726 146.408 97.85 167.952C91.0888 189.496 84.4995 214.364 78.082 242.555H167.468Z" fill="#FCC945"/>
</g>
<mask id="mask1_405_32" style="mask-type:alpha" maskUnits="userSpaceOnUse" x="0" y="130" width="247" height="221">
<rect y="130.533" width="246.87" height="220.466" fill="#D9D9D9"/>
</mask>
<g mask="url(#mask1_405_32)">
<path d="M41.4683 329.878C51.6674 233.845 75.0452 153.169 111.602 87.8486H133.948C170.505 153.169 193.882 233.845 204.081 329.878H180.876C180.303 322.887 179.558 315.954 178.641 309.078C177.724 302.088 176.349 293.264 174.515 282.606C172.796 271.949 171.765 265.474 171.421 263.182H74.1284C73.5554 266.735 72.696 272.006 71.55 278.997C70.404 285.872 69.4872 291.545 68.7997 296.014C68.1121 300.483 67.3672 305.87 66.565 312.172C65.7628 318.475 65.1326 324.377 64.6742 329.878H41.4683ZM167.468 242.555C161.05 214.364 154.404 189.496 147.528 167.952C140.767 146.408 132.802 126.525 123.634 108.304H121.915C112.748 126.525 104.726 146.408 97.85 167.952C91.0888 189.496 84.4995 214.364 78.082 242.555H167.468Z" fill="white"/>
</g>
<mask id="mask2_405_32" style="mask-type:alpha" maskUnits="userSpaceOnUse" x="256" y="286" width="196" height="64">
<rect x="256.11" y="286.312" width="195.383" height="63.3676" fill="#D9D9D9"/>
</mask>
<g mask="url(#mask2_405_32)">
<path d="M357.302 302.891C370.595 271.377 381.768 238.086 390.821 203.02C399.875 167.838 407.954 129.448 415.059 87.8496L437.405 87.8496C429.154 134.834 419.528 178.095 408.527 217.631C397.525 257.052 383.487 294.468 366.412 329.879H346.472C329.397 294.468 315.359 257.052 304.358 217.631C293.357 178.095 283.73 134.834 275.479 87.8496L297.826 87.8496C312.953 175.975 332.205 247.655 355.583 302.891H357.302Z" fill="#FCC945"/>
</g>
<mask id="mask3_405_32" style="mask-type:alpha" maskUnits="userSpaceOnUse" x="256" y="63" width="196" height="224">
<rect x="256.11" y="63.2051" width="195.383" height="223.107" fill="#D9D9D9"/>
</mask>
<g mask="url(#mask3_405_32)">
<path d="M357.302 302.89C370.595 271.376 381.768 238.085 390.821 203.019C399.875 167.837 407.954 129.447 415.059 87.8487L437.405 87.8487C429.154 134.833 419.528 178.094 408.527 217.63C397.525 257.051 383.487 294.467 366.412 329.878H346.472C329.397 294.467 315.359 257.051 304.358 217.63C293.357 178.094 283.73 134.833 275.479 87.8486L297.826 87.8486C312.953 175.974 332.205 247.654 355.583 302.89H357.302Z" fill="white"/>
</g>
<mask id="mask4_405_32" style="mask-type:alpha" maskUnits="userSpaceOnUse" x="598" y="331" width="202" height="56">
<rect x="598.17" y="331" width="201.17" height="55.8085" fill="#D9D9D9"/>
</mask>
<g mask="url(#mask4_405_32)">
<path d="M699.775 343.484C703.268 339.991 707.831 338.245 713.464 338.245C719.097 338.245 723.66 339.991 727.152 343.484C730.645 346.976 732.391 351.539 732.391 357.172C732.391 362.806 730.645 367.368 727.152 370.861C723.66 374.353 719.097 376.1 713.464 376.1C707.831 376.1 703.268 374.353 699.775 370.861C696.283 367.368 694.536 362.806 694.536 357.172C694.536 351.539 696.283 346.976 699.775 343.484ZM708.056 578.892V426.122H664.793V405.843H729.687V578.892H708.056Z" fill="white"/>
</g>
<mask id="mask5_405_32" style="mask-type:alpha" maskUnits="userSpaceOnUse" x="598" y="384" width="202" height="49">
<rect x="598.17" y="384.213" width="201.17" height="48.0213" fill="#D9D9D9"/>
</mask>
<g mask="url(#mask5_405_32)">
<path d="M699.775 343.486C703.268 339.993 707.831 338.247 713.464 338.247C719.097 338.247 723.66 339.993 727.152 343.486C730.645 346.978 732.391 351.541 732.391 357.174C732.391 362.808 730.645 367.37 727.152 370.863C723.66 374.355 719.097 376.102 713.464 376.102C707.831 376.102 703.268 374.355 699.775 370.863C696.283 367.37 694.536 362.808 694.536 357.174C694.536 351.541 696.283 346.978 699.775 343.486ZM708.056 578.894V426.124H664.793V405.845H729.687V578.894H708.056Z" fill="#FCC945"/>
</g>
<mask id="mask6_405_32" style="mask-type:alpha" maskUnits="userSpaceOnUse" x="598" y="432" width="202" height="201">
<rect x="598.17" y="432.234" width="201.17" height="199.872" fill="#D9D9D9"/>
</mask>
<g mask="url(#mask6_405_32)">
<path d="M699.775 343.486C703.268 339.993 707.831 338.247 713.464 338.247C719.097 338.247 723.66 339.993 727.152 343.486C730.645 346.978 732.391 351.541 732.391 357.174C732.391 362.808 730.645 367.37 727.152 370.863C723.66 374.355 719.097 376.102 713.464 376.102C707.831 376.102 703.268 374.355 699.775 370.863C696.283 367.37 694.536 362.808 694.536 357.174C694.536 351.541 696.283 346.978 699.775 343.486ZM708.056 578.894V426.124H664.793V405.845H729.687V578.894H708.056Z" fill="white"/>
</g>
<mask id="mask7_405_32" style="mask-type:alpha" maskUnits="userSpaceOnUse" x="397" y="433" width="202" height="203">
<rect x="397" y="433.532" width="201.17" height="202.468" fill="#D9D9D9"/>
</mask>
<g mask="url(#mask7_405_32)">
<path d="M510.348 551.855V426.124H467.085V405.845H531.979V551.855C531.979 571.12 528.543 586.499 521.67 597.991C510.968 615.904 494.124 624.861 471.141 624.861C458.072 624.861 444.778 624.016 431.259 622.326V602.046C446.468 603.736 459.762 604.581 471.141 604.581C485.449 604.581 496.04 599.061 502.912 588.02C507.869 580.021 510.348 567.966 510.348 551.855ZM502.067 343.486C505.56 339.993 510.123 338.247 515.756 338.247C521.389 338.247 525.952 339.993 529.444 343.486C532.937 346.978 534.683 351.541 534.683 357.174C534.683 362.808 532.937 367.37 529.444 370.863C525.952 374.355 521.389 376.102 515.756 376.102C510.123 376.102 505.56 374.355 502.067 370.863C498.575 367.37 496.828 362.808 496.828 357.174C496.828 351.541 498.575 346.978 502.067 343.486Z" fill="white"/>
</g>
<mask id="mask8_405_32" style="mask-type:alpha" maskUnits="userSpaceOnUse" x="397" y="334" width="202" height="57">
<rect x="397" y="334.894" width="201.17" height="55.8085" fill="#D9D9D9"/>
</mask>
<g mask="url(#mask8_405_32)">
<path d="M510.347 551.853V426.122H467.085V405.843H531.979V551.853C531.979 571.119 528.542 586.497 521.67 597.989C510.967 615.902 494.124 624.859 471.141 624.859C458.072 624.859 444.778 624.014 431.258 622.324V602.044C446.468 603.734 459.762 604.579 471.141 604.579C485.449 604.579 496.039 599.059 502.912 588.018C507.869 580.019 510.347 567.964 510.347 551.853ZM502.067 343.484C505.559 339.991 510.122 338.245 515.755 338.245C521.388 338.245 525.951 339.991 529.444 343.484C532.936 346.976 534.683 351.539 534.683 357.172C534.683 362.806 532.936 367.368 529.444 370.861C525.951 374.353 521.388 376.1 515.755 376.1C510.122 376.1 505.559 374.353 502.067 370.861C498.574 367.368 496.828 362.806 496.828 357.172C496.828 351.539 498.574 346.976 502.067 343.484Z" fill="white"/>
</g>
<mask id="mask9_405_32" style="mask-type:alpha" maskUnits="userSpaceOnUse" x="397" y="390" width="202" height="44">
<rect x="397" y="390.702" width="201.17" height="42.8298" fill="#D9D9D9"/>
</mask>
<g mask="url(#mask9_405_32)">
<path d="M510.347 551.855V426.124H467.085V405.845H531.979V551.855C531.979 571.12 528.542 586.499 521.67 597.991C510.967 615.904 494.124 624.861 471.141 624.861C458.072 624.861 444.778 624.016 431.258 622.326V602.046C446.468 603.736 459.762 604.581 471.141 604.581C485.449 604.581 496.039 599.061 502.912 588.02C507.869 580.021 510.347 567.966 510.347 551.855ZM502.067 343.486C505.559 339.993 510.122 338.247 515.755 338.247C521.388 338.247 525.951 339.993 529.444 343.486C532.936 346.978 534.683 351.541 534.683 357.174C534.683 362.808 532.936 367.37 529.444 370.863C525.951 374.355 521.388 376.102 515.755 376.102C510.122 376.102 505.559 374.355 502.067 370.863C498.574 367.37 496.828 362.808 496.828 357.174C496.828 351.541 498.574 346.978 502.067 343.486Z" fill="#FCC945"/>
</g>
<mask id="mask10_405_32" style="mask-type:alpha" maskUnits="userSpaceOnUse" x="797" y="238" width="283" height="33">
<rect x="797" y="238.667" width="282.667" height="32" fill="#D9D9D9"/>
</mask>
<g mask="url(#mask10_405_32)">
<path d="M916.91 261.334C899.318 234.483 885.776 206.705 876.285 178.001C866.91 149.182 859.966 117.7 855.452 83.5566H877.154C886.644 151.381 904.816 206.126 931.667 247.793H933.404C954.931 193.626 971.945 138.881 984.445 83.5566H1007.88C991.679 153.001 966.505 225.744 932.362 301.786C929.005 309.193 923.855 315.443 916.91 320.536C909.966 325.513 901.517 328.522 891.563 329.564C883.114 330.374 870.556 330.779 853.89 330.779V310.987C871.251 310.987 882.998 310.64 889.133 309.946C895.267 309.251 900.186 307.689 903.89 305.258C907.593 302.827 911.008 298.834 914.133 293.279C919.341 284.367 924.202 273.719 928.716 261.334H916.91Z" fill="#FCC945"/>
</g>
<mask id="mask11_405_32" style="mask-type:alpha" maskUnits="userSpaceOnUse" x="797" y="0" width="283" height="239">
<rect x="797" width="282.667" height="238.667" fill="#D9D9D9"/>
</mask>
<g mask="url(#mask11_405_32)">
<path d="M916.91 261.333C899.318 234.482 885.776 206.704 876.285 178C866.91 149.181 859.966 117.699 855.452 83.5557H877.154C886.644 151.38 904.816 206.125 931.667 247.792H933.404C954.931 193.625 971.945 138.88 984.445 83.5557H1007.88C991.679 153 966.505 225.743 932.362 301.785C929.005 309.192 923.855 315.442 916.91 320.535C909.966 325.512 901.517 328.521 891.563 329.563C883.114 330.373 870.556 330.778 853.89 330.778V310.986C871.251 310.986 882.998 310.639 889.133 309.945C895.267 309.25 900.186 307.688 903.89 305.257C907.593 302.827 911.008 298.833 914.133 293.278C919.341 284.366 924.202 273.718 928.716 261.333H916.91Z" fill="white"/>
</g>
<mask id="mask12_405_32" style="mask-type:alpha" maskUnits="userSpaceOnUse" x="797" y="270" width="283" height="110">
<rect x="797" y="270.667" width="282.667" height="109.333" fill="#D9D9D9"/>
</mask>
<g mask="url(#mask12_405_32)">
<path d="M916.91 261.334C899.318 234.483 885.776 206.705 876.285 178.001C866.91 149.182 859.966 117.7 855.452 83.5566H877.154C886.644 151.381 904.816 206.126 931.667 247.793H933.404C954.931 193.626 971.945 138.881 984.445 83.5566H1007.88C991.679 153.001 966.505 225.744 932.362 301.786C929.005 309.193 923.855 315.443 916.91 320.536C909.966 325.513 901.517 328.522 891.563 329.564C883.114 330.374 870.556 330.779 853.89 330.779V310.987C871.251 310.987 882.998 310.64 889.133 309.946C895.267 309.251 900.186 307.689 903.89 305.258C907.593 302.827 911.008 298.834 914.133 293.279C919.341 284.367 924.202 273.719 928.716 261.334H916.91Z" fill="white"/>
</g>
</svg>
