<svg width="546" height="597" viewBox="0 0 546 597" fill="none" xmlns="http://www.w3.org/2000/svg">
<path d="M41.4063 528.594C50.6076 552.031 64.8437 563.75 84.1146 563.75C95.2257 563.75 104.427 560.017 111.719 552.552C119.184 545.087 124.913 535.104 128.906 522.604C131.163 515.833 132.812 505.851 133.854 492.656C134.896 479.288 135.503 467.222 135.677 456.458C135.851 445.694 135.938 429.549 135.938 408.021C135.938 371.389 135.503 345.955 134.635 331.719L41.4063 528.594ZM84.1146 252.292C73.0035 252.292 63.7153 256.024 56.25 263.49C48.9583 270.955 43.316 280.938 39.3229 293.438C37.066 300.208 35.4167 310.278 34.375 323.646C33.3333 336.84 32.7257 348.819 32.5521 359.583C32.3785 370.347 32.2917 386.493 32.2917 408.021C32.2917 444.653 32.7257 470.087 33.5938 484.323L126.823 287.448C117.622 264.01 103.385 252.292 84.1146 252.292ZM10.1562 276.51C24.3924 238.837 49.0451 220 84.1146 220C119.184 220 143.837 238.837 158.073 276.51C161.198 285.017 163.542 296.736 165.104 311.667C166.667 326.597 167.535 340.226 167.708 352.552C168.056 364.705 168.229 383.194 168.229 408.021C168.229 432.847 168.056 451.424 167.708 463.75C167.535 475.903 166.667 489.444 165.104 504.375C163.542 519.306 161.198 531.024 158.073 539.531C143.837 577.205 119.184 596.042 84.1146 596.042C49.0451 596.042 24.3924 577.205 10.1562 539.531C7.03125 531.024 4.6875 519.306 3.125 504.375C1.5625 489.444 0.60764 475.903 0.260419 463.75C0.0868062 451.424 0 432.847 0 408.021C0 383.194 0.0868062 364.705 0.260419 352.552C0.60764 340.226 1.5625 326.597 3.125 311.667C4.6875 296.736 7.03125 285.017 10.1562 276.51Z" fill="#FCC945"/>
<path d="M41.4063 528.594C50.6076 552.031 64.8437 563.75 84.1146 563.75C95.2257 563.75 104.427 560.017 111.719 552.552C119.184 545.087 124.913 535.104 128.906 522.604C131.163 515.833 132.812 505.851 133.854 492.656C134.896 479.288 135.503 467.222 135.677 456.458C135.851 445.694 135.938 429.549 135.938 408.021C135.938 371.389 135.503 345.955 134.635 331.719L33.5938 484.323C33.5938 495.354 36.2658 515.5 41.4063 528.594ZM84.1146 252.292C73.0035 252.292 63.7153 256.024 56.25 263.49C48.9583 270.955 43.316 280.938 39.3229 293.438C37.066 300.208 35.4167 310.278 34.375 323.646C33.3333 336.84 32.7257 348.819 32.5521 359.583C32.3785 370.347 32.2917 386.493 32.2917 408.021C32.2917 444.653 32.7257 470.087 33.5938 484.323L134.635 331.719C134.635 331.719 133.525 316.644 132 308C130.475 299.356 126.823 287.448 126.823 287.448C117.622 264.01 103.385 252.292 84.1146 252.292ZM10.1562 276.51C24.3924 238.837 49.0451 220 84.1146 220C119.184 220 143.837 238.837 158.073 276.51C161.198 285.017 163.542 296.736 165.104 311.667C166.667 326.597 167.535 340.226 167.708 352.552C168.056 364.705 168.229 383.194 168.229 408.021C168.229 432.847 168.056 451.424 167.708 463.75C167.535 475.903 166.667 489.444 165.104 504.375C163.542 519.306 161.198 531.024 158.073 539.531C143.837 577.205 119.184 596.042 84.1146 596.042C49.0451 596.042 24.3924 577.205 10.1562 539.531C7.03125 531.024 4.6875 519.306 3.125 504.375C1.5625 489.444 0.60764 475.903 0.260419 463.75C0.0868062 451.424 0 432.847 0 408.021C0 383.194 0.0868062 364.705 0.260419 352.552C0.60764 340.226 1.5625 326.597 3.125 311.667C4.6875 296.736 7.03125 285.017 10.1562 276.51Z" fill="white"/>
<path d="M477.604 113.729C463.715 100.187 446.181 93.4167 425 93.4167C403.819 93.4167 386.285 100.187 372.396 113.729C358.507 127.271 349.045 144.632 344.01 165.812C339.67 184.389 337.5 212.34 337.5 249.667C337.5 286.993 339.67 314.944 344.01 333.521C349.045 354.701 358.507 372.062 372.396 385.604C386.285 399.146 403.819 405.917 425 405.917C446.181 405.917 463.715 399.146 477.604 385.604C491.493 372.062 500.955 354.701 505.99 333.521C510.33 314.944 512.5 286.993 512.5 249.667C512.5 212.34 510.33 184.389 505.99 165.812C500.955 144.632 491.493 127.271 477.604 113.729ZM351.042 89.5104C370.833 71.2812 395.486 62.1667 425 62.1667C454.514 62.1667 479.167 71.2812 498.958 89.5104C518.75 107.566 531.944 130.656 538.542 158.781C543.403 179.267 545.833 209.562 545.833 249.667C545.833 289.771 543.403 320.066 538.542 340.552C531.944 368.677 518.75 391.854 498.958 410.083C479.167 428.139 454.514 437.167 425 437.167C395.486 437.167 370.833 428.139 351.042 410.083C331.25 391.854 318.056 368.677 311.458 340.552C306.597 320.066 304.167 289.771 304.167 249.667C304.167 209.562 306.597 179.267 311.458 158.781C318.056 130.656 331.25 107.566 351.042 89.5104Z" fill="white"/>
<path d="M354.803 441.491L297.499 496.415L213.332 496.415M213.332 496.415L213.332 485.986L196 496.415L213.332 506.986L213.332 496.415Z" stroke="#FCC945" stroke-width="4"/>
</svg>
