<svg width="1201" height="1069" viewBox="0 0 1201 1069" fill="none" xmlns="http://www.w3.org/2000/svg">
<path d="M705.761 829.334C700.032 810.584 697.167 785.931 697.167 755.375C697.167 724.82 700.032 700.167 705.761 681.417C711.837 661.973 721.559 645.566 734.927 632.198C748.295 618.83 764.875 609.716 784.667 604.854V572.042H851.334V604.854C871.125 609.716 887.705 618.83 901.073 632.198C914.441 645.566 924.164 661.973 930.24 681.417C935.969 700.167 938.834 724.82 938.834 755.375C938.834 785.931 935.969 810.584 930.24 829.334C924.164 848.778 914.441 865.184 901.073 878.552C887.705 891.92 871.125 901.035 851.334 905.896V933.24H784.667V905.896C764.875 901.035 748.295 891.92 734.927 878.552C721.559 865.184 711.837 848.778 705.761 829.334ZM772.167 692.875C766.611 708.153 763.834 728.986 763.834 755.375C763.834 781.764 766.611 802.684 772.167 818.136C777.723 833.414 787.445 842.615 801.334 845.74V665.011C787.445 668.136 777.723 677.424 772.167 692.875ZM834.667 845.74C848.556 842.615 858.278 833.414 863.834 818.136C869.389 802.684 872.167 781.764 872.167 755.375C872.167 728.986 869.389 708.153 863.834 692.875C858.278 677.424 848.556 668.136 834.667 665.011V845.74Z" fill="white"/>
<path d="M1101.46 878.813C1114.14 876.903 1123.08 870.566 1128.29 859.802C1133.67 848.865 1136.36 830.723 1136.36 805.375C1136.36 779.334 1133.76 761.105 1128.55 750.688C1123.34 740.271 1114.31 734.021 1101.46 731.938V878.813ZM1068.13 731.938C1055.28 734.021 1046.26 740.271 1041.05 750.688C1035.84 761.105 1033.23 779.334 1033.23 805.375C1033.23 830.723 1035.84 848.865 1041.05 859.802C1046.43 870.566 1055.46 876.903 1068.13 878.813V731.938ZM1051.46 572.042H1118.13V672.823C1146.08 678.032 1166.74 690.966 1180.11 711.625C1193.65 732.111 1200.42 763.361 1200.42 805.375C1200.42 846.521 1193.65 877.598 1180.11 898.604C1166.57 919.438 1145.91 932.545 1118.13 937.927V1038.71H1051.46V937.927C1023.69 932.545 1003.03 919.438 989.485 898.604C975.943 877.598 969.172 846.521 969.172 805.375C969.172 763.361 975.856 732.111 989.224 711.625C1002.77 690.966 1023.51 678.032 1051.46 672.823V572.042Z" fill="white"/>
<circle cx="549" cy="915" r="152" stroke="white" stroke-width="4"/>
<path fill-rule="evenodd" clip-rule="evenodd" d="M666.14 1008.83C686.761 983.144 699.097 950.519 699.097 915.013C699.097 903.647 697.833 892.576 695.438 881.934C680.175 869.555 662.167 860.815 641.414 855.713V813.456H555.643V855.713C530.18 861.973 508.849 873.711 491.65 890.926C474.451 908.142 461.943 929.27 454.125 954.311C448.575 972.493 445.114 994.984 443.743 1021.79C466.347 1044.09 496 1059.27 529.058 1063.69C528.913 1059.12 528.84 1054.41 528.84 1049.56C528.84 1015.57 532.413 988.742 539.561 969.067C546.709 949.169 559.217 937.207 577.086 933.183V1062.41C592.32 1059.53 606.741 1054.35 619.971 1047.25V933.183C637.84 937.207 650.349 949.169 657.496 969.067C661.497 980.081 664.379 993.337 666.14 1008.83Z" fill="#FCC945"/>
<path d="M0 661.667V295H66.6667V599.167H100V295H133.333V599.167H166.667V295H233.333V661.667H0Z" fill="white"/>
<path d="M266.797 661.667V395H333.464V599.167H366.797V395H400.13V599.167H433.464V395H500.13V661.667H266.797Z" fill="white"/>
<circle cx="336" cy="154" r="152" stroke="white" stroke-width="4"/>
<path fill-rule="evenodd" clip-rule="evenodd" d="M463.443 233.199C477.747 210.221 486.009 183.093 486.009 154.035C486.009 136.766 483.091 120.179 477.721 104.739H463.443V233.199ZM415.53 281.245V104.739H367.617V300.699C384.877 296.997 401.035 290.326 415.53 281.245ZM319.704 303.159V104.739H223.879V253.671C247.961 280.753 281.705 299.052 319.704 303.159Z" fill="#FCC945"/>
</svg>
