<svg width="656" height="361" viewBox="0 0 656 361" fill="none" xmlns="http://www.w3.org/2000/svg">
<path d="M319.123 -253.212C320.133 -256.748 325.433 -269 328.587 -269C331.742 -269 336.473 -257.001 337.419 -253.212C337.683 -252.157 339.462 -243.518 341.987 -231.108L445.928 -256.369V-231.108L354.357 -169.85C358.278 -150.321 361.752 -132.907 363.285 -125.012C365.094 -115.699 365.547 -49.1937 365.558 33.501L416.43 35.3956L416.908 23.3966C417.329 22.1335 417.539 19.6074 420.062 19.6074C421.955 19.6074 422.376 22.1335 422.586 23.3966V35.6248L450.344 36.6586L479.995 27.402V12.0291C479.995 11.3976 480.626 8.23996 482.518 8.23996C485.673 8.23996 485.462 10.7661 485.673 12.0291L486.304 25.4325L515.954 16.1758V8.87149C516.165 7.60843 516.459 5.08234 518.478 5.08234C521.001 5.08234 521.632 7.18741 521.632 8.23996V14.4033L545.605 6.91913V-5.02209C545.815 -6.07462 546.236 -8.17972 548.129 -8.17972C550.147 -8.17972 551.283 -6.07462 551.283 -5.02209L551.489 5.08234L636.45 -21.4418C641.497 -22.7048 651.717 -27.8833 652.222 -43.5452C654.535 -35.1248 656.795 -15.44 652.853 -7.54819C646.571 5.02802 540.364 61.1383 460.273 102.337L459.176 142.124C459.387 147.597 455.139 158.543 436.465 158.543C417.791 158.543 412.533 148.86 412.239 144.018V126.898C388.229 139.118 372.242 147.202 371.486 147.807C368.331 150.333 365.38 154.754 365.365 161.069L365.362 162.583C365.269 203.416 365.178 243.399 365.178 278.533C365.178 313.832 344.738 360 326.064 360C307.39 360 290.843 313.307 290.104 278.533C289.354 243.223 288.853 202.623 288.585 161.069C288.534 153.491 286.439 151.115 283.795 147.807C282.614 146.329 267.431 138.45 244.681 126.898V144.018C243.63 149.07 237.363 159.048 220.708 158.543C204.053 158.038 197.412 147.386 196.174 142.124V102.337C117.392 62.3586 12.7093 8.11868 3.6892 -8.81125C0.126583 -15.498 0.534942 -35.1248 2.42755 -44.8082C3.05842 -30.2831 13.7832 -24.5994 15.0449 -23.9679C15.6151 -23.6825 56.4719 -10.7558 103.366 4.04422V-6.28513C103.366 -7.33768 104.502 -9.44278 106.521 -9.44278C108.54 -9.44278 109.675 -7.33768 109.675 -6.28513V6.03506C118.217 8.7305 126.906 11.4712 135.541 14.1941L136.172 6.9769C136.382 5.92438 136.676 3.81927 138.695 3.81927C141.219 3.81927 141.219 5.92438 141.219 6.9769V15.9844C151.348 19.1783 161.341 22.3281 170.869 25.3308V10.7661C171.08 9.71353 172.005 7.60843 174.024 7.60843C176.042 7.60843 176.968 9.71353 177.178 10.7661V27.3187C187.953 30.7136 198.006 33.8803 206.829 36.6586L234.587 35.5852V24.6596C234.797 23.6071 235.723 21.502 237.741 21.502C239.76 21.502 240.265 23.6071 240.265 24.6596V35.3657L288.486 33.501C288.914 -50.6569 290.352 -118.179 292.627 -125.012C293.054 -126.295 297.133 -146.137 301.971 -169.85L209.983 -231.108V-256.369L314.466 -231.108C316.997 -243.435 318.802 -252.086 319.123 -253.212Z" fill="white"/>
<path d="M341.987 -231.108C339.462 -243.518 337.683 -252.157 337.419 -253.212C336.473 -257.001 331.742 -269 328.587 -269C325.433 -269 320.133 -256.748 319.123 -253.212C318.802 -252.086 316.997 -243.435 314.466 -231.108M341.987 -231.108L445.928 -256.369V-231.108L354.357 -169.85M341.987 -231.108C345.383 -214.417 350.13 -190.905 354.357 -169.85M354.357 -169.85C358.278 -150.321 361.752 -132.907 363.285 -125.012C365.094 -115.699 365.547 -49.1937 365.558 33.501M301.971 -169.85L209.983 -231.108V-256.369L314.466 -231.108M314.466 -231.108C307.056 -195.016 293.427 -127.417 292.627 -125.012C290.352 -118.179 288.914 -50.6569 288.486 33.501M365.558 33.501C365.563 73.7635 365.464 117.864 365.365 161.069M365.558 33.501L416.43 35.3956M365.365 161.069C365.271 202.427 365.178 242.965 365.178 278.533C365.178 313.832 344.738 360 326.064 360C307.39 360 290.843 313.307 290.104 278.533C289.354 243.223 288.853 202.623 288.585 161.069M365.365 161.069C365.38 154.754 368.331 150.333 371.486 147.807C372.242 147.202 388.229 139.118 412.239 126.898M288.486 33.501C288.281 73.8201 288.308 117.958 288.585 161.069M288.486 33.501L240.265 35.3657M288.585 161.069C288.534 153.491 286.439 151.115 283.795 147.807C282.614 146.329 267.431 138.45 244.681 126.898M416.43 35.3956L450.344 36.6586L479.995 27.402M416.43 35.3956L416.908 23.3966C417.329 22.1335 417.539 19.6074 420.062 19.6074C421.955 19.6074 422.376 22.1335 422.586 23.3966V35.6249M479.995 27.402C479.995 26.5542 479.995 12.6606 479.995 12.0291C479.995 11.3976 480.626 8.23996 482.518 8.23996C485.673 8.23996 485.462 10.7661 485.673 12.0291L486.304 25.4325M479.995 27.402L486.304 25.4325M486.304 25.4325L515.954 16.1758M515.954 16.1758V8.87149C516.165 7.60844 516.459 5.08233 518.478 5.08233C521.001 5.08233 521.632 7.18742 521.632 8.23996V14.4033M515.954 16.1758L521.632 14.4033M521.632 14.4033L545.605 6.91913M545.605 6.91913V-5.02208C545.815 -6.07463 546.236 -8.17972 548.129 -8.17972C550.147 -8.17972 551.283 -6.07463 551.283 -5.02208L551.489 5.08233M545.605 6.91913L551.489 5.08233M551.489 5.08233L636.45 -21.4418C641.497 -22.7048 651.717 -27.8833 652.222 -43.5452C654.535 -35.1248 656.795 -15.44 652.853 -7.54819C646.571 5.02803 540.363 61.1383 460.273 102.337M234.587 35.5852L206.829 36.6586C198.006 33.8803 187.953 30.7136 177.178 27.3187M234.587 35.5852V24.6596C234.797 23.6071 235.723 21.502 237.741 21.502C239.76 21.502 240.265 23.6071 240.265 24.6596V35.3657M234.587 35.5852L240.265 35.3657M170.869 25.3308V10.7661C171.08 9.71352 172.005 7.60844 174.024 7.60844C176.042 7.60844 176.968 9.71352 177.178 10.7661V27.3187M170.869 25.3308C172.997 26.0011 175.101 26.6642 177.178 27.3187M170.869 25.3308C161.341 22.3281 151.348 19.1783 141.219 15.9844M135.541 14.1941L136.172 6.97691C136.382 5.92437 136.676 3.81928 138.695 3.81928C141.219 3.81928 141.219 5.92437 141.219 6.97691V15.9844M135.541 14.1941C137.437 14.792 139.33 15.389 141.219 15.9844M135.541 14.1941C126.906 11.4712 118.217 8.7305 109.675 6.03508M103.366 4.04423C56.4719 -10.7558 15.6151 -23.6825 15.0449 -23.9679C13.7832 -24.5994 3.05842 -30.2831 2.42755 -44.8082C0.534942 -35.1248 0.126583 -15.498 3.6892 -8.81124C12.7093 8.11868 117.392 62.3586 196.174 102.337M103.366 4.04423V-6.28514C103.366 -7.33768 104.502 -9.44277 106.521 -9.44277C108.54 -9.44277 109.675 -7.33768 109.675 -6.28514V6.03508M103.366 4.04423C105.458 4.70444 107.562 5.36837 109.675 6.03508M196.174 102.337V142.123C197.412 147.386 204.053 158.038 220.708 158.543C237.363 159.048 243.629 149.07 244.681 144.018V126.898M196.174 102.337C214.18 111.474 230.832 119.867 244.681 126.898M412.239 126.898V144.018C412.533 148.86 417.791 158.543 436.465 158.543C455.139 158.543 459.386 147.597 459.176 142.123L460.273 102.337M412.239 126.898C426.052 119.868 442.521 111.469 460.273 102.337" stroke="white"/>
</svg>
