<svg width="656" height="630" viewBox="0 0 656 630" fill="none" xmlns="http://www.w3.org/2000/svg">
<path d="M308.511 16.8105C309.361 13.2323 314.108 0.755678 317.259 0.614449C320.41 0.473219 325.674 12.2483 326.789 15.9913C327.099 17.0332 329.263 25.5839 332.341 37.8681L435.047 7.97861L436.178 33.2143L347.442 98.5108C352.233 117.845 356.483 135.086 358.369 142.904C360.593 152.127 364.023 218.546 367.736 301.157L418.642 300.772L418.582 288.763C418.946 287.483 419.043 284.95 421.564 284.837C423.455 284.752 423.988 287.257 424.255 288.509L424.802 300.725L452.579 300.515L481.785 289.94L481.097 274.583C481.069 273.952 481.558 270.769 483.448 270.684C486.6 270.543 486.503 273.076 486.769 274.329L488 287.69L517.206 277.115L516.879 269.818C517.033 268.547 517.214 266.01 519.23 265.92C521.751 265.807 522.476 267.882 522.523 268.933L522.799 275.09L546.413 266.54L545.878 254.611C546.041 253.55 546.367 251.428 548.258 251.344C550.274 251.253 551.503 253.305 551.55 254.357L552.208 264.442L635.897 234.141C640.882 232.653 650.86 227.022 650.663 211.353C653.351 219.661 656.49 239.225 652.905 247.286C647.193 260.131 543.604 320.94 465.438 365.683L466.124 405.479C466.579 410.937 462.826 422.063 444.171 422.899C425.516 423.735 419.83 414.297 419.318 409.473L418.552 392.37C395.113 405.653 379.504 414.444 378.776 415.083C375.738 417.748 372.987 422.296 373.255 428.606L373.32 430.118C375.055 470.914 376.754 510.862 378.327 545.96C379.908 581.223 361.555 628.261 342.9 629.097C324.245 629.933 305.624 584.028 303.329 549.322C300.998 514.081 298.68 473.543 296.552 432.043C296.162 424.475 293.962 422.196 291.173 419.009C289.927 417.585 274.406 410.394 251.162 399.872L251.929 416.975C251.104 422.069 245.291 432.318 228.63 432.559C211.969 432.8 204.858 422.456 203.385 417.254L201.604 377.508C121.111 341.097 14.105 291.598 4.33592 275.089C0.47749 268.568 0.00668639 248.943 1.46384 239.185C2.74441 253.667 13.7129 258.865 15.0016 259.439C15.584 259.699 56.9787 270.783 104.489 283.469L104.026 273.15C103.979 272.098 105.019 269.944 107.036 269.854C109.053 269.764 110.282 271.816 110.329 272.867L110.88 285.175C119.535 287.485 128.337 289.834 137.085 292.168L137.392 284.93C137.555 283.869 137.755 281.753 139.772 281.662C142.293 281.549 142.387 283.652 142.434 284.704L142.838 293.702C153.1 296.439 163.224 299.139 172.877 301.712L172.225 287.161C172.388 286.101 173.218 283.956 175.235 283.866C177.251 283.775 178.27 285.837 178.527 286.879L179.268 303.415C190.184 306.324 200.369 309.038 209.308 311.418L236.99 309.103L236.501 298.188C236.664 297.127 237.494 294.983 239.511 294.893C241.527 294.802 242.126 296.883 242.173 297.934L242.652 308.629L290.741 304.608C287.401 220.515 285.814 152.996 287.781 146.068C288.15 144.767 291.337 124.763 295.108 100.856L200.47 43.7783L199.339 18.5426L304.848 39.1003C306.824 26.673 308.241 17.9492 308.511 16.8105Z" fill="white"/>
<path d="M332.341 37.8681C329.263 25.5839 327.099 17.0332 326.789 15.9913C325.674 12.2483 320.41 0.47322 317.259 0.614449C314.108 0.755678 309.361 13.2323 308.511 16.8105C308.241 17.9492 306.824 26.673 304.848 39.1003M332.341 37.8681L435.047 7.97861L436.178 33.2143L347.442 98.5108M332.341 37.8681C336.482 54.3904 342.277 77.6667 347.442 98.5108M347.442 98.5108C352.233 117.845 356.483 135.086 358.369 142.904C360.593 152.127 364.023 218.546 367.736 301.157M295.108 100.856L200.47 43.7783L199.339 18.5426L304.848 39.1003M304.848 39.1003C299.062 75.4887 288.473 143.63 287.781 146.068C285.814 152.996 287.401 220.515 290.741 304.608M367.736 301.157C369.544 341.379 371.419 385.439 373.255 428.606M367.736 301.157L418.642 300.772M373.255 428.606C375.013 469.926 376.735 510.428 378.327 545.96C379.908 581.223 361.555 628.261 342.9 629.097C324.245 629.933 305.624 584.028 303.329 549.322C300.998 514.081 298.68 473.543 296.552 432.043M373.255 428.606C372.987 422.296 375.738 417.748 378.776 415.083C379.504 414.444 395.113 405.653 418.552 392.37M290.741 304.608C292.342 344.895 294.345 388.987 296.552 432.043M290.741 304.608L242.652 308.629M296.552 432.043C296.162 424.475 293.962 422.196 291.173 419.009C289.927 417.585 274.406 410.394 251.162 399.872M418.642 300.772L452.579 300.515L481.785 289.94M418.642 300.772L418.582 288.763C418.946 287.483 419.043 284.95 421.564 284.837C423.455 284.752 423.988 287.257 424.255 288.509L424.802 300.725M481.785 289.94C481.747 289.093 481.125 275.214 481.097 274.583C481.069 273.952 481.558 270.769 483.448 270.684C486.6 270.543 486.503 273.076 486.769 274.329L488 287.69M481.785 289.94L488 287.69M488 287.69L517.206 277.115M517.206 277.115L516.879 269.818C517.033 268.547 517.214 266.01 519.23 265.92C521.751 265.807 522.476 267.882 522.523 268.933L522.799 275.09M517.206 277.115L522.799 275.09M522.799 275.09L546.413 266.54M546.413 266.54L545.878 254.611C546.041 253.55 546.367 251.428 548.258 251.344C550.274 251.253 551.503 253.305 551.55 254.357L552.208 264.442M546.413 266.54L552.208 264.442M552.208 264.442L635.897 234.141C640.882 232.653 650.86 227.022 650.663 211.353C653.351 219.661 656.49 239.225 652.905 247.286C647.193 260.131 543.604 320.94 465.438 365.683M236.99 309.103L209.308 311.418C200.369 309.038 190.184 306.324 179.268 303.415M236.99 309.103L236.501 298.188C236.664 297.127 237.494 294.983 239.511 294.893C241.527 294.802 242.126 296.883 242.173 297.934L242.652 308.629M236.99 309.103L242.652 308.629M172.877 301.712L172.225 287.161C172.388 286.101 173.218 283.956 175.235 283.866C177.251 283.775 178.27 285.837 178.527 286.879L179.268 303.415M172.877 301.712C175.032 302.286 177.164 302.854 179.268 303.415M172.877 301.712C163.224 299.139 153.1 296.439 142.838 293.702M137.085 292.168L137.392 284.93C137.555 283.869 137.755 281.753 139.772 281.662C142.293 281.549 142.387 283.652 142.434 284.704L142.838 293.702M137.085 292.168C139.006 292.68 140.924 293.192 142.838 293.702M137.085 292.168C128.337 289.834 119.535 287.485 110.88 285.175M104.489 283.469C56.9787 270.783 15.584 259.699 15.0016 259.439C13.7129 258.865 2.74441 253.667 1.46384 239.185C0.0066865 248.943 0.47749 268.568 4.33592 275.089C14.105 291.598 121.111 341.097 201.604 377.508M104.489 283.469L104.026 273.15C103.979 272.098 105.019 269.944 107.036 269.854C109.053 269.764 110.282 271.816 110.329 272.867L110.88 285.175M104.489 283.469C106.608 284.035 108.74 284.604 110.88 285.175M201.604 377.508L203.385 417.254C204.858 422.456 211.969 432.8 228.63 432.559C245.291 432.318 251.104 422.069 251.929 416.975L251.162 399.872M201.604 377.508C220.001 385.83 237.013 393.468 251.162 399.872M418.552 392.37L419.318 409.473C419.83 414.297 425.516 423.735 444.171 422.899C462.826 422.063 466.579 410.937 466.124 405.479L465.438 365.683M418.552 392.37C432.036 384.729 448.113 375.601 465.438 365.683" stroke="white"/>
</svg>
