<svg width="1440" height="1955" viewBox="0 0 1440 1955" fill="none" xmlns="http://www.w3.org/2000/svg">
<g clip-path="url(#clip0_390_3)">
<rect width="1440" height="1955" fill="#5C6369"/>
<mask id="mask0_390_3" style="mask-type:alpha" maskUnits="userSpaceOnUse" x="300" y="-299" width="2281" height="2564">
<path d="M2523.75 948.198C2536.57 952.156 2581 972.936 2581 985.302C2581 997.669 2537.49 1016.22 2523.75 1019.93C2519.92 1020.96 2488.59 1027.93 2443.59 1037.83L2535.2 1445.34L2443.59 1445.34L2221.44 1086.33C2150.62 1101.7 2087.47 1115.32 2058.84 1121.33C2025.07 1128.43 1783.9 1130.2 1484.01 1130.24L1477.14 1329.69L1520.66 1331.56C1525.24 1333.21 1534.4 1334.04 1534.4 1343.93C1534.4 1351.35 1525.24 1353 1520.66 1353.82L1476.31 1353.82L1472.56 1462.65L1506.13 1578.89L1561.88 1578.89C1564.17 1578.89 1575.62 1581.37 1575.62 1588.79C1575.62 1601.15 1566.46 1600.33 1561.88 1601.15L1513.27 1603.63L1546.84 1719.87L1573.33 1719.87C1577.91 1720.7 1587.07 1721.85 1587.07 1729.77C1587.07 1739.66 1579.44 1742.13 1575.62 1742.13L1553.27 1742.13L1580.41 1836.12L1623.71 1836.12C1627.53 1836.94 1635.16 1838.59 1635.16 1846.01C1635.16 1853.93 1627.53 1858.38 1623.71 1858.38L1587.07 1859.19L1683.26 2192.28C1687.84 2212.06 1706.62 2252.13 1763.41 2254.11C1732.88 2263.18 1661.49 2272.04 1632.87 2256.58C1587.27 2231.96 1383.79 1815.57 1234.39 1501.57L1090.11 1497.27C1070.26 1498.1 1030.56 1481.45 1030.56 1408.24C1030.56 1335.03 1065.68 1314.41 1083.23 1313.26L1145.32 1313.26C1101 1219.13 1071.69 1156.45 1069.49 1153.48C1060.33 1141.12 1044.3 1129.55 1021.4 1129.49L1015.84 1129.48C867.788 1129.11 722.818 1128.75 595.431 1128.75C467.424 1128.75 300 1048.62 300 975.409C300 902.199 469.325 837.328 595.431 834.43C723.477 831.487 870.711 829.524 1021.4 828.475C1048.88 828.273 1057.5 820.059 1069.49 809.694C1074.85 805.063 1103.43 745.54 1145.32 656.348L1083.23 656.348C1064.91 652.226 1028.73 627.658 1030.56 562.363C1032.39 497.067 1071.02 471.033 1090.11 466.177L1234.39 466.177C1379.36 157.312 1576.06 -253.094 1637.45 -288.457C1661.7 -302.424 1732.88 -300.823 1767.99 -293.403C1715.32 -290.93 1694.71 -248.884 1692.42 -243.937C1691.38 -241.702 1644.51 -81.5229 1590.83 102.326L1628.29 102.326C1632.11 102.326 1639.74 106.778 1639.74 114.693C1639.74 122.608 1632.11 127.059 1628.29 127.059L1583.62 127.059C1573.84 160.549 1563.9 194.613 1554.03 228.465L1580.2 230.939C1584.02 231.763 1591.65 232.917 1591.65 240.832C1591.65 250.725 1584.02 250.725 1580.2 250.725L1547.53 250.725C1535.95 290.437 1524.53 329.615 1513.64 366.971L1566.46 366.971C1570.28 367.795 1577.91 371.423 1577.91 379.337C1577.91 387.252 1570.28 390.88 1566.46 391.704L1506.43 391.704C1494.12 433.946 1482.64 473.36 1472.56 507.95L1476.45 616.775L1516.08 616.775C1519.89 617.6 1527.53 621.227 1527.53 629.142C1527.53 637.057 1519.89 639.035 1516.08 639.035L1477.25 639.035L1484.01 828.085C1789.2 829.762 2034.06 835.399 2058.84 844.319C2063.5 845.994 2135.45 861.986 2221.44 880.953L2443.59 520.317L2535.2 520.317L2443.59 929.941C2488.29 939.862 2519.66 946.939 2523.75 948.198Z" fill="white"/>
</mask>
<g mask="url(#mask0_390_3)">
<g filter="url(#filter0_d_390_3)">
<rect x="142" y="-46" width="1429" height="2190" fill="white"/>
</g>
</g>
</g>
<defs>
<filter id="filter0_d_390_3" x="138" y="-46" width="1437" height="2198" filterUnits="userSpaceOnUse" color-interpolation-filters="sRGB">
<feFlood flood-opacity="0" result="BackgroundImageFix"/>
<feColorMatrix in="SourceAlpha" type="matrix" values="0 0 0 0 0 0 0 0 0 0 0 0 0 0 0 0 0 0 127 0" result="hardAlpha"/>
<feOffset dy="4"/>
<feGaussianBlur stdDeviation="2"/>
<feComposite in2="hardAlpha" operator="out"/>
<feColorMatrix type="matrix" values="0 0 0 0 0 0 0 0 0 0 0 0 0 0 0 0 0 0 0.25 0"/>
<feBlend mode="normal" in2="BackgroundImageFix" result="effect1_dropShadow_390_3"/>
<feBlend mode="normal" in="SourceGraphic" in2="effect1_dropShadow_390_3" result="shape"/>
</filter>
<clipPath id="clip0_390_3">
<rect width="1440" height="1955" fill="white"/>
</clipPath>
</defs>
</svg>
