<svg width="120" height="656" viewBox="0 0 120 656" fill="none" xmlns="http://www.w3.org/2000/svg">
<path d="M16.7882 336.877C13.2516 335.867 1 330.567 1 327.413C1 324.258 12.999 319.527 16.7882 318.581C17.8429 318.317 26.4819 316.538 38.8916 314.013L13.6305 210.072H38.8916L100.15 301.643C119.679 297.722 137.093 294.248 144.988 292.715C154.301 290.906 220.806 290.453 303.501 290.442L305.396 239.57L293.397 239.092C292.134 238.671 289.607 238.461 289.607 235.938C289.607 234.045 292.134 233.624 293.397 233.414H305.625L306.659 205.656L297.402 176.005H282.029C281.398 176.005 278.24 175.374 278.24 173.482C278.24 170.327 280.766 170.538 282.029 170.327L295.432 169.696L286.176 140.046H278.871C277.608 139.835 275.082 139.541 275.082 137.522C275.082 134.999 277.187 134.368 278.24 134.368H284.403L276.919 110.395H264.978C263.925 110.185 261.82 109.764 261.82 107.871C261.82 105.853 263.925 104.717 264.978 104.717L275.082 104.511L248.558 19.5497C247.295 14.5028 242.117 4.28284 226.455 3.77814C234.875 1.46497 254.56 -0.794617 262.452 3.14716C275.028 9.42877 331.138 115.636 372.337 195.727L412.124 196.824C417.597 196.613 428.543 200.861 428.543 219.535C428.543 238.209 418.86 243.467 414.018 243.761H396.898C409.118 267.771 417.202 283.758 417.807 284.514C420.333 287.669 424.754 290.62 431.069 290.635L432.583 290.638C473.416 290.731 513.399 290.822 548.533 290.822C583.832 290.822 630 311.262 630 329.936C630 348.61 583.307 365.157 548.533 365.896C513.223 366.646 472.623 367.147 431.069 367.415C423.491 367.466 421.115 369.561 417.807 372.205C416.329 373.386 408.45 388.569 396.898 411.319H414.018C419.07 412.37 429.048 418.637 428.543 435.292C428.038 451.947 417.386 458.588 412.124 459.826H372.337C332.359 538.608 278.119 643.291 261.189 652.311C254.502 655.873 234.875 655.465 225.192 653.572C239.717 652.942 245.401 642.217 246.032 640.955C246.318 640.385 259.244 599.528 274.044 552.634H263.715C262.662 552.634 260.557 551.498 260.557 549.479C260.557 547.46 262.662 546.325 263.715 546.325H276.035C278.73 537.783 281.471 529.094 284.194 520.459L276.977 519.828C275.924 519.618 273.819 519.324 273.819 517.305C273.819 514.781 275.924 514.781 276.977 514.781H285.984C289.178 504.652 292.328 494.659 295.331 485.131H280.766C279.714 484.92 277.608 483.995 277.608 481.976C277.608 479.958 279.714 479.032 280.766 478.822H297.319C300.714 468.047 303.88 457.994 306.659 449.171L305.585 421.413H294.66C293.607 421.203 291.502 420.277 291.502 418.259C291.502 416.24 293.607 415.735 294.66 415.735H305.366L303.501 367.514C219.343 367.086 151.821 365.648 144.988 363.373C143.705 362.946 123.863 358.867 100.15 354.029L38.8916 446.017H13.6305L38.8916 341.534C26.5653 339.003 17.9135 337.198 16.7882 336.877Z" fill="white"/>
<path d="M38.8916 314.013C26.4819 316.538 17.8429 318.317 16.7882 318.581C12.999 319.527 1 324.258 1 327.413C1 330.567 13.2516 335.867 16.7882 336.877C17.9135 337.198 26.5653 339.003 38.8916 341.534M38.8916 314.013L13.6305 210.072H38.8916L100.15 301.643M38.8916 314.013C55.5827 310.617 79.0951 305.87 100.15 301.643M100.15 301.643C119.679 297.722 137.093 294.248 144.988 292.715C154.301 290.906 220.806 290.453 303.501 290.442M100.15 354.029L38.8916 446.017H13.6305L38.8916 341.534M38.8916 341.534C74.9845 348.944 142.583 362.573 144.988 363.373C151.821 365.648 219.343 367.086 303.501 367.514M303.501 290.442C343.763 290.437 387.864 290.536 431.069 290.635M303.501 290.442L305.396 239.57M431.069 290.635C472.427 290.729 512.965 290.822 548.533 290.822C583.832 290.822 630 311.262 630 329.936C630 348.61 583.307 365.157 548.533 365.896C513.223 366.646 472.623 367.147 431.069 367.415M431.069 290.635C424.754 290.62 420.333 287.669 417.807 284.514C417.202 283.758 409.118 267.771 396.898 243.761M303.501 367.514C343.82 367.719 387.958 367.692 431.069 367.415M303.501 367.514L305.366 415.735M431.069 367.415C423.491 367.466 421.115 369.561 417.807 372.205C416.329 373.386 408.45 388.569 396.898 411.319M305.396 239.57L306.659 205.656L297.402 176.005M305.396 239.57L293.397 239.092C292.134 238.671 289.607 238.461 289.607 235.938C289.607 234.045 292.134 233.624 293.397 233.414H305.625M297.402 176.005C296.554 176.005 282.661 176.005 282.029 176.005C281.398 176.005 278.24 175.374 278.24 173.482C278.24 170.327 280.766 170.538 282.029 170.327L295.432 169.696M297.402 176.005L295.432 169.696M295.432 169.696L286.176 140.046M286.176 140.046H278.871C277.608 139.835 275.082 139.541 275.082 137.522C275.082 134.999 277.187 134.368 278.24 134.368H284.403M286.176 140.046L284.403 134.368M284.403 134.368L276.919 110.395M276.919 110.395H264.978C263.925 110.185 261.82 109.764 261.82 107.871C261.82 105.853 263.925 104.717 264.978 104.717L275.082 104.511M276.919 110.395L275.082 104.511M275.082 104.511L248.558 19.5498C247.295 14.5028 242.117 4.28282 226.455 3.77813C234.875 1.46494 254.56 -0.794612 262.452 3.14718C275.028 9.42874 331.138 115.637 372.337 195.727M305.585 421.413L306.659 449.171C303.88 457.994 300.714 468.047 297.319 478.822M305.585 421.413H294.66C293.607 421.203 291.502 420.277 291.502 418.259C291.502 416.24 293.607 415.735 294.66 415.735H305.366M305.585 421.413L305.366 415.735M295.331 485.131H280.766C279.714 484.92 277.608 483.995 277.608 481.976C277.608 479.958 279.714 479.032 280.766 478.822H297.319M295.331 485.131C296.001 483.003 296.664 480.899 297.319 478.822M295.331 485.131C292.328 494.659 289.178 504.652 285.984 514.781M284.194 520.459L276.977 519.828C275.924 519.618 273.819 519.324 273.819 517.305C273.819 514.781 275.924 514.781 276.977 514.781H285.984M284.194 520.459C284.792 518.563 285.389 516.67 285.984 514.781M284.194 520.459C281.471 529.094 278.73 537.783 276.035 546.325M274.044 552.634C259.244 599.528 246.318 640.385 246.032 640.955C245.401 642.217 239.717 652.942 225.192 653.572C234.875 655.465 254.502 655.873 261.189 652.311C278.119 643.291 332.359 538.608 372.337 459.826M274.044 552.634H263.715C262.662 552.634 260.557 551.498 260.557 549.479C260.557 547.46 262.662 546.325 263.715 546.325H276.035M274.044 552.634C274.704 550.542 275.368 548.438 276.035 546.325M372.337 459.826H412.123C417.386 458.588 428.038 451.947 428.543 435.292C429.048 418.637 419.07 412.371 414.018 411.319H396.898M372.337 459.826C381.474 441.82 389.867 425.168 396.898 411.319M396.898 243.761H414.018C418.86 243.467 428.543 238.209 428.543 219.535C428.543 200.861 417.597 196.614 412.123 196.824L372.337 195.727M396.898 243.761C389.868 229.948 381.469 213.479 372.337 195.727" stroke="white"/>
</svg>
