<svg width="1201" height="964" viewBox="0 0 1201 964" fill="none" xmlns="http://www.w3.org/2000/svg">
<path d="M875.236 2.52148C911.226 2.52148 931.241 17.206 936.749 24.5482C959.596 55 958.149 116.443 936.749 142.024C933.077 151.508 906.054 170.475 883.499 170.475H659.941H442.81H346.41H130.656C0.285721 159.462 -1.49923 124.17 3.30599 100.724C8.11118 77.2783 68.4907 46.5749 75.8355 41.986C83.1804 37.3971 96.9519 2.52148 143.775 2.52148H346.41H875.236Z" fill="#41464A"/>
<path d="M936.749 24.5482C931.241 17.206 911.226 2.52148 875.236 2.52148C848.478 2.52148 578.826 2.52148 346.41 2.52148M130.656 170.475C0.285721 159.462 -1.49923 124.17 3.30598 100.724C8.11118 77.2783 68.4907 46.5749 75.8355 41.986C83.1804 37.3971 96.9519 2.52148 143.775 2.52148C203.592 2.52148 266.225 2.52148 346.41 2.52148M250.009 170.475H346.41M442.81 170.475H346.41M346.41 170.475V2.52148M566.754 170.475H659.941H753.129M936.749 142.024C933.077 151.508 906.054 170.475 883.499 170.475" stroke="white" stroke-width="4"/>
<path d="M268.597 76.9229C269.472 76.1937 270.513 75.8291 271.722 75.8291C274.034 75.8291 275.815 76.6729 277.065 78.3604C279.045 81.0062 280.034 84.9958 280.034 90.3291C280.034 94.0166 279.701 96.7666 279.034 98.5791C278.347 100.475 277.201 101.996 275.597 103.142C274.013 104.267 272.097 104.829 269.847 104.829C267.326 104.829 265.243 104.277 263.597 103.173C261.951 102.048 260.763 100.517 260.034 98.5791C259.618 97.4749 259.347 96.3291 259.222 95.1416C259.097 93.9541 259.034 92.3604 259.034 90.3604C259.034 84.0062 259.482 79.0687 260.378 75.5479C261.732 70.277 264.836 64.8291 269.69 59.2041L275.784 64.2353C273.868 66.4645 272.295 68.5374 271.065 70.4541C269.836 72.3708 268.909 74.4853 268.284 76.7978L268.597 76.9229ZM271.003 96.3916C271.69 95.3291 272.034 93.3083 272.034 90.3291C272.034 87.3499 271.69 85.3291 271.003 84.2666C270.607 83.6416 270.118 83.3291 269.534 83.3291C268.951 83.3291 268.461 83.6416 268.065 84.2666C267.378 85.3291 267.034 87.3499 267.034 90.3291C267.034 93.3083 267.378 95.3291 268.065 96.3916C268.461 97.0166 268.951 97.3291 269.534 97.3291C270.118 97.3291 270.607 97.0166 271.003 96.3916ZM300.612 76.9229C301.487 76.1937 302.529 75.8291 303.737 75.8291C306.05 75.8291 307.831 76.6729 309.081 78.3604C311.06 81.0062 312.05 84.9958 312.05 90.3291C312.05 94.0166 311.716 96.7666 311.05 98.5791C310.362 100.475 309.216 101.996 307.612 103.142C306.029 104.267 304.112 104.829 301.862 104.829C299.341 104.829 297.258 104.277 295.612 103.173C293.966 102.048 292.779 100.517 292.05 98.5791C291.633 97.4749 291.362 96.3291 291.237 95.1416C291.112 93.9541 291.05 92.3604 291.05 90.3604C291.05 84.0062 291.498 79.0687 292.394 75.5479C293.748 70.277 296.852 64.8291 301.706 59.2041L307.8 64.2353C305.883 66.4645 304.31 68.5374 303.081 70.4541C301.852 72.3708 300.925 74.4853 300.3 76.7978L300.612 76.9229ZM303.019 96.3916C303.706 95.3291 304.05 93.3083 304.05 90.3291C304.05 87.3499 303.706 85.3291 303.019 84.2666C302.623 83.6416 302.133 83.3291 301.55 83.3291C300.966 83.3291 300.477 83.6416 300.081 84.2666C299.394 85.3291 299.05 87.3499 299.05 90.3291C299.05 93.3083 299.394 95.3291 300.081 96.3916C300.477 97.0166 300.966 97.3291 301.55 97.3291C302.133 97.3291 302.623 97.0166 303.019 96.3916Z" fill="#FCC945"/>
<path d="M868.597 76.9229C869.472 76.1937 870.513 75.8291 871.722 75.8291C874.034 75.8291 875.815 76.6729 877.065 78.3604C879.045 81.0062 880.034 84.9958 880.034 90.3291C880.034 94.0166 879.701 96.7666 879.034 98.5791C878.347 100.475 877.201 101.996 875.597 103.142C874.013 104.267 872.097 104.829 869.847 104.829C867.326 104.829 865.243 104.277 863.597 103.173C861.951 102.048 860.763 100.517 860.034 98.5791C859.618 97.4749 859.347 96.3291 859.222 95.1416C859.097 93.9541 859.034 92.3604 859.034 90.3604C859.034 84.0062 859.482 79.0687 860.378 75.5479C861.732 70.277 864.836 64.8291 869.69 59.2041L875.784 64.2353C873.868 66.4645 872.295 68.5374 871.065 70.4541C869.836 72.3708 868.909 74.4853 868.284 76.7978L868.597 76.9229ZM871.003 96.3916C871.69 95.3291 872.034 93.3083 872.034 90.3291C872.034 87.3499 871.69 85.3291 871.003 84.2666C870.607 83.6416 870.118 83.3291 869.534 83.3291C868.951 83.3291 868.461 83.6416 868.065 84.2666C867.378 85.3291 867.034 87.3499 867.034 90.3291C867.034 93.3083 867.378 95.3291 868.065 96.3916C868.461 97.0166 868.951 97.3291 869.534 97.3291C870.118 97.3291 870.607 97.0166 871.003 96.3916ZM900.612 76.9229C901.487 76.1937 902.529 75.8291 903.737 75.8291C906.05 75.8291 907.831 76.6729 909.081 78.3604C911.06 81.0062 912.05 84.9958 912.05 90.3291C912.05 94.0166 911.716 96.7666 911.05 98.5791C910.362 100.475 909.216 101.996 907.612 103.142C906.029 104.267 904.112 104.829 901.862 104.829C899.341 104.829 897.258 104.277 895.612 103.173C893.966 102.048 892.779 100.517 892.05 98.5791C891.633 97.4749 891.362 96.3291 891.237 95.1416C891.112 93.9541 891.05 92.3604 891.05 90.3604C891.05 84.0062 891.498 79.0687 892.394 75.5479C893.748 70.277 896.852 64.8291 901.706 59.2041L907.8 64.2353C905.883 66.4645 904.31 68.5374 903.081 70.4541C901.852 72.3708 900.925 74.4853 900.3 76.7978L900.612 76.9229ZM903.019 96.3916C903.706 95.3291 904.05 93.3083 904.05 90.3291C904.05 87.3499 903.706 85.3291 903.019 84.2666C902.623 83.6416 902.133 83.3291 901.55 83.3291C900.966 83.3291 900.477 83.6416 900.081 84.2666C899.394 85.3291 899.05 87.3499 899.05 90.3291C899.05 93.3083 899.394 95.3291 900.081 96.3916C900.477 97.0166 900.966 97.3291 901.55 97.3291C902.133 97.3291 902.623 97.0166 903.019 96.3916Z" fill="#FCC945"/>
<path d="M848.906 532.135C849.781 531.406 850.823 531.041 852.031 531.041C854.344 531.041 856.125 531.885 857.375 533.572C859.354 536.218 860.344 540.208 860.344 545.541C860.344 549.229 860.01 551.979 859.344 553.791C858.656 555.687 857.51 557.208 855.906 558.354C854.323 559.479 852.406 560.041 850.156 560.041C847.635 560.041 845.552 559.489 843.906 558.385C842.26 557.26 841.073 555.729 840.344 553.791C839.927 552.687 839.656 551.541 839.531 550.354C839.406 549.166 839.344 547.572 839.344 545.572C839.344 539.218 839.792 534.281 840.688 530.76C842.042 525.489 845.146 520.041 850 514.416L856.094 519.447C854.177 521.676 852.604 523.749 851.375 525.666C850.146 527.583 849.219 529.697 848.594 532.01L848.906 532.135ZM851.312 551.604C852 550.541 852.344 548.52 852.344 545.541C852.344 542.562 852 540.541 851.312 539.479C850.917 538.854 850.427 538.541 849.844 538.541C849.26 538.541 848.771 538.854 848.375 539.479C847.688 540.541 847.344 542.562 847.344 545.541C847.344 548.52 847.688 550.541 848.375 551.604C848.771 552.229 849.26 552.541 849.844 552.541C850.427 552.541 850.917 552.229 851.312 551.604ZM872.484 521.76C874.193 517.239 877.151 514.979 881.359 514.979C885.568 514.979 888.526 517.239 890.234 521.76C890.609 522.781 890.891 524.187 891.078 525.979C891.266 527.77 891.37 529.406 891.391 530.885C891.432 532.343 891.453 534.562 891.453 537.541C891.453 540.52 891.432 542.749 891.391 544.229C891.37 545.687 891.266 547.312 891.078 549.104C890.891 550.895 890.609 552.301 890.234 553.322C888.526 557.843 885.568 560.104 881.359 560.104C877.151 560.104 874.193 557.843 872.484 553.322C872.109 552.301 871.828 550.895 871.641 549.104C871.453 547.312 871.339 545.687 871.297 544.229C871.276 542.749 871.266 540.52 871.266 537.541C871.266 534.562 871.276 532.343 871.297 530.885C871.339 529.406 871.453 527.77 871.641 525.979C871.828 524.187 872.109 522.781 872.484 521.76ZM881.359 522.604C880.464 522.604 879.828 523.916 879.453 526.541C879.245 527.937 879.141 531.604 879.141 537.541V540.822L883.328 527.041C883.182 525.812 882.943 524.77 882.609 523.916C882.276 523.041 881.859 522.604 881.359 522.604ZM879.391 548.041C879.536 549.27 879.776 550.322 880.109 551.197C880.443 552.051 880.859 552.479 881.359 552.479C882.255 552.479 882.891 551.166 883.266 548.541C883.474 547.145 883.578 543.479 883.578 537.541V534.26L879.391 548.041Z" fill="#FCC945"/>
<path d="M582.497 76.9229C583.372 76.1937 584.414 75.8291 585.622 75.8291C587.935 75.8291 589.716 76.6729 590.966 78.3604C592.945 81.0062 593.935 84.9958 593.935 90.3291C593.935 94.0166 593.601 96.7666 592.935 98.5791C592.247 100.475 591.101 101.996 589.497 103.142C587.914 104.267 585.997 104.829 583.747 104.829C581.226 104.829 579.143 104.277 577.497 103.173C575.851 102.048 574.664 100.517 573.935 98.5791C573.518 97.4749 573.247 96.3291 573.122 95.1416C572.997 93.9541 572.935 92.3604 572.935 90.3604C572.935 84.0062 573.382 79.0687 574.278 75.5479C575.632 70.277 578.737 64.8291 583.591 59.2041L589.685 64.2353C587.768 66.4645 586.195 68.5374 584.966 70.4541C583.737 72.3708 582.81 74.4853 582.185 76.7978L582.497 76.9229ZM584.903 96.3916C585.591 95.3291 585.935 93.3083 585.935 90.3291C585.935 87.3499 585.591 85.3291 584.903 84.2666C584.507 83.6416 584.018 83.3291 583.435 83.3291C582.851 83.3291 582.362 83.6416 581.966 84.2666C581.278 85.3291 580.935 87.3499 580.935 90.3291C580.935 93.3083 581.278 95.3291 581.966 96.3916C582.362 97.0166 582.851 97.3291 583.435 97.3291C584.018 97.3291 584.507 97.0166 584.903 96.3916ZM616.731 68.7353C616.336 67.7978 615.742 67.3291 614.95 67.3291C614.159 67.3291 613.565 67.7978 613.169 68.7353C612.773 69.652 612.575 70.8395 612.575 72.2978C612.575 74.0062 612.773 75.4333 613.169 76.5791C613.565 77.7041 614.159 78.2666 614.95 78.2666C615.742 78.2666 616.336 77.7041 616.731 76.5791C617.127 75.4333 617.325 74.0062 617.325 72.2978C617.325 70.8395 617.127 69.652 616.731 68.7353ZM607.294 63.2041C609.106 60.9541 611.659 59.8291 614.95 59.8291C618.242 59.8291 620.794 60.9541 622.606 63.2041C624.419 65.4333 625.325 68.2562 625.325 71.6729C625.325 76.4229 623.69 79.777 620.419 81.7354V82.0479C624.106 84.0479 625.95 87.5791 625.95 92.6416C625.95 96.1833 624.981 99.0999 623.044 101.392C621.106 103.683 618.409 104.829 614.95 104.829C611.492 104.829 608.794 103.683 606.856 101.392C604.919 99.0999 603.95 96.1833 603.95 92.6416C603.95 87.5791 605.794 84.0479 609.481 82.0479V81.7354C606.211 79.777 604.575 76.4229 604.575 71.6729C604.575 68.2562 605.481 65.4333 607.294 63.2041ZM617.2 87.5166C616.7 86.3499 615.95 85.7666 614.95 85.7666C613.95 85.7666 613.2 86.3499 612.7 87.5166C612.2 88.6833 611.95 90.1833 611.95 92.0166C611.95 93.5999 612.2 94.8812 612.7 95.8604C613.2 96.8395 613.95 97.3291 614.95 97.3291C615.95 97.3291 616.7 96.8395 617.2 95.8604C617.7 94.8812 617.95 93.5999 617.95 92.0166C617.95 90.1833 617.7 88.6833 617.2 87.5166Z" fill="#FCC945"/>
<path d="M70.6489 93.7445V98.7445C68.1628 99.0778 65.9614 99.2445 64.0448 99.2445C61.1975 99.2445 58.8989 98.5361 57.1489 97.1195C55.4128 95.6889 54.2392 93.7584 53.6281 91.3278C53.1975 89.6334 52.9823 87.2722 52.9823 84.2445C52.9823 81.2167 53.1975 78.8556 53.6281 77.1611C54.2392 74.7167 55.392 72.7861 57.0864 71.3695C58.7809 69.9528 61.0309 69.2445 63.8364 69.2445C65.9614 69.2445 68.1281 69.3695 70.3364 69.6195V74.6195C67.5586 74.3695 65.4128 74.2445 63.8989 74.2445C61.0517 74.2445 59.3156 75.8417 58.6906 79.0361C58.4406 80.3417 58.3156 82.0778 58.3156 84.2445C58.3156 86.4111 58.4406 88.1472 58.6906 89.4528C59.3156 92.6472 61.1003 94.2445 64.0448 94.2445C65.642 94.2445 67.8434 94.0778 70.6489 93.7445ZM79.9927 98.9111H74.6593V69.5778H79.9927V81.0361L86.1593 69.5778H92.1802L85.201 81.8695L94.1177 98.9111H88.1385L81.6177 86.182L79.9927 88.932V98.9111ZM102.67 74.5778V83.0778H103.961C105.156 83.0778 106.024 83.0222 106.566 82.9111C107.51 82.7167 108.26 82.2514 108.816 81.5153C109.385 80.7792 109.67 79.8834 109.67 78.8278C109.67 77.7722 109.385 76.8764 108.816 76.1403C108.26 75.4042 107.51 74.9389 106.566 74.7445C106.024 74.6334 105.156 74.5778 103.961 74.5778H102.67ZM97.3364 69.5778H103.92C105.975 69.5778 107.441 69.682 108.316 69.8903C110.288 70.3625 111.892 71.3972 113.128 72.9945C114.378 74.5778 115.003 76.5222 115.003 78.8278C115.003 81.1334 114.378 83.0847 113.128 84.682C111.892 86.2653 110.288 87.2931 108.316 87.7653C107.441 87.9736 105.975 88.0778 103.92 88.0778H102.67V98.9111H97.3364V69.5778ZM136.014 69.5778V74.5778H129.347V98.9111H124.014V74.5778H117.347V69.5778H136.014Z" fill="white"/>
<path d="M113.505 267.49V272.49C111.019 272.823 108.818 272.99 106.901 272.99C104.054 272.99 101.755 272.281 100.005 270.865C98.2693 269.434 97.0956 267.503 96.4845 265.073C96.054 263.378 95.8387 261.017 95.8387 257.99C95.8387 254.962 96.054 252.601 96.4845 250.906C97.0956 248.462 98.2484 246.531 99.9429 245.115C101.637 243.698 103.887 242.99 106.693 242.99C108.818 242.99 110.985 243.115 113.193 243.365V248.365C110.415 248.115 108.269 247.99 106.755 247.99C103.908 247.99 102.172 249.587 101.547 252.781C101.297 254.087 101.172 255.823 101.172 257.99C101.172 260.156 101.297 261.892 101.547 263.198C102.172 266.392 103.957 267.99 106.901 267.99C108.498 267.99 110.7 267.823 113.505 267.49Z" fill="white"/>
<path d="M425.09 267.49V272.49C422.604 272.823 420.402 272.99 418.486 272.99C415.638 272.99 413.34 272.281 411.59 270.865C409.854 269.434 408.68 267.503 408.069 265.073C407.638 263.378 407.423 261.017 407.423 257.99C407.423 254.962 407.638 252.601 408.069 250.906C408.68 248.462 409.833 246.531 411.527 245.115C413.222 243.698 415.472 242.99 418.277 242.99C420.402 242.99 422.569 243.115 424.777 243.365V248.365C422 248.115 419.854 247.99 418.34 247.99C415.493 247.99 413.757 249.587 413.132 252.781C412.882 254.087 412.757 255.823 412.757 257.99C412.757 260.156 412.882 261.892 413.132 263.198C413.757 266.392 415.541 267.99 418.486 267.99C420.083 267.99 422.284 267.823 425.09 267.49Z" fill="white"/>
<path d="M770.264 267.49V272.49C767.778 272.823 765.576 272.99 763.66 272.99C760.812 272.99 758.514 272.281 756.764 270.865C755.028 269.434 753.854 267.503 753.243 265.073C752.812 263.378 752.597 261.017 752.597 257.99C752.597 254.962 752.812 252.601 753.243 250.906C753.854 248.462 755.007 246.531 756.701 245.115C758.396 243.698 760.646 242.99 763.451 242.99C765.576 242.99 767.743 243.115 769.951 243.365V248.365C767.173 248.115 765.028 247.99 763.514 247.99C760.666 247.99 758.93 249.587 758.305 252.781C758.055 254.087 757.93 255.823 757.93 257.99C757.93 260.156 758.055 261.892 758.305 263.198C758.93 266.392 760.715 267.99 763.66 267.99C765.257 267.99 767.458 267.823 770.264 267.49Z" fill="white"/>
<path d="M769.104 797.992V802.992C766.618 803.325 764.417 803.492 762.5 803.492C759.653 803.492 757.354 802.783 755.604 801.367C753.868 799.936 752.695 798.005 752.084 795.575C751.653 793.88 751.438 791.519 751.438 788.492C751.438 785.464 751.653 783.103 752.084 781.408C752.695 778.964 753.848 777.033 755.542 775.617C757.236 774.2 759.486 773.492 762.292 773.492C764.417 773.492 766.584 773.617 768.792 773.867V778.867C766.014 778.617 763.868 778.492 762.354 778.492C759.507 778.492 757.771 780.089 757.146 783.283C756.896 784.589 756.771 786.325 756.771 788.492C756.771 790.658 756.896 792.394 757.146 793.7C757.771 796.894 759.556 798.492 762.5 798.492C764.098 798.492 766.299 798.325 769.104 797.992Z" fill="white"/>
<path d="M267.776 243.323H273.11V255.573H278.443V243.323H283.776V272.656H278.443V260.573H273.11V272.656H267.776V243.323Z" fill="white"/>
<path d="M579.359 243.323H584.693V255.573H590.026V243.323H595.359V272.656H590.026V260.573H584.693V272.656H579.359V243.323Z" fill="white"/>
<path d="M924.533 243.323H929.867V255.573H935.2V243.323H940.533V272.656H935.2V260.573H929.867V272.656H924.533V243.323Z" fill="white"/>
<path d="M923.375 773.825H928.708V786.075H934.042V773.825H939.375V803.158H934.042V791.075H928.708V803.158H923.375V773.825Z" fill="white"/>
<path d="M1129.55 327.879H1134.89V340.129H1140.22V327.879H1145.55V357.212H1140.22V345.129H1134.89V357.212H1129.55V327.879ZM1154.88 337.17C1154.67 338.309 1154.56 340.101 1154.56 342.545C1154.56 344.99 1154.67 346.781 1154.88 347.92C1155.13 349.267 1155.58 350.379 1156.25 351.254C1156.93 352.115 1157.81 352.545 1158.9 352.545C1159.98 352.545 1160.85 352.115 1161.52 351.254C1162.2 350.379 1162.67 349.267 1162.92 347.92C1163.13 346.767 1163.23 344.976 1163.23 342.545C1163.23 340.101 1163.13 338.309 1162.92 337.17C1162.67 335.823 1162.2 334.719 1161.52 333.858C1160.85 332.983 1159.98 332.545 1158.9 332.545C1157.81 332.545 1156.93 332.983 1156.25 333.858C1155.58 334.719 1155.13 335.823 1154.88 337.17ZM1149.81 349.816C1149.42 348.274 1149.23 345.851 1149.23 342.545C1149.23 339.24 1149.42 336.816 1149.81 335.274C1150.37 333.024 1151.42 331.177 1152.96 329.733C1154.5 328.274 1156.48 327.545 1158.9 327.545C1161.31 327.545 1163.29 328.274 1164.83 329.733C1166.38 331.177 1167.42 333.024 1167.98 335.274C1168.37 336.816 1168.56 339.24 1168.56 342.545C1168.56 345.851 1168.37 348.274 1167.98 349.816C1167.42 352.066 1166.38 353.92 1164.83 355.379C1163.29 356.823 1161.31 357.545 1158.9 357.545C1156.48 357.545 1154.5 356.823 1152.96 355.379C1151.42 353.92 1150.37 352.066 1149.81 349.816ZM1189.57 327.879V332.879H1182.91V357.212H1177.57V332.879H1170.91V327.879H1189.57Z" fill="white"/>
<path d="M1129.55 861.856H1134.89V874.106H1140.22V861.856H1145.55V891.189H1140.22V879.106H1134.89V891.189H1129.55V861.856ZM1154.88 871.148C1154.67 872.287 1154.56 874.078 1154.56 876.523C1154.56 878.967 1154.67 880.759 1154.88 881.898C1155.13 883.245 1155.58 884.356 1156.25 885.231C1156.93 886.092 1157.81 886.523 1158.9 886.523C1159.98 886.523 1160.85 886.092 1161.52 885.231C1162.2 884.356 1162.67 883.245 1162.92 881.898C1163.13 880.745 1163.23 878.953 1163.23 876.523C1163.23 874.078 1163.13 872.287 1162.92 871.148C1162.67 869.801 1162.2 868.696 1161.52 867.835C1160.85 866.96 1159.98 866.523 1158.9 866.523C1157.81 866.523 1156.93 866.96 1156.25 867.835C1155.58 868.696 1155.13 869.801 1154.88 871.148ZM1149.81 883.794C1149.42 882.252 1149.23 879.828 1149.23 876.523C1149.23 873.217 1149.42 870.794 1149.81 869.252C1150.37 867.002 1151.42 865.155 1152.96 863.71C1154.5 862.252 1156.48 861.523 1158.9 861.523C1161.31 861.523 1163.29 862.252 1164.83 863.71C1166.38 865.155 1167.42 867.002 1167.98 869.252C1168.37 870.794 1168.56 873.217 1168.56 876.523C1168.56 879.828 1168.37 882.252 1167.98 883.794C1167.42 886.044 1166.38 887.898 1164.83 889.356C1163.29 890.801 1161.31 891.523 1158.9 891.523C1156.48 891.523 1154.5 890.801 1152.96 889.356C1151.42 887.898 1150.37 886.044 1149.81 883.794ZM1189.57 861.856V866.856H1182.91V891.189H1177.57V866.856H1170.91V861.856H1189.57Z" fill="white"/>
<path d="M1139.42 404.461C1138.61 399.225 1137.64 394.51 1136.5 390.315H1136.29C1135.17 394.468 1134.19 399.183 1133.37 404.461H1139.42ZM1132.27 385.795H1140.52C1142.91 393.267 1144.8 403.045 1146.21 415.128H1140.81C1140.64 413.211 1140.42 411.322 1140.12 409.461H1132.67C1132.37 411.322 1132.14 413.211 1131.98 415.128H1126.58C1127.98 403.045 1129.88 393.267 1132.27 385.795ZM1165.74 385.795V390.795H1160.4V410.128H1165.74V415.128H1149.74V410.128H1155.07V390.795H1149.74V385.795H1165.74ZM1176.42 390.795V399.295H1177.71C1178.9 399.295 1179.77 399.239 1180.31 399.128C1181.24 398.933 1181.99 398.468 1182.56 397.732C1183.13 396.996 1183.42 396.1 1183.42 395.045C1183.42 393.989 1183.13 393.093 1182.56 392.357C1181.99 391.621 1181.24 391.156 1180.31 390.961C1179.76 390.85 1178.89 390.795 1177.71 390.795H1176.42ZM1171.08 385.795H1177.67C1179.72 385.795 1181.19 385.899 1182.06 386.107C1184.03 386.579 1185.64 387.614 1186.87 389.211C1188.12 390.795 1188.75 392.739 1188.75 395.045C1188.75 396.781 1188.38 398.329 1187.64 399.69C1186.92 401.038 1185.94 402.107 1184.69 402.899L1189.27 415.128H1183.6L1179.73 404.274C1179.31 404.288 1178.62 404.295 1177.67 404.295H1176.42V415.128H1171.08V385.795Z" fill="white"/>
<path d="M1139.42 938.438C1138.61 933.202 1137.64 928.486 1136.5 924.292H1136.29C1135.17 928.445 1134.19 933.16 1133.37 938.438H1139.42ZM1132.27 919.771H1140.52C1142.91 927.243 1144.8 937.021 1146.21 949.104H1140.81C1140.64 947.188 1140.42 945.299 1140.12 943.438H1132.67C1132.37 945.299 1132.14 947.188 1131.98 949.104H1126.58C1127.98 937.021 1129.88 927.243 1132.27 919.771ZM1165.74 919.771V924.771H1160.4V944.104H1165.74V949.104H1149.74V944.104H1155.07V924.771H1149.74V919.771H1165.74ZM1176.42 924.771V933.271H1177.71C1178.9 933.271 1179.77 933.216 1180.31 933.104C1181.24 932.91 1181.99 932.445 1182.56 931.709C1183.13 930.973 1183.42 930.077 1183.42 929.021C1183.42 927.966 1183.13 927.07 1182.56 926.334C1181.99 925.598 1181.24 925.132 1180.31 924.938C1179.76 924.827 1178.89 924.771 1177.71 924.771H1176.42ZM1171.08 919.771H1177.67C1179.72 919.771 1181.19 919.875 1182.06 920.084C1184.03 920.556 1185.64 921.591 1186.87 923.188C1188.12 924.771 1188.75 926.716 1188.75 929.021C1188.75 930.757 1188.38 932.306 1187.64 933.667C1186.92 935.014 1185.94 936.084 1184.69 936.875L1189.27 949.104H1183.6L1179.73 938.25C1179.31 938.264 1178.62 938.271 1177.67 938.271H1176.42V949.104H1171.08V919.771Z" fill="white"/>
<path d="M178.187 161.72C178.77 161.234 179.465 160.991 180.27 160.991C181.812 160.991 182.999 161.554 183.833 162.679C185.152 164.443 185.812 167.102 185.812 170.658C185.812 173.116 185.59 174.95 185.145 176.158C184.687 177.422 183.923 178.436 182.854 179.2C181.798 179.95 180.52 180.325 179.02 180.325C177.34 180.325 175.951 179.956 174.854 179.22C173.756 178.47 172.965 177.45 172.479 176.158C172.201 175.422 172.02 174.658 171.937 173.866C171.854 173.075 171.812 172.012 171.812 170.679C171.812 166.443 172.11 163.151 172.708 160.804C173.61 157.29 175.68 153.658 178.916 149.908L182.979 153.262C181.701 154.748 180.652 156.13 179.833 157.408C179.013 158.686 178.395 160.095 177.979 161.637L178.187 161.72ZM179.791 174.7C180.249 173.991 180.479 172.644 180.479 170.658C180.479 168.672 180.249 167.325 179.791 166.616C179.527 166.2 179.201 165.991 178.812 165.991C178.423 165.991 178.097 166.2 177.833 166.616C177.374 167.325 177.145 168.672 177.145 170.658C177.145 172.644 177.374 173.991 177.833 174.7C178.097 175.116 178.423 175.325 178.812 175.325C179.201 175.325 179.527 175.116 179.791 174.7ZM201.01 156.262C200.746 155.637 200.35 155.325 199.822 155.325C199.294 155.325 198.899 155.637 198.635 156.262C198.371 156.873 198.239 157.665 198.239 158.637C198.239 159.776 198.371 160.727 198.635 161.491C198.899 162.241 199.294 162.616 199.822 162.616C200.35 162.616 200.746 162.241 201.01 161.491C201.274 160.727 201.406 159.776 201.406 158.637C201.406 157.665 201.274 156.873 201.01 156.262ZM194.718 152.575C195.926 151.075 197.628 150.325 199.822 150.325C202.017 150.325 203.718 151.075 204.926 152.575C206.135 154.061 206.739 155.943 206.739 158.22C206.739 161.387 205.649 163.623 203.468 164.929V165.137C205.926 166.47 207.156 168.825 207.156 172.2C207.156 174.561 206.51 176.505 205.218 178.033C203.926 179.561 202.128 180.325 199.822 180.325C197.517 180.325 195.718 179.561 194.426 178.033C193.135 176.505 192.489 174.561 192.489 172.2C192.489 168.825 193.718 166.47 196.176 165.137V164.929C193.996 163.623 192.906 161.387 192.906 158.22C192.906 155.943 193.51 154.061 194.718 152.575ZM201.322 168.783C200.989 168.005 200.489 167.616 199.822 167.616C199.156 167.616 198.656 168.005 198.322 168.783C197.989 169.561 197.822 170.561 197.822 171.783C197.822 172.838 197.989 173.693 198.322 174.345C198.656 174.998 199.156 175.325 199.822 175.325C200.489 175.325 200.989 174.998 201.322 174.345C201.656 173.693 201.822 172.838 201.822 171.783C201.822 170.561 201.656 169.561 201.322 168.783Z" fill="#FCC945"/>
<path d="M502.511 161.72C503.094 161.234 503.789 160.991 504.594 160.991C506.136 160.991 507.324 161.554 508.157 162.679C509.476 164.443 510.136 167.102 510.136 170.658C510.136 173.116 509.914 174.95 509.469 176.158C509.011 177.422 508.247 178.436 507.178 179.2C506.122 179.95 504.844 180.325 503.344 180.325C501.664 180.325 500.275 179.956 499.178 179.22C498.081 178.47 497.289 177.45 496.803 176.158C496.525 175.422 496.344 174.658 496.261 173.866C496.178 173.075 496.136 172.012 496.136 170.679C496.136 166.443 496.435 163.151 497.032 160.804C497.935 157.29 500.004 153.658 503.24 149.908L507.303 153.262C506.025 154.748 504.976 156.13 504.157 157.408C503.337 158.686 502.719 160.095 502.303 161.637L502.511 161.72ZM504.115 174.7C504.574 173.991 504.803 172.644 504.803 170.658C504.803 168.672 504.574 167.325 504.115 166.616C503.851 166.2 503.525 165.991 503.136 165.991C502.747 165.991 502.421 166.2 502.157 166.616C501.699 167.325 501.469 168.672 501.469 170.658C501.469 172.644 501.699 173.991 502.157 174.7C502.421 175.116 502.747 175.325 503.136 175.325C503.525 175.325 503.851 175.116 504.115 174.7ZM525.334 156.262C525.07 155.637 524.674 155.325 524.146 155.325C523.619 155.325 523.223 155.637 522.959 156.262C522.695 156.873 522.563 157.665 522.563 158.637C522.563 159.776 522.695 160.727 522.959 161.491C523.223 162.241 523.619 162.616 524.146 162.616C524.674 162.616 525.07 162.241 525.334 161.491C525.598 160.727 525.73 159.776 525.73 158.637C525.73 157.665 525.598 156.873 525.334 156.262ZM519.042 152.575C520.251 151.075 521.952 150.325 524.146 150.325C526.341 150.325 528.042 151.075 529.251 152.575C530.459 154.061 531.063 155.943 531.063 158.22C531.063 161.387 529.973 163.623 527.792 164.929V165.137C530.251 166.47 531.48 168.825 531.48 172.2C531.48 174.561 530.834 176.505 529.542 178.033C528.251 179.561 526.452 180.325 524.146 180.325C521.841 180.325 520.042 179.561 518.751 178.033C517.459 176.505 516.813 174.561 516.813 172.2C516.813 168.825 518.042 166.47 520.501 165.137V164.929C518.32 163.623 517.23 161.387 517.23 158.22C517.23 155.943 517.834 154.061 519.042 152.575ZM525.646 168.783C525.313 168.005 524.813 167.616 524.146 167.616C523.48 167.616 522.98 168.005 522.646 168.783C522.313 169.561 522.146 170.561 522.146 171.783C522.146 172.838 522.313 173.693 522.646 174.345C522.98 174.998 523.48 175.325 524.146 175.325C524.813 175.325 525.313 174.998 525.646 174.345C525.98 173.693 526.146 172.838 526.146 171.783C526.146 170.561 525.98 169.561 525.646 168.783Z" fill="#FCC945"/>
<path d="M831.469 161.72C832.052 161.234 832.747 160.991 833.552 160.991C835.094 160.991 836.282 161.554 837.115 162.679C838.434 164.443 839.094 167.102 839.094 170.658C839.094 173.116 838.872 174.95 838.427 176.158C837.969 177.422 837.205 178.436 836.136 179.2C835.08 179.95 833.802 180.325 832.302 180.325C830.622 180.325 829.233 179.956 828.136 179.22C827.039 178.47 826.247 177.45 825.761 176.158C825.483 175.422 825.302 174.658 825.219 173.866C825.136 173.075 825.094 172.012 825.094 170.679C825.094 166.443 825.393 163.151 825.99 160.804C826.893 157.29 828.962 153.658 832.198 149.908L836.261 153.262C834.983 154.748 833.934 156.13 833.115 157.408C832.295 158.686 831.677 160.095 831.261 161.637L831.469 161.72ZM833.073 174.7C833.532 173.991 833.761 172.644 833.761 170.658C833.761 168.672 833.532 167.325 833.073 166.616C832.809 166.2 832.483 165.991 832.094 165.991C831.705 165.991 831.379 166.2 831.115 166.616C830.657 167.325 830.427 168.672 830.427 170.658C830.427 172.644 830.657 173.991 831.115 174.7C831.379 175.116 831.705 175.325 832.094 175.325C832.483 175.325 832.809 175.116 833.073 174.7ZM854.292 156.262C854.028 155.637 853.632 155.325 853.104 155.325C852.577 155.325 852.181 155.637 851.917 156.262C851.653 156.873 851.521 157.665 851.521 158.637C851.521 159.776 851.653 160.727 851.917 161.491C852.181 162.241 852.577 162.616 853.104 162.616C853.632 162.616 854.028 162.241 854.292 161.491C854.556 160.727 854.688 159.776 854.688 158.637C854.688 157.665 854.556 156.873 854.292 156.262ZM848 152.575C849.209 151.075 850.91 150.325 853.104 150.325C855.299 150.325 857 151.075 858.209 152.575C859.417 154.061 860.021 155.943 860.021 158.22C860.021 161.387 858.931 163.623 856.75 164.929V165.137C859.209 166.47 860.438 168.825 860.438 172.2C860.438 174.561 859.792 176.505 858.5 178.033C857.209 179.561 855.41 180.325 853.104 180.325C850.799 180.325 849 179.561 847.709 178.033C846.417 176.505 845.771 174.561 845.771 172.2C845.771 168.825 847 166.47 849.459 165.137V164.929C847.278 163.623 846.188 161.387 846.188 158.22C846.188 155.943 846.792 154.061 848 152.575ZM854.604 168.783C854.271 168.005 853.771 167.616 853.104 167.616C852.438 167.616 851.938 168.005 851.604 168.783C851.271 169.561 851.104 170.561 851.104 171.783C851.104 172.838 851.271 173.693 851.604 174.345C851.938 174.998 852.438 175.325 853.104 175.325C853.771 175.325 854.271 174.998 854.604 174.345C854.938 173.693 855.104 172.838 855.104 171.783C855.104 170.561 854.938 169.561 854.604 168.783Z" fill="#FCC945"/>
<path d="M827.994 636.626C828.578 636.14 829.272 635.896 830.078 635.896C831.619 635.896 832.807 636.459 833.64 637.584C834.96 639.348 835.619 642.008 835.619 645.563C835.619 648.021 835.397 649.855 834.953 651.063C834.494 652.327 833.731 653.341 832.661 654.105C831.606 654.855 830.328 655.23 828.828 655.23C827.147 655.23 825.758 654.862 824.661 654.126C823.564 653.376 822.772 652.355 822.286 651.063C822.008 650.327 821.828 649.563 821.744 648.771C821.661 647.98 821.619 646.917 821.619 645.584C821.619 641.348 821.918 638.056 822.515 635.709C823.418 632.195 825.488 628.563 828.724 624.813L832.786 628.167C831.508 629.653 830.46 631.035 829.64 632.313C828.821 633.591 828.203 635.001 827.786 636.542L827.994 636.626ZM829.599 649.605C830.057 648.896 830.286 647.549 830.286 645.563C830.286 643.577 830.057 642.23 829.599 641.521C829.335 641.105 829.008 640.896 828.619 640.896C828.231 640.896 827.904 641.105 827.64 641.521C827.182 642.23 826.953 643.577 826.953 645.563C826.953 647.549 827.182 648.896 827.64 649.605C827.904 650.021 828.231 650.23 828.619 650.23C829.008 650.23 829.335 650.021 829.599 649.605ZM843.713 629.709C844.852 626.695 846.824 625.188 849.63 625.188C852.435 625.188 854.408 626.695 855.547 629.709C855.797 630.39 855.984 631.327 856.109 632.521C856.234 633.716 856.303 634.806 856.317 635.792C856.345 636.765 856.359 638.244 856.359 640.23C856.359 642.216 856.345 643.702 856.317 644.688C856.303 645.66 856.234 646.744 856.109 647.938C855.984 649.133 855.797 650.07 855.547 650.751C854.408 653.765 852.435 655.271 849.63 655.271C846.824 655.271 844.852 653.765 843.713 650.751C843.463 650.07 843.276 649.133 843.151 647.938C843.026 646.744 842.949 645.66 842.922 644.688C842.908 643.702 842.901 642.216 842.901 640.23C842.901 638.244 842.908 636.765 842.922 635.792C842.949 634.806 843.026 633.716 843.151 632.521C843.276 631.327 843.463 630.39 843.713 629.709ZM849.63 630.271C849.033 630.271 848.609 631.146 848.359 632.896C848.22 633.827 848.151 636.271 848.151 640.23V642.417L850.942 633.23C850.845 632.41 850.685 631.716 850.463 631.146C850.241 630.563 849.963 630.271 849.63 630.271ZM848.317 647.23C848.415 648.049 848.574 648.751 848.797 649.334C849.019 649.903 849.297 650.188 849.63 650.188C850.227 650.188 850.651 649.313 850.901 647.563C851.04 646.633 851.109 644.188 851.109 640.23V638.042L848.317 647.23Z" fill="#FCC945"/>
<path d="M374.34 69.5778H390.34V74.5778H379.673V81.8278H387.673V86.8278H379.673V98.9111H374.34V69.5778ZM401.767 85.5778H405.6L406.996 92.432H407.204C407.677 86.2931 407.913 78.675 407.913 69.5778H413.204C413.204 79.3 412.656 89.0778 411.559 98.9111H405.642L403.788 90.8278H403.579L401.725 98.9111H395.809C394.711 89.0778 394.163 79.3 394.163 69.5778H399.454C399.454 78.675 399.691 86.2931 400.163 92.432H400.371L401.767 85.5778ZM422.902 69.5778C427.375 69.5778 430.632 71.2236 432.673 74.5153C433.465 75.7653 434 77.182 434.277 78.7653C434.555 80.3486 434.694 82.175 434.694 84.2445C434.694 86.3139 434.555 88.1403 434.277 89.7236C434 91.307 433.465 92.7236 432.673 93.9736C430.632 97.2653 427.375 98.9111 422.902 98.9111H415.694V69.5778H422.902ZM428.173 91.2445C428.965 89.9111 429.361 87.5778 429.361 84.2445C429.361 80.9111 428.965 78.5778 428.173 77.2445C427.132 75.4667 425.52 74.5778 423.34 74.5778H421.027V93.9111H423.34C425.52 93.9111 427.132 93.0222 428.173 91.2445Z" fill="white"/>
<path d="M694.628 88.2445C693.823 83.0084 692.85 78.2931 691.712 74.0986H691.503C690.378 78.2514 689.406 82.9667 688.587 88.2445H694.628ZM687.482 69.5778H695.732C698.121 77.05 700.017 86.8278 701.42 98.9111H696.024C695.857 96.9945 695.628 95.1056 695.337 93.2445H687.878C687.587 95.1056 687.357 96.9945 687.191 98.9111H681.795C683.198 86.8278 685.094 77.05 687.482 69.5778ZM704.951 69.5778H720.951V74.5778H710.285V81.8278H718.285V86.8278H710.285V98.9111H704.951V69.5778ZM743.628 69.5778V74.5778H736.962V98.9111H731.628V74.5778H724.962V69.5778H743.628Z" fill="white"/>
<path d="M647.136 539.982C646.331 534.746 645.358 530.03 644.219 525.836H644.011C642.886 529.989 641.914 534.704 641.094 539.982H647.136ZM639.99 521.315H648.24C650.629 528.787 652.525 538.565 653.928 550.648H648.532C648.365 548.732 648.136 546.843 647.844 544.982H640.386C640.094 546.843 639.865 548.732 639.699 550.648H634.303C635.706 538.565 637.601 528.787 639.99 521.315ZM657.459 521.315H673.459V526.315H662.792V533.565H670.792V538.565H662.792V550.648H657.459V521.315ZM696.136 521.315V526.315H689.469V550.648H684.136V526.315H677.469V521.315H696.136Z" fill="white"/>
<path d="M127.096 252.714C163.765 219.958 214.822 214.531 255.668 252.714" stroke="white" stroke-width="4"/>
<path d="M438.68 252.714C475.348 219.958 526.405 214.531 567.251 252.714" stroke="white" stroke-width="4"/>
<path d="M783.854 252.714C820.522 219.958 871.579 214.531 912.425 252.714" stroke="white" stroke-width="4"/>
<path d="M143.892 290.359L190.224 330.32V372.019H851.035M143.892 290.359L138.1 300.783L128.834 281.671H149.683L143.892 290.359ZM1117.44 372.019H1096.02M851.035 372.019V330.32L795.436 290.937M851.035 372.019H1021.31M451.421 290.937L509.336 330.32V372.019M451.421 290.937L445.05 300.204L438.68 281.671L457.792 282.25L451.421 290.937ZM795.436 290.937L787.908 300.204L783.853 281.671L802.965 282.25L795.436 290.937Z" stroke="#FCC945" stroke-width="4"/>
<path d="M1117.44 904.839H1095.44M796.595 823.758L852.193 863.141V904.839H1023.62M796.595 823.758L789.066 833.024L785.012 814.491L804.124 815.07L796.595 823.758Z" stroke="#FCC945" stroke-width="4"/>
<path d="M1094.59 371.441C1094.59 391.127 1078.64 407.086 1058.95 407.086C1039.26 407.086 1023.3 391.127 1023.3 371.441C1023.3 351.755 1039.26 335.796 1058.95 335.796C1078.64 335.796 1094.59 351.755 1094.59 371.441Z" fill="#41464A" stroke="#FCC945" stroke-width="4"/>
<path d="M1095.75 904.258C1095.75 923.944 1079.79 939.903 1060.11 939.903C1040.42 939.903 1024.46 923.944 1024.46 904.258C1024.46 884.572 1040.42 868.613 1060.11 868.613C1079.79 868.613 1095.75 884.572 1095.75 904.258Z" fill="#41464A" stroke="#FCC945" stroke-width="4"/>
<path d="M877.993 707.348C877.993 727.034 862.034 742.993 842.348 742.993C822.662 742.993 806.703 727.034 806.703 707.348C806.703 687.662 822.662 671.703 842.348 671.703C862.034 671.703 877.993 687.662 877.993 707.348Z" fill="#41464A" stroke="#FCC945" stroke-width="4"/>
<path d="M1003.88 517.919C1023.56 518.061 1039.41 534.134 1039.27 553.82C1039.12 573.505 1023.05 589.348 1003.37 589.207C983.68 589.065 967.836 572.992 967.978 553.306C968.12 533.621 984.193 517.777 1003.88 517.919Z" fill="#41464A" stroke="#FCC945" stroke-width="4"/>
<path d="M1002.77 517.719V482.058H600.842V645.378H787.907M1002.77 589.78V645.378H890.996M1038.1 553.872H1059.53" stroke="#FCC945" stroke-width="4"/>
<path d="M842.348 673.178V662.174L842.927 755.417" stroke="#FCC945" stroke-width="4"/>
<path d="M782.695 783.216C819.364 750.46 870.421 745.033 911.267 783.216" stroke="white" stroke-width="4"/>
<rect x="155" y="759" width="170" height="65" fill="#41464A"/>
<path d="M141 553H137V531H141L143.922 537.844H144.094L147 531H151V553H147V539H146.844L144.859 543H143.141L141.156 538.938H141V553ZM162.273 545C161.669 541.073 160.94 537.536 160.086 534.391H159.93C159.086 537.505 158.357 541.042 157.742 545H162.273ZM156.914 531H163.102C164.893 536.604 166.315 543.938 167.367 553H163.32C163.195 551.562 163.023 550.146 162.805 548.75H157.211C156.992 550.146 156.82 551.562 156.695 553H152.648C153.701 543.938 155.122 536.604 156.914 531ZM174.016 534.75V541.125H174.984C175.88 541.125 176.531 541.083 176.938 541C177.646 540.854 178.208 540.505 178.625 539.953C179.052 539.401 179.266 538.729 179.266 537.937C179.266 537.146 179.052 536.474 178.625 535.922C178.208 535.37 177.646 535.021 176.938 534.875C176.531 534.792 175.88 534.75 174.984 534.75H174.016ZM170.016 531H174.953C176.495 531 177.594 531.078 178.25 531.234C179.729 531.589 180.932 532.365 181.859 533.562C182.797 534.75 183.266 536.208 183.266 537.937C183.266 539.667 182.797 541.13 181.859 542.328C180.932 543.516 179.729 544.286 178.25 544.641C177.594 544.797 176.495 544.875 174.953 544.875H174.016V553H170.016V531ZM206.031 553H202.031V531H206.016L209.875 543.469H210.031V531H214.031V553H210.031L206.188 540.531H206.031V553ZM221.023 537.969C220.867 538.823 220.789 540.167 220.789 542C220.789 543.833 220.867 545.177 221.023 546.031C221.211 547.042 221.555 547.875 222.055 548.531C222.565 549.177 223.227 549.5 224.039 549.5C224.852 549.5 225.508 549.177 226.008 548.531C226.518 547.875 226.867 547.042 227.055 546.031C227.211 545.167 227.289 543.823 227.289 542C227.289 540.167 227.211 538.823 227.055 537.969C226.867 536.958 226.518 536.13 226.008 535.484C225.508 534.828 224.852 534.5 224.039 534.5C223.227 534.5 222.565 534.828 222.055 535.484C221.555 536.13 221.211 536.958 221.023 537.969ZM217.227 547.453C216.935 546.297 216.789 544.479 216.789 542C216.789 539.521 216.935 537.703 217.227 536.547C217.643 534.859 218.43 533.474 219.586 532.391C220.742 531.297 222.227 530.75 224.039 530.75C225.852 530.75 227.336 531.297 228.492 532.391C229.648 533.474 230.435 534.859 230.852 536.547C231.143 537.703 231.289 539.521 231.289 542C231.289 544.479 231.143 546.297 230.852 547.453C230.435 549.141 229.648 550.531 228.492 551.625C227.336 552.708 225.852 553.25 224.039 553.25C222.227 553.25 220.742 552.708 219.586 551.625C218.43 550.531 217.643 549.141 217.227 547.453ZM247.047 531V534.75H242.047V553H238.047V534.75H233.047V531H247.047ZM274.328 545C273.724 541.073 272.995 537.536 272.141 534.391H271.984C271.141 537.505 270.411 541.042 269.797 545H274.328ZM268.969 531H275.156C276.948 536.604 278.37 543.938 279.422 553H275.375C275.25 551.562 275.078 550.146 274.859 548.75H269.266C269.047 550.146 268.875 551.562 268.75 553H264.703C265.755 543.938 267.177 536.604 268.969 531ZM288.148 549.609C289.451 544.818 290.529 538.615 291.383 531H295.43C294.378 540.062 292.956 547.396 291.164 553H284.977C283.185 547.396 281.763 540.062 280.711 531H284.758C285.622 538.656 286.701 544.859 287.992 549.609H288.148ZM306.344 545C305.74 541.073 305.01 537.536 304.156 534.391H304C303.156 537.505 302.427 541.042 301.813 545H306.344ZM300.984 531H307.172C308.964 536.604 310.385 543.938 311.438 553H307.391C307.266 551.562 307.094 550.146 306.875 548.75H301.281C301.063 550.146 300.891 551.562 300.766 553H296.719C297.771 543.938 299.193 536.604 300.984 531ZM326.086 531V534.75H322.086V549.25H326.086V553H314.086V549.25H318.086V534.75H314.086V531H326.086ZM330.094 553V531H334.094V549.25H343.094V553H330.094Z" fill="white"/>
<path d="M171.083 779.812C172.222 776.799 174.194 775.292 177 775.292C179.806 775.292 181.778 776.799 182.917 779.812C183.167 780.493 183.354 781.431 183.479 782.625C183.604 783.819 183.674 784.91 183.688 785.896C183.715 786.868 183.729 788.347 183.729 790.333C183.729 792.319 183.715 793.806 183.688 794.792C183.674 795.764 183.604 796.847 183.479 798.042C183.354 799.236 183.167 800.174 182.917 800.854C181.778 803.868 179.806 805.375 177 805.375C174.194 805.375 172.222 803.868 171.083 800.854C170.833 800.174 170.646 799.236 170.521 798.042C170.396 796.847 170.319 795.764 170.292 794.792C170.278 793.806 170.271 792.319 170.271 790.333C170.271 788.347 170.278 786.868 170.292 785.896C170.319 784.91 170.396 783.819 170.521 782.625C170.646 781.431 170.833 780.493 171.083 779.812ZM177 780.375C176.403 780.375 175.979 781.25 175.729 783C175.59 783.931 175.521 786.375 175.521 790.333V792.521L178.312 783.333C178.215 782.514 178.056 781.819 177.833 781.25C177.611 780.667 177.333 780.375 177 780.375ZM175.688 797.333C175.785 798.153 175.944 798.854 176.167 799.438C176.389 800.007 176.667 800.292 177 800.292C177.597 800.292 178.021 799.417 178.271 797.667C178.41 796.736 178.479 794.292 178.479 790.333V788.146L175.688 797.333ZM197.51 775.667H202.344V805H197.01V781.958H196.802L194.323 783.771L191.677 779.917L197.51 775.667ZM218.354 775.667H223.688V778.667C223.688 779.403 223.667 779.993 223.625 780.438C223.597 780.868 223.451 781.437 223.188 782.146C222.938 782.854 222.562 783.5 222.062 784.083C221.382 784.875 220.493 785.507 219.396 785.979C218.299 786.437 217.062 786.667 215.688 786.667V781.667C216.729 781.667 217.465 781.326 217.896 780.646C218.201 780.16 218.354 779.5 218.354 778.667V775.667ZM256.458 779.812C257.597 776.799 259.569 775.292 262.375 775.292C265.181 775.292 267.153 776.799 268.292 779.812C268.542 780.493 268.729 781.431 268.854 782.625C268.979 783.819 269.049 784.91 269.062 785.896C269.09 786.868 269.104 788.347 269.104 790.333C269.104 792.319 269.09 793.806 269.062 794.792C269.049 795.764 268.979 796.847 268.854 798.042C268.729 799.236 268.542 800.174 268.292 800.854C267.153 803.868 265.181 805.375 262.375 805.375C259.569 805.375 257.597 803.868 256.458 800.854C256.208 800.174 256.021 799.236 255.896 798.042C255.771 796.847 255.694 795.764 255.667 794.792C255.653 793.806 255.646 792.319 255.646 790.333C255.646 788.347 255.653 786.868 255.667 785.896C255.694 784.91 255.771 783.819 255.896 782.625C256.021 781.431 256.208 780.493 256.458 779.812ZM262.375 780.375C261.778 780.375 261.354 781.25 261.104 783C260.965 783.931 260.896 786.375 260.896 790.333V792.521L263.688 783.333C263.59 782.514 263.431 781.819 263.208 781.25C262.986 780.667 262.708 780.375 262.375 780.375ZM261.062 797.333C261.16 798.153 261.319 798.854 261.542 799.438C261.764 800.007 262.042 800.292 262.375 800.292C262.972 800.292 263.396 799.417 263.646 797.667C263.785 796.736 263.854 794.292 263.854 790.333V788.146L261.062 797.333ZM283.427 786.729C284.01 786.243 284.705 786 285.51 786C287.052 786 288.24 786.562 289.073 787.688C290.392 789.451 291.052 792.111 291.052 795.667C291.052 798.125 290.83 799.958 290.385 801.167C289.927 802.431 289.163 803.444 288.094 804.208C287.038 804.958 285.76 805.333 284.26 805.333C282.58 805.333 281.191 804.965 280.094 804.229C278.997 803.479 278.205 802.458 277.719 801.167C277.441 800.431 277.26 799.667 277.177 798.875C277.094 798.083 277.052 797.021 277.052 795.688C277.052 791.451 277.351 788.16 277.948 785.812C278.851 782.299 280.92 778.667 284.156 774.917L288.219 778.271C286.941 779.757 285.892 781.139 285.073 782.417C284.253 783.694 283.635 785.104 283.219 786.646L283.427 786.729ZM285.031 799.708C285.49 799 285.719 797.653 285.719 795.667C285.719 793.681 285.49 792.333 285.031 791.625C284.767 791.208 284.441 791 284.052 791C283.663 791 283.337 791.208 283.073 791.625C282.615 792.333 282.385 793.681 282.385 795.667C282.385 797.653 282.615 799 283.073 799.708C283.337 800.125 283.663 800.333 284.052 800.333C284.441 800.333 284.767 800.125 285.031 799.708ZM298.396 775.667H303.729V778.667C303.729 779.403 303.708 779.993 303.667 780.438C303.639 780.868 303.493 781.437 303.229 782.146C302.979 782.854 302.604 783.5 302.104 784.083C301.424 784.875 300.535 785.507 299.438 785.979C298.34 786.437 297.104 786.667 295.729 786.667V781.667C296.757 781.667 297.493 781.326 297.938 780.646C298.243 780.16 298.396 779.5 298.396 778.667V775.667ZM309.062 775.667H314.396V778.667C314.396 779.403 314.375 779.993 314.333 780.438C314.306 780.868 314.16 781.437 313.896 782.146C313.646 782.854 313.271 783.5 312.771 784.083C312.09 784.875 311.201 785.507 310.104 785.979C309.007 786.437 307.771 786.667 306.396 786.667V781.667C307.438 781.667 308.174 781.326 308.604 780.646C308.91 780.16 309.062 779.5 309.062 778.667V775.667Z" fill="#FCC945"/>
<path d="M454 715C454 595.706 356.846 499 237 499C117.154 499 20 595.706 20 715" stroke="white" stroke-width="5" stroke-dasharray="15 15"/>
<path d="M382 718C382 636.814 317.753 571 238.5 571C159.247 571 95 636.814 95 718" stroke="white" stroke-width="5" stroke-dasharray="15 15"/>
<path d="M310 732C310 694.997 278.436 665 239.5 665C200.564 665 169 694.997 169 732" stroke="white" stroke-width="5" stroke-dasharray="15 15"/>
<path d="M235.563 588.109C236.417 585.849 237.896 584.719 240 584.719C242.104 584.719 243.583 585.849 244.438 588.109C244.625 588.62 244.766 589.323 244.859 590.219C244.953 591.115 245.005 591.932 245.016 592.672C245.036 593.401 245.047 594.51 245.047 596C245.047 597.49 245.036 598.604 245.016 599.344C245.005 600.073 244.953 600.885 244.859 601.781C244.766 602.677 244.625 603.38 244.438 603.891C243.583 606.151 242.104 607.281 240 607.281C237.896 607.281 236.417 606.151 235.563 603.891C235.375 603.38 235.234 602.677 235.141 601.781C235.047 600.885 234.99 600.073 234.969 599.344C234.958 598.604 234.953 597.49 234.953 596C234.953 594.51 234.958 593.401 234.969 592.672C234.99 591.932 235.047 591.115 235.141 590.219C235.234 589.323 235.375 588.62 235.563 588.109ZM240 588.531C239.552 588.531 239.234 589.188 239.047 590.5C238.943 591.198 238.891 593.031 238.891 596V597.641L240.984 590.75C240.911 590.135 240.792 589.615 240.625 589.188C240.458 588.75 240.25 588.531 240 588.531ZM239.016 601.25C239.089 601.865 239.208 602.391 239.375 602.828C239.542 603.255 239.75 603.469 240 603.469C240.448 603.469 240.766 602.812 240.953 601.5C241.057 600.802 241.109 598.969 241.109 596V594.359L239.016 601.25Z" fill="white"/>
<path d="M41.2188 649H52.4688V652.281L47.5625 671H43.5156L48.3281 652.906V652.75H41.2188V649ZM60.0078 665.375H66.0078V671H60.0078V665.375ZM74.0156 666.984C75.7135 667.328 77.1927 667.5 78.4531 667.5C78.901 667.5 79.276 667.411 79.5781 667.234C79.8802 667.057 80.1042 666.797 80.25 666.453C80.3958 666.109 80.4948 665.745 80.5469 665.359C80.6094 664.974 80.6406 664.516 80.6406 663.984C80.6406 661.661 80.026 660.5 78.7969 660.5C78.1302 660.5 77.6146 660.703 77.25 661.109L74.0156 660.266V649H84.0156V652.75H78.0156V657.625H78.1719C78.8073 657.219 79.4948 657.016 80.2344 657.016C83.0885 657.016 84.5156 659.349 84.5156 664.016C84.5156 666.474 84.0365 668.297 83.0781 669.484C82.1302 670.661 80.6927 671.25 78.7656 671.25C77.4948 671.25 75.9115 671.089 74.0156 670.766V666.984Z" fill="white"/>
<circle cx="239.5" cy="730.5" r="12.5" stroke="white" stroke-width="4"/>
</svg>
