<svg width="1440" height="940" viewBox="0 0 1440 940" fill="none" xmlns="http://www.w3.org/2000/svg">
<path d="M575 508.911H122V937.911H575V508.911Z" stroke="white" stroke-width="4"/>
<path d="M348 590.911V906.911" stroke="#FCC945" stroke-width="4"/>
<path d="M154 682.911C156.696 679.71 159.77 676.148 163.236 672.336M540 682.911C537.094 679.71 533.88 676.148 530.33 672.336M163.236 672.336L177.114 682.911M163.236 672.336C171.394 663.366 181.729 653.009 194.449 642.71M530.33 672.336L516.886 682.911M530.33 672.336C523.362 664.854 515.099 656.408 505.329 647.835M304.24 592.585C317.902 590.232 332.527 588.911 348.156 588.911C361.67 588.911 374.367 589.899 386.293 591.687M304.24 592.585L307.707 610.061M304.24 592.585C290.131 595.014 277.049 598.543 264.946 602.854M386.293 591.687L380.515 610.061M386.293 591.687C402.401 594.103 417.104 597.979 430.52 602.854M227.964 619.796L236.054 634.736M227.964 619.796C239.109 613.469 251.415 607.673 264.946 602.854M227.964 619.796C215.332 626.968 204.191 634.822 194.449 642.71M471.814 622.901L463.725 634.736M471.814 622.901C459.629 615.366 445.923 608.451 430.52 602.854M471.814 622.901C484.589 630.799 495.692 639.378 505.329 647.835M264.946 602.854L268.413 610.061M194.449 642.71L200.228 650.011M430.52 602.854L426.743 611.236M505.329 647.835L498.395 654.711" stroke="white" stroke-width="4"/>
<path d="M533 830.911C533 728.186 449.501 644.911 346.5 644.911C243.499 644.911 160 728.186 160 830.911" stroke="white" stroke-width="4"/>
<path d="M471 832.911C471 763.323 415.931 706.911 348 706.911C280.069 706.911 225 763.323 225 832.911" stroke="white" stroke-width="4"/>
<path d="M408 832.911C408 800.879 380.913 774.911 347.5 774.911C314.087 774.911 287 800.879 287 832.911" stroke="white" stroke-width="4"/>
<path d="M170 774.911L523 881.911" stroke="white" stroke-width="4" stroke-dasharray="10 10"/>
<path d="M157.333 544.638C155.554 544.959 153.987 545.119 152.633 545.119C150.784 545.119 149.291 544.677 148.154 543.791C147.025 542.897 146.261 541.691 145.862 540.172C145.593 539.113 145.458 537.637 145.458 535.744C145.458 533.852 145.593 532.376 145.862 531.317C146.27 529.79 147.021 528.583 148.115 527.698C149.208 526.812 150.671 526.369 152.503 526.369C153.891 526.369 155.415 526.461 157.073 526.643V529.768C155.215 529.586 153.705 529.494 152.542 529.494C150.589 529.494 149.417 530.493 149.026 532.489C148.87 533.305 148.792 534.39 148.792 535.744C148.792 537.099 148.87 538.184 149.026 539C149.208 539.937 149.595 540.671 150.185 541.2C150.784 541.73 151.6 541.994 152.633 541.994C152.919 541.994 153.375 541.977 154 541.942V538.036H152.333V534.911H157.333V544.638ZM164.579 545.119C163.156 545.119 161.55 544.981 159.762 544.703V541.526C161.854 541.838 163.46 541.994 164.579 541.994C166.125 541.994 166.897 541.17 166.897 539.521C166.897 539.06 166.784 538.626 166.559 538.218C166.342 537.802 166.033 537.515 165.634 537.359C165.382 537.264 165.035 537.185 164.592 537.125C164.15 537.064 163.694 536.977 163.225 536.864C162.765 536.743 162.322 536.556 161.897 536.304C160.265 535.332 159.449 533.796 159.449 531.695C159.449 530.193 159.927 528.93 160.882 527.906C161.845 526.882 163.078 526.369 164.579 526.369C165.751 526.369 167.357 526.478 169.397 526.695V529.833C167.288 529.607 165.682 529.494 164.579 529.494C164.25 529.494 163.959 529.568 163.707 529.716C163.464 529.863 163.277 530.054 163.147 530.289C163.017 530.523 162.921 530.762 162.861 531.005C162.809 531.248 162.783 531.487 162.783 531.721C162.783 532.745 163.13 533.414 163.824 533.726C164.05 533.83 164.562 533.948 165.361 534.078C166.168 534.199 166.819 534.39 167.314 534.651C168.008 535.007 168.581 535.467 169.033 536.031C169.484 536.595 169.796 537.164 169.97 537.737C170.144 538.31 170.23 538.904 170.23 539.521C170.23 541.205 169.71 542.559 168.668 543.583C167.626 544.607 166.263 545.119 164.579 545.119ZM224.033 526.578V529.703H219.866V544.911H216.533V529.703H212.366V526.578H224.033ZM233.427 538.244C232.924 534.972 232.316 532.025 231.604 529.403H231.474C230.771 531.999 230.163 534.946 229.651 538.244H233.427ZM228.961 526.578H234.117C235.61 531.248 236.795 537.359 237.672 544.911H234.299C234.195 543.713 234.052 542.533 233.87 541.369H229.208C229.026 542.533 228.883 543.713 228.779 544.911H225.406C226.283 537.359 227.468 531.248 228.961 526.578ZM244.618 545.119C243.195 545.119 241.589 544.981 239.801 544.703V541.526C241.893 541.838 243.499 541.994 244.618 541.994C246.164 541.994 246.936 541.17 246.936 539.521C246.936 539.06 246.823 538.626 246.598 538.218C246.381 537.802 246.072 537.515 245.673 537.359C245.421 537.264 245.074 537.185 244.632 537.125C244.189 537.064 243.733 536.977 243.264 536.864C242.804 536.743 242.362 536.556 241.936 536.304C240.304 535.332 239.488 533.796 239.488 531.695C239.488 530.193 239.966 528.93 240.921 527.906C241.884 526.882 243.117 526.369 244.618 526.369C245.79 526.369 247.396 526.478 249.436 526.695V529.833C247.327 529.607 245.721 529.494 244.618 529.494C244.289 529.494 243.998 529.568 243.746 529.716C243.503 529.863 243.316 530.054 243.186 530.289C243.056 530.523 242.961 530.762 242.9 531.005C242.848 531.248 242.822 531.487 242.822 531.721C242.822 532.745 243.169 533.414 243.863 533.726C244.089 533.83 244.601 533.948 245.4 534.078C246.207 534.199 246.858 534.39 247.353 534.651C248.047 535.007 248.62 535.467 249.072 536.031C249.523 536.595 249.836 537.164 250.009 537.737C250.183 538.31 250.27 538.904 250.27 539.521C250.27 541.205 249.749 542.559 248.707 543.583C247.665 544.607 246.303 545.119 244.618 545.119Z" fill="white"/>
<path d="M174.013 544.911H182.346V548.036H174.013V544.911ZM187.353 544.911H195.686V548.036H187.353V544.911ZM200.693 544.911H209.026V548.036H200.693V544.911ZM254.052 544.911H262.385V548.036H254.052V544.911ZM267.392 544.911H275.725V548.036H267.392V544.911ZM280.732 544.911H289.065V548.036H280.732V544.911Z" fill="#FCC945"/>
<path d="M175.646 692.343C176.275 691.41 176.906 690.626 177.539 689.993C178.01 689.521 178.494 689.18 178.99 688.969C179.491 688.753 179.965 688.667 180.412 688.711C180.863 688.751 181.286 688.868 181.679 689.065C182.071 689.261 182.435 689.526 182.769 689.86C183.093 690.184 183.338 690.499 183.505 690.803C183.672 691.098 183.817 691.449 183.94 691.856L186.289 698.684L189 695.974L190.768 697.742L185.906 702.603L184.367 701.064L181.745 693.226C181.568 692.637 181.281 692.144 180.883 691.746C180.363 691.225 179.837 691.23 179.307 691.761C178.713 692.355 178.082 693.138 177.414 694.11L175.646 692.343ZM185.144 682.624L186.853 680.915L197.224 691.286L195.338 693.171L187.192 685.025L187.118 685.098L186.882 686.616L184.584 686.189L185.144 682.624Z" fill="white"/>
<path d="M300.667 615.401C301.771 615.185 302.771 615.078 303.667 615.078C304.333 615.078 304.917 615.178 305.417 615.38C305.924 615.581 306.319 615.856 306.604 616.203C306.896 616.55 307.111 616.932 307.25 617.349C307.389 617.765 307.458 618.21 307.458 618.682C307.458 619.14 307.41 619.536 307.312 619.869C307.222 620.196 307.076 620.547 306.875 620.922L303.708 627.411H307.542V629.911H300.667V627.734L304.354 620.338C304.646 619.797 304.792 619.244 304.792 618.682C304.792 617.946 304.417 617.578 303.667 617.578C302.826 617.578 301.826 617.685 300.667 617.901V615.401ZM311.339 627.234C312.47 627.463 313.457 627.578 314.297 627.578C314.595 627.578 314.845 627.519 315.047 627.401C315.248 627.283 315.398 627.109 315.495 626.88C315.592 626.651 315.658 626.408 315.693 626.151C315.734 625.894 315.755 625.588 315.755 625.234C315.755 623.685 315.345 622.911 314.526 622.911C314.082 622.911 313.738 623.047 313.495 623.317L311.339 622.755V615.244H318.005V617.744H314.005V620.994H314.109C314.533 620.724 314.991 620.588 315.484 620.588C317.387 620.588 318.339 622.144 318.339 625.255C318.339 626.894 318.019 628.109 317.38 628.901C316.748 629.685 315.79 630.078 314.505 630.078C313.658 630.078 312.602 629.97 311.339 629.755V627.234Z" fill="white"/>
<path d="M333.667 696.234C334.799 696.463 335.785 696.578 336.625 696.578C336.924 696.578 337.174 696.519 337.375 696.401C337.576 696.283 337.726 696.109 337.823 695.88C337.92 695.651 337.986 695.408 338.021 695.151C338.063 694.894 338.083 694.588 338.083 694.234C338.083 692.685 337.674 691.911 336.854 691.911C336.41 691.911 336.066 692.047 335.823 692.317L333.667 691.755V684.244H340.333V686.744H336.333V689.994H336.438C336.861 689.724 337.319 689.588 337.812 689.588C339.715 689.588 340.667 691.144 340.667 694.255C340.667 695.894 340.347 697.109 339.708 697.901C339.076 698.685 338.118 699.078 336.833 699.078C335.986 699.078 334.931 698.97 333.667 698.755V696.234Z" fill="white"/>
<path d="M453.565 633.401C454.628 633.766 455.548 634.173 456.324 634.621C456.901 634.954 457.356 635.333 457.689 635.757C458.027 636.185 458.233 636.621 458.306 637.064C458.385 637.51 458.38 637.949 458.292 638.379C458.204 638.809 458.042 639.229 457.806 639.638C457.577 640.035 457.337 640.353 457.086 640.593C456.844 640.831 456.543 641.062 456.181 641.286L450.194 645.323L453.513 647.239L452.263 649.404L446.309 645.967L447.398 644.081L454.289 639.52C454.813 639.197 455.215 638.792 455.496 638.305C455.864 637.667 455.724 637.161 455.074 636.786C454.346 636.366 453.427 635.959 452.315 635.566L453.565 633.401ZM464.885 642.991C464.927 642.655 464.833 642.42 464.605 642.289C464.376 642.157 464.127 642.193 463.856 642.398C463.589 642.596 463.334 642.906 463.091 643.327C462.806 643.82 462.626 644.265 462.549 644.662C462.476 645.053 462.553 645.314 462.782 645.446C463.011 645.578 463.276 645.514 463.577 645.256C463.883 644.991 464.178 644.612 464.462 644.119C464.705 643.698 464.846 643.322 464.885 642.991ZM463.082 639.822C463.98 639.474 464.905 639.575 465.855 640.123C466.805 640.672 467.354 641.422 467.503 642.374C467.654 643.319 467.445 644.285 466.876 645.272C466.084 646.643 465.053 647.339 463.783 647.359L463.731 647.449C464.462 648.641 464.405 649.968 463.562 651.429C462.971 652.451 462.206 653.132 461.264 653.47C460.323 653.809 459.353 653.69 458.355 653.114C457.357 652.537 456.769 651.757 456.591 650.773C456.414 649.788 456.62 648.785 457.211 647.762C458.055 646.301 459.175 645.589 460.573 645.626L460.625 645.536C460.007 644.425 460.094 643.184 460.886 641.813C461.455 640.827 462.188 640.163 463.082 639.822ZM461.89 648.491C461.94 648.071 461.821 647.778 461.532 647.611C461.243 647.444 460.93 647.488 460.591 647.741C460.252 647.995 459.93 648.386 459.624 648.915C459.36 649.372 459.219 649.784 459.2 650.15C459.181 650.516 459.316 650.782 459.605 650.949C459.894 651.115 460.192 651.099 460.499 650.9C460.807 650.7 461.092 650.372 461.356 649.915C461.662 649.386 461.84 648.911 461.89 648.491Z" fill="white"/>
<path d="M147.333 574.911H155.667V578.036H147.333V574.911ZM160.673 574.911H169.007V578.036H160.673V574.911ZM174.013 574.911H182.346V578.036H174.013V574.911ZM200.693 574.911H209.026V578.036H200.693V574.911ZM214.033 574.911H222.366V578.036H214.033V574.911ZM227.372 574.911H235.706V578.036H227.372V574.911Z" fill="#FCC945"/>
<path d="M188.694 577.476L185.608 576.356L194.345 554.013L197.431 555.132L188.694 577.476Z" fill="white"/>
<circle cx="362" cy="840.911" r="35" stroke="#FCC945" stroke-width="4" stroke-dasharray="10 10"/>
<path d="M753 573.075L891.069 638.069" stroke="#FCC945" stroke-width="5"/>
<path d="M1077.14 573.196L1215.28 638.423" stroke="#FCC945" stroke-width="5"/>
<path d="M992 636.165C992 622.661 989.901 609.648 986.011 597.436M865 508.911C846.14 508.911 828.241 513.03 812.149 520.42C810.822 521.029 809.507 521.661 808.205 522.314M865 508.911V539.737M865 508.911C885.415 508.911 904.705 513.738 921.795 522.314M812.149 751.911C768.393 731.819 738 687.549 738 636.165C738 605.935 748.52 578.166 766.093 556.335M766.093 556.335L788.484 573.724M766.093 556.335C777.482 542.185 791.834 530.529 808.205 522.314M808.205 522.314L823.193 546.85M921.795 522.314L907.596 546.85M921.795 522.314C938.165 530.529 952.518 542.185 963.907 556.335M963.907 556.335L943.882 573.724M963.907 556.335C973.63 568.414 981.194 582.31 986.011 597.436M986.011 597.436L962.025 608.501" stroke="white" stroke-width="5"/>
<path d="M1317 636.165C1317 622.661 1314.89 609.648 1310.99 597.436M1189.5 508.911C1170.57 508.911 1152.6 513.03 1136.44 520.42C1135.11 521.029 1133.79 521.661 1132.48 522.314M1189.5 508.911V539.737M1189.5 508.911C1210 508.911 1229.36 513.738 1246.52 522.314M1136.44 751.911C1092.51 731.819 1062 687.549 1062 636.165C1062 605.935 1072.56 578.166 1090.2 556.335M1090.2 556.335L1112.68 573.724M1090.2 556.335C1101.64 542.185 1116.05 530.529 1132.48 522.314M1132.48 522.314L1147.53 546.85M1246.52 522.314L1232.26 546.85M1246.52 522.314C1262.95 530.529 1277.36 542.185 1288.8 556.335M1288.8 556.335L1268.69 573.724M1288.8 556.335C1298.56 568.414 1306.15 582.31 1310.99 597.436M1310.99 597.436L1286.91 608.501" stroke="white" stroke-width="5"/>
<path d="M794 584.896C795.698 585.239 797.177 585.411 798.438 585.411C798.885 585.411 799.26 585.323 799.562 585.146C799.865 584.968 800.089 584.708 800.234 584.364C800.38 584.021 800.479 583.656 800.531 583.271C800.594 582.885 800.625 582.427 800.625 581.896C800.625 579.573 800.01 578.411 798.781 578.411C798.115 578.411 797.599 578.614 797.234 579.021L794 578.177V566.911H804V570.661H798V575.536H798.156C798.792 575.13 799.479 574.927 800.219 574.927C803.073 574.927 804.5 577.26 804.5 581.927C804.5 584.385 804.021 586.208 803.063 587.396C802.115 588.573 800.677 589.161 798.75 589.161C797.479 589.161 795.896 589 794 588.677V584.896Z" fill="white"/>
<path d="M1119 584.896C1120.7 585.239 1122.18 585.411 1123.44 585.411C1123.89 585.411 1124.26 585.323 1124.56 585.146C1124.86 584.968 1125.09 584.708 1125.23 584.364C1125.38 584.021 1125.48 583.656 1125.53 583.271C1125.59 582.885 1125.63 582.427 1125.63 581.896C1125.63 579.573 1125.01 578.411 1123.78 578.411C1123.11 578.411 1122.6 578.614 1122.23 579.021L1119 578.177V566.911H1129V570.661H1123V575.536H1123.16C1123.79 575.13 1124.48 574.927 1125.22 574.927C1128.07 574.927 1129.5 577.26 1129.5 581.927C1129.5 584.385 1129.02 586.208 1128.06 587.396C1127.11 588.573 1125.68 589.161 1123.75 589.161C1122.48 589.161 1120.9 589 1119 588.677V584.896Z" fill="white"/>
<path d="M926.375 597.911H930V619.911H926V602.63H925.844L923.984 603.989L922 601.099L926.375 597.911ZM938.57 601.021C939.424 598.76 940.904 597.63 943.008 597.63C945.112 597.63 946.591 598.76 947.445 601.021C947.633 601.531 947.773 602.234 947.867 603.13C947.961 604.026 948.013 604.843 948.023 605.583C948.044 606.312 948.055 607.422 948.055 608.911C948.055 610.401 948.044 611.515 948.023 612.255C948.013 612.984 947.961 613.797 947.867 614.692C947.773 615.588 947.633 616.291 947.445 616.802C946.591 619.062 945.112 620.192 943.008 620.192C940.904 620.192 939.424 619.062 938.57 616.802C938.383 616.291 938.242 615.588 938.148 614.692C938.055 613.797 937.997 612.984 937.977 612.255C937.966 611.515 937.961 610.401 937.961 608.911C937.961 607.422 937.966 606.312 937.977 605.583C937.997 604.843 938.055 604.026 938.148 603.13C938.242 602.234 938.383 601.531 938.57 601.021ZM943.008 601.442C942.56 601.442 942.242 602.099 942.055 603.411C941.951 604.109 941.898 605.942 941.898 608.911V610.552L943.992 603.661C943.919 603.047 943.799 602.526 943.633 602.099C943.466 601.661 943.258 601.442 943.008 601.442ZM942.023 614.161C942.096 614.776 942.216 615.302 942.383 615.739C942.549 616.166 942.758 616.38 943.008 616.38C943.456 616.38 943.773 615.724 943.961 614.411C944.065 613.713 944.117 611.88 944.117 608.911V607.271L942.023 614.161Z" fill="white"/>
<rect x="771.5" y="638.411" width="157" height="73" fill="#41464A" stroke="white" stroke-width="5"/>
<rect x="1096.5" y="638.411" width="156" height="73" fill="#41464A" stroke="white" stroke-width="5"/>
<path d="M1132 657.263C1134.48 656.778 1136.73 656.536 1138.75 656.536C1140.25 656.536 1141.56 656.763 1142.69 657.216C1143.83 657.669 1144.72 658.286 1145.36 659.067C1146.02 659.849 1146.5 660.708 1146.81 661.646C1147.13 662.583 1147.28 663.583 1147.28 664.646C1147.28 665.677 1147.17 666.567 1146.95 667.317C1146.75 668.052 1146.42 668.841 1145.97 669.685L1138.84 684.286H1147.47V689.911H1132V685.013L1140.3 668.372C1140.95 667.153 1141.28 665.911 1141.28 664.646C1141.28 662.989 1140.44 662.161 1138.75 662.161C1136.86 662.161 1134.61 662.403 1132 662.888V657.263ZM1163.18 669.356C1163.84 668.81 1164.62 668.536 1165.53 668.536C1167.26 668.536 1168.6 669.169 1169.54 670.435C1171.02 672.419 1171.76 675.411 1171.76 679.411C1171.76 682.177 1171.51 684.239 1171.01 685.599C1170.5 687.021 1169.64 688.161 1168.43 689.021C1167.25 689.864 1165.81 690.286 1164.12 690.286C1162.23 690.286 1160.67 689.872 1159.43 689.044C1158.2 688.2 1157.31 687.052 1156.76 685.599C1156.45 684.771 1156.25 683.911 1156.15 683.021C1156.06 682.13 1156.01 680.935 1156.01 679.435C1156.01 674.669 1156.35 670.966 1157.02 668.325C1158.04 664.372 1160.36 660.286 1164 656.067L1168.57 659.841C1167.14 661.513 1165.96 663.067 1165.04 664.505C1164.11 665.942 1163.42 667.528 1162.95 669.263L1163.18 669.356ZM1164.99 683.958C1165.5 683.161 1165.76 681.646 1165.76 679.411C1165.76 677.177 1165.5 675.661 1164.99 674.864C1164.69 674.396 1164.32 674.161 1163.89 674.161C1163.45 674.161 1163.08 674.396 1162.79 674.864C1162.27 675.661 1162.01 677.177 1162.01 679.411C1162.01 681.646 1162.27 683.161 1162.79 683.958C1163.08 684.427 1163.45 684.661 1163.89 684.661C1164.32 684.661 1164.69 684.427 1164.99 683.958ZM1183.02 681.474H1192.02V689.911H1183.02V681.474ZM1216.7 689.911H1211.37V684.244H1202.04V679.661L1212.35 659.724L1216.89 662.057L1208.12 679.036V679.244H1211.37V676.328H1216.7V679.244H1219.37V684.244H1216.7V689.911Z" fill="#FCC945"/>
<path d="M808 657.263C810.484 656.778 812.734 656.536 814.75 656.536C816.25 656.536 817.563 656.763 818.688 657.216C819.828 657.669 820.719 658.286 821.359 659.067C822.016 659.849 822.5 660.708 822.812 661.646C823.125 662.583 823.281 663.583 823.281 664.646C823.281 665.677 823.172 666.567 822.953 667.317C822.75 668.052 822.422 668.841 821.969 669.685L814.844 684.286H823.469V689.911H808V685.013L816.297 668.372C816.953 667.153 817.281 665.911 817.281 664.646C817.281 662.989 816.438 662.161 814.75 662.161C812.859 662.161 810.609 662.403 808 662.888V657.263ZM839.184 669.356C839.84 668.81 840.621 668.536 841.527 668.536C843.262 668.536 844.598 669.169 845.535 670.435C847.02 672.419 847.762 675.411 847.762 679.411C847.762 682.177 847.512 684.239 847.012 685.599C846.496 687.021 845.637 688.161 844.434 689.021C843.246 689.864 841.809 690.286 840.121 690.286C838.23 690.286 836.668 689.872 835.434 689.044C834.199 688.2 833.309 687.052 832.762 685.599C832.449 684.771 832.246 683.911 832.152 683.021C832.059 682.13 832.012 680.935 832.012 679.435C832.012 674.669 832.348 670.966 833.02 668.325C834.035 664.372 836.363 660.286 840.004 656.067L844.574 659.841C843.137 661.513 841.957 663.067 841.035 664.505C840.113 665.942 839.418 667.528 838.949 669.263L839.184 669.356ZM840.988 683.958C841.504 683.161 841.762 681.646 841.762 679.411C841.762 677.177 841.504 675.661 840.988 674.864C840.691 674.396 840.324 674.161 839.887 674.161C839.449 674.161 839.082 674.396 838.785 674.864C838.27 675.661 838.012 677.177 838.012 679.411C838.012 681.646 838.27 683.161 838.785 683.958C839.082 684.427 839.449 684.661 839.887 684.661C840.324 684.661 840.691 684.427 840.988 683.958ZM859.023 681.474H868.023V689.911H859.023V681.474ZM892.702 689.911H887.368V684.244H878.035V679.661L888.348 659.724L892.889 662.057L884.118 679.036V679.244H887.368V676.328H892.702V679.244H895.368V684.244H892.702V689.911Z" fill="#FCC945"/>
<path d="M1012.7 792.911H1008.7V770.911H1012.69L1016.55 783.38H1016.7V770.911H1020.7V792.911H1016.7L1012.86 780.442H1012.7V792.911ZM1030.57 793.161C1029.37 793.161 1027.75 793.047 1025.71 792.817V789.067C1027.66 789.297 1029.28 789.411 1030.57 789.411C1031.15 789.411 1031.57 789.255 1031.82 788.942C1032.08 788.63 1032.21 788.307 1032.21 787.974C1032.21 787.63 1032.13 787.349 1031.98 787.13C1031.82 786.901 1031.61 786.76 1031.35 786.708C1031.16 786.666 1030.84 786.619 1030.37 786.567C1029.9 786.505 1029.46 786.427 1029.05 786.333C1028.66 786.229 1028.27 786.078 1027.88 785.88C1027.16 785.505 1026.57 784.953 1026.09 784.224C1025.61 783.494 1025.37 782.646 1025.37 781.677C1025.37 781.218 1025.43 780.76 1025.57 780.302C1025.71 779.833 1025.91 779.38 1026.2 778.942C1026.49 778.505 1026.84 778.119 1027.24 777.786C1027.65 777.442 1028.14 777.172 1028.73 776.974C1029.32 776.765 1029.96 776.661 1030.65 776.661C1031.8 776.661 1033.44 776.771 1035.55 776.989V780.739C1033.42 780.521 1031.78 780.411 1030.65 780.411C1030.21 780.411 1029.89 780.552 1029.68 780.833C1029.47 781.104 1029.37 781.375 1029.37 781.646C1029.37 782.073 1029.47 782.411 1029.66 782.661C1029.86 782.901 1030.11 783.041 1030.4 783.083C1030.53 783.104 1030.79 783.14 1031.18 783.192C1031.58 783.234 1031.88 783.276 1032.1 783.317C1032.32 783.359 1032.6 783.432 1032.93 783.536C1033.27 783.63 1033.59 783.765 1033.88 783.942C1034.17 784.109 1034.46 784.323 1034.73 784.583C1035.72 785.51 1036.21 786.63 1036.21 787.942C1036.21 788.609 1036.09 789.25 1035.85 789.864C1035.61 790.479 1035.27 791.036 1034.82 791.536C1034.37 792.026 1033.78 792.422 1033.04 792.724C1032.31 793.015 1031.49 793.161 1030.57 793.161Z" fill="white"/>
<path d="M998.191 837.925H1010.19V841.675H1002.19V847.112H1008.19V850.862H1002.19V859.925H998.191V837.925ZM1017.2 854.3H1023.2V859.925H1017.2V854.3ZM1030.21 837.925H1042.21V841.675H1034.21V847.112H1040.21V850.862H1034.21V859.925H1030.21V837.925Z" fill="white"/>
<path d="M835.781 797.604C836.219 797.239 836.74 797.057 837.344 797.057C838.5 797.057 839.391 797.479 840.016 798.322C841.005 799.645 841.5 801.64 841.5 804.307C841.5 806.15 841.333 807.525 841 808.432C840.656 809.38 840.083 810.14 839.281 810.713C838.49 811.275 837.531 811.557 836.406 811.557C835.146 811.557 834.104 811.281 833.281 810.729C832.458 810.166 831.865 809.4 831.5 808.432C831.292 807.88 831.156 807.307 831.094 806.713C831.031 806.119 831 805.322 831 804.322C831 801.145 831.224 798.676 831.672 796.916C832.349 794.281 833.901 791.557 836.328 788.744L839.375 791.26C838.417 792.374 837.63 793.411 837.016 794.369C836.401 795.327 835.938 796.385 835.625 797.541L835.781 797.604ZM836.984 807.338C837.328 806.807 837.5 805.796 837.5 804.307C837.5 802.817 837.328 801.807 836.984 801.275C836.786 800.963 836.542 800.807 836.25 800.807C835.958 800.807 835.714 800.963 835.516 801.275C835.172 801.807 835 802.817 835 804.307C835 805.796 835.172 806.807 835.516 807.338C835.714 807.65 835.958 807.807 836.25 807.807C836.542 807.807 836.786 807.65 836.984 807.338ZM847.57 792.416C848.424 790.156 849.904 789.025 852.008 789.025C854.112 789.025 855.591 790.156 856.445 792.416C856.633 792.926 856.773 793.63 856.867 794.525C856.961 795.421 857.013 796.239 857.023 796.979C857.044 797.708 857.055 798.817 857.055 800.307C857.055 801.796 857.044 802.911 857.023 803.65C857.013 804.38 856.961 805.192 856.867 806.088C856.773 806.984 856.633 807.687 856.445 808.197C855.591 810.458 854.112 811.588 852.008 811.588C849.904 811.588 848.424 810.458 847.57 808.197C847.383 807.687 847.242 806.984 847.148 806.088C847.055 805.192 846.997 804.38 846.977 803.65C846.966 802.911 846.961 801.796 846.961 800.307C846.961 798.817 846.966 797.708 846.977 796.979C846.997 796.239 847.055 795.421 847.148 794.525C847.242 793.63 847.383 792.926 847.57 792.416ZM852.008 792.838C851.56 792.838 851.242 793.494 851.055 794.807C850.951 795.505 850.898 797.338 850.898 800.307V801.947L852.992 795.057C852.919 794.442 852.799 793.921 852.633 793.494C852.466 793.057 852.258 792.838 852.008 792.838ZM851.023 805.557C851.096 806.171 851.216 806.697 851.383 807.135C851.549 807.562 851.758 807.775 852.008 807.775C852.456 807.775 852.773 807.119 852.961 805.807C853.065 805.109 853.117 803.275 853.117 800.307V798.666L851.023 805.557ZM865.016 805.682H871.016V811.307H865.016V805.682ZM884.914 793.51C884.716 793.041 884.419 792.807 884.023 792.807C883.628 792.807 883.331 793.041 883.133 793.51C882.935 793.968 882.836 794.562 882.836 795.291C882.836 796.145 882.935 796.859 883.133 797.432C883.331 797.994 883.628 798.275 884.023 798.275C884.419 798.275 884.716 797.994 884.914 797.432C885.112 796.859 885.211 796.145 885.211 795.291C885.211 794.562 885.112 793.968 884.914 793.51ZM880.195 790.744C881.102 789.619 882.378 789.057 884.023 789.057C885.669 789.057 886.945 789.619 887.852 790.744C888.758 791.859 889.211 793.27 889.211 794.979C889.211 797.354 888.393 799.031 886.758 800.01V800.166C888.602 801.166 889.523 802.932 889.523 805.463C889.523 807.234 889.039 808.692 888.07 809.838C887.102 810.984 885.753 811.557 884.023 811.557C882.294 811.557 880.945 810.984 879.977 809.838C879.008 808.692 878.523 807.234 878.523 805.463C878.523 802.932 879.445 801.166 881.289 800.166V800.01C879.654 799.031 878.836 797.354 878.836 794.979C878.836 793.27 879.289 791.859 880.195 790.744ZM885.148 802.9C884.898 802.317 884.523 802.025 884.023 802.025C883.523 802.025 883.148 802.317 882.898 802.9C882.648 803.484 882.523 804.234 882.523 805.15C882.523 805.942 882.648 806.583 882.898 807.072C883.148 807.562 883.523 807.807 884.023 807.807C884.523 807.807 884.898 807.562 885.148 807.072C885.398 806.583 885.523 805.942 885.523 805.15C885.523 804.234 885.398 803.484 885.148 802.9Z" fill="#FCC945"/>
<path d="M857.914 863.151C857.716 862.683 857.419 862.448 857.023 862.448C856.628 862.448 856.331 862.683 856.133 863.151C855.935 863.61 855.836 864.203 855.836 864.933C855.836 865.787 855.935 866.5 856.133 867.073C856.331 867.636 856.628 867.917 857.023 867.917C857.419 867.917 857.716 867.636 857.914 867.073C858.112 866.5 858.211 865.787 858.211 864.933C858.211 864.203 858.112 863.61 857.914 863.151ZM853.195 860.386C854.102 859.261 855.378 858.698 857.023 858.698C858.669 858.698 859.945 859.261 860.852 860.386C861.758 861.5 862.211 862.912 862.211 864.62C862.211 866.995 861.393 868.672 859.758 869.651V869.808C861.602 870.808 862.523 872.573 862.523 875.104C862.523 876.875 862.039 878.334 861.07 879.479C860.102 880.625 858.753 881.198 857.023 881.198C855.294 881.198 853.945 880.625 852.977 879.479C852.008 878.334 851.523 876.875 851.523 875.104C851.523 872.573 852.445 870.808 854.289 869.808V869.651C852.654 868.672 851.836 866.995 851.836 864.62C851.836 862.912 852.289 861.5 853.195 860.386ZM858.148 872.542C857.898 871.959 857.523 871.667 857.023 871.667C856.523 871.667 856.148 871.959 855.898 872.542C855.648 873.125 855.523 873.875 855.523 874.792C855.523 875.584 855.648 876.224 855.898 876.714C856.148 877.203 856.523 877.448 857.023 877.448C857.523 877.448 857.898 877.203 858.148 876.714C858.398 876.224 858.523 875.584 858.523 874.792C858.523 873.875 858.398 873.125 858.148 872.542ZM873.922 863.151C873.724 862.683 873.427 862.448 873.031 862.448C872.635 862.448 872.339 862.683 872.141 863.151C871.943 863.61 871.844 864.203 871.844 864.933C871.844 865.787 871.943 866.5 872.141 867.073C872.339 867.636 872.635 867.917 873.031 867.917C873.427 867.917 873.724 867.636 873.922 867.073C874.12 866.5 874.219 865.787 874.219 864.933C874.219 864.203 874.12 863.61 873.922 863.151ZM869.203 860.386C870.109 859.261 871.385 858.698 873.031 858.698C874.677 858.698 875.953 859.261 876.859 860.386C877.766 861.5 878.219 862.912 878.219 864.62C878.219 866.995 877.401 868.672 875.766 869.651V869.808C877.609 870.808 878.531 872.573 878.531 875.104C878.531 876.875 878.047 878.334 877.078 879.479C876.109 880.625 874.76 881.198 873.031 881.198C871.302 881.198 869.953 880.625 868.984 879.479C868.016 878.334 867.531 876.875 867.531 875.104C867.531 872.573 868.453 870.808 870.297 869.808V869.651C868.661 868.672 867.844 866.995 867.844 864.62C867.844 862.912 868.297 861.5 869.203 860.386ZM874.156 872.542C873.906 871.959 873.531 871.667 873.031 871.667C872.531 871.667 872.156 871.959 871.906 872.542C871.656 873.125 871.531 873.875 871.531 874.792C871.531 875.584 871.656 876.224 871.906 876.714C872.156 877.203 872.531 877.448 873.031 877.448C873.531 877.448 873.906 877.203 874.156 876.714C874.406 876.224 874.531 875.584 874.531 874.792C874.531 873.875 874.406 873.125 874.156 872.542ZM894.039 865.933C894.039 869.11 893.815 871.578 893.367 873.339C892.69 875.974 891.138 878.698 888.711 881.511L885.664 878.995C886.622 877.881 887.409 876.844 888.023 875.886C888.638 874.927 889.102 873.87 889.414 872.714L889.258 872.651C888.82 873.016 888.299 873.198 887.695 873.198C886.539 873.198 885.648 872.776 885.023 871.933C884.034 870.61 883.539 868.615 883.539 865.948C883.539 864.104 883.706 862.729 884.039 861.823C884.393 860.865 884.977 860.104 885.789 859.542C886.602 858.979 887.602 858.698 888.789 858.698C889.977 858.698 890.977 858.979 891.789 859.542C892.602 860.104 893.185 860.865 893.539 861.823C893.747 862.375 893.883 862.948 893.945 863.542C894.008 864.136 894.039 864.933 894.039 865.933ZM888.055 862.917C887.711 863.448 887.539 864.459 887.539 865.948C887.539 867.438 887.711 868.448 888.055 868.979C888.253 869.292 888.497 869.448 888.789 869.448C889.081 869.448 889.326 869.292 889.523 868.979C889.867 868.448 890.039 867.438 890.039 865.948C890.039 864.459 889.867 863.448 889.523 862.917C889.326 862.604 889.081 862.448 888.789 862.448C888.497 862.448 888.253 862.604 888.055 862.917Z" fill="#FCC945"/>
<path d="M1148.51 797.604C1148.95 797.239 1149.47 797.057 1150.07 797.057C1151.23 797.057 1152.12 797.479 1152.75 798.322C1153.74 799.645 1154.23 801.64 1154.23 804.307C1154.23 806.15 1154.06 807.525 1153.73 808.432C1153.39 809.38 1152.81 810.14 1152.01 810.713C1151.22 811.275 1150.26 811.557 1149.14 811.557C1147.88 811.557 1146.83 811.281 1146.01 810.729C1145.19 810.166 1144.6 809.4 1144.23 808.432C1144.02 807.88 1143.89 807.307 1143.82 806.713C1143.76 806.119 1143.73 805.322 1143.73 804.322C1143.73 801.145 1143.95 798.676 1144.4 796.916C1145.08 794.281 1146.63 791.557 1149.06 788.744L1152.11 791.26C1151.15 792.374 1150.36 793.411 1149.75 794.369C1149.13 795.327 1148.67 796.385 1148.36 797.541L1148.51 797.604ZM1149.71 807.338C1150.06 806.807 1150.23 805.796 1150.23 804.307C1150.23 802.817 1150.06 801.807 1149.71 801.275C1149.52 800.963 1149.27 800.807 1148.98 800.807C1148.69 800.807 1148.44 800.963 1148.25 801.275C1147.9 801.807 1147.73 802.817 1147.73 804.307C1147.73 805.796 1147.9 806.807 1148.25 807.338C1148.44 807.65 1148.69 807.807 1148.98 807.807C1149.27 807.807 1149.52 807.65 1149.71 807.338ZM1160.3 792.416C1161.15 790.156 1162.63 789.025 1164.74 789.025C1166.84 789.025 1168.32 790.156 1169.18 792.416C1169.36 792.926 1169.5 793.63 1169.6 794.525C1169.69 795.421 1169.74 796.239 1169.75 796.979C1169.77 797.708 1169.79 798.817 1169.79 800.307C1169.79 801.796 1169.77 802.911 1169.75 803.65C1169.74 804.38 1169.69 805.192 1169.6 806.088C1169.5 806.984 1169.36 807.687 1169.18 808.197C1168.32 810.458 1166.84 811.588 1164.74 811.588C1162.63 811.588 1161.15 810.458 1160.3 808.197C1160.11 807.687 1159.97 806.984 1159.88 806.088C1159.79 805.192 1159.73 804.38 1159.71 803.65C1159.7 802.911 1159.69 801.796 1159.69 800.307C1159.69 798.817 1159.7 797.708 1159.71 796.979C1159.73 796.239 1159.79 795.421 1159.88 794.525C1159.97 793.63 1160.11 792.926 1160.3 792.416ZM1164.74 792.838C1164.29 792.838 1163.97 793.494 1163.79 794.807C1163.68 795.505 1163.63 797.338 1163.63 800.307V801.947L1165.72 795.057C1165.65 794.442 1165.53 793.921 1165.36 793.494C1165.2 793.057 1164.99 792.838 1164.74 792.838ZM1163.75 805.557C1163.83 806.171 1163.95 806.697 1164.11 807.135C1164.28 807.562 1164.49 807.775 1164.74 807.775C1165.19 807.775 1165.5 807.119 1165.69 805.807C1165.8 805.109 1165.85 803.275 1165.85 800.307V798.666L1163.75 805.557ZM1177.75 805.682H1183.75V811.307H1177.75V805.682ZM1190.97 789.307H1202.22V792.588L1197.32 811.307H1193.27L1198.08 793.213V793.057H1190.97V789.307Z" fill="#FCC945"/>
<path d="M1149.62 863.151C1149.42 862.683 1149.13 862.448 1148.73 862.448C1148.33 862.448 1148.04 862.683 1147.84 863.151C1147.64 863.61 1147.54 864.203 1147.54 864.933C1147.54 865.787 1147.64 866.5 1147.84 867.073C1148.04 867.636 1148.33 867.917 1148.73 867.917C1149.13 867.917 1149.42 867.636 1149.62 867.073C1149.82 866.5 1149.92 865.787 1149.92 864.933C1149.92 864.203 1149.82 863.61 1149.62 863.151ZM1144.9 860.386C1145.81 859.261 1147.08 858.698 1148.73 858.698C1150.38 858.698 1151.65 859.261 1152.56 860.386C1153.46 861.5 1153.92 862.912 1153.92 864.62C1153.92 866.995 1153.1 868.672 1151.46 869.651V869.808C1153.31 870.808 1154.23 872.573 1154.23 875.104C1154.23 876.875 1153.75 878.334 1152.78 879.479C1151.81 880.625 1150.46 881.198 1148.73 881.198C1147 881.198 1145.65 880.625 1144.68 879.479C1143.71 878.334 1143.23 876.875 1143.23 875.104C1143.23 872.573 1144.15 870.808 1146 869.808V869.651C1144.36 868.672 1143.54 866.995 1143.54 864.62C1143.54 862.912 1144 861.5 1144.9 860.386ZM1149.86 872.542C1149.61 871.959 1149.23 871.667 1148.73 871.667C1148.23 871.667 1147.86 871.959 1147.61 872.542C1147.36 873.125 1147.23 873.875 1147.23 874.792C1147.23 875.584 1147.36 876.224 1147.61 876.714C1147.86 877.203 1148.23 877.448 1148.73 877.448C1149.23 877.448 1149.61 877.203 1149.86 876.714C1150.11 876.224 1150.23 875.584 1150.23 874.792C1150.23 873.875 1150.11 873.125 1149.86 872.542ZM1169.74 865.933C1169.74 869.11 1169.51 871.578 1169.07 873.339C1168.39 875.974 1166.84 878.698 1164.41 881.511L1161.36 878.995C1162.32 877.881 1163.11 876.844 1163.72 875.886C1164.34 874.927 1164.8 873.87 1165.11 872.714L1164.96 872.651C1164.52 873.016 1164 873.198 1163.39 873.198C1162.24 873.198 1161.35 872.776 1160.72 871.933C1159.73 870.61 1159.24 868.615 1159.24 865.948C1159.24 864.104 1159.4 862.729 1159.74 861.823C1160.09 860.865 1160.68 860.104 1161.49 859.542C1162.3 858.979 1163.3 858.698 1164.49 858.698C1165.68 858.698 1166.68 858.979 1167.49 859.542C1168.3 860.104 1168.88 860.865 1169.24 861.823C1169.45 862.375 1169.58 862.948 1169.64 863.542C1169.71 864.136 1169.74 864.933 1169.74 865.933ZM1163.75 862.917C1163.41 863.448 1163.24 864.459 1163.24 865.948C1163.24 867.438 1163.41 868.448 1163.75 868.979C1163.95 869.292 1164.2 869.448 1164.49 869.448C1164.78 869.448 1165.02 869.292 1165.22 868.979C1165.57 868.448 1165.74 867.438 1165.74 865.948C1165.74 864.459 1165.57 863.448 1165.22 862.917C1165.02 862.604 1164.78 862.448 1164.49 862.448C1164.2 862.448 1163.95 862.604 1163.75 862.917ZM1175.75 876.933C1177.44 877.276 1178.92 877.448 1180.18 877.448C1180.63 877.448 1181.01 877.36 1181.31 877.183C1181.61 877.006 1181.83 876.745 1181.98 876.401C1182.13 876.058 1182.23 875.693 1182.28 875.308C1182.34 874.922 1182.37 874.464 1182.37 873.933C1182.37 871.61 1181.76 870.448 1180.53 870.448C1179.86 870.448 1179.35 870.651 1178.98 871.058L1175.75 870.214V858.948H1185.75V862.698H1179.75V867.573H1179.9C1180.54 867.167 1181.23 866.964 1181.96 866.964C1184.82 866.964 1186.25 869.297 1186.25 873.964C1186.25 876.422 1185.77 878.245 1184.81 879.433C1183.86 880.61 1182.42 881.198 1180.5 881.198C1179.23 881.198 1177.64 881.037 1175.75 880.714V876.933Z" fill="#FCC945"/>
<path d="M993.877 797.133L917.665 812.901" stroke="white" stroke-width="5"/>
<path d="M993.877 866.774L917.665 882.542" stroke="white" stroke-width="5"/>
<path d="M1058.26 797.133L1134.47 812.901" stroke="white" stroke-width="5"/>
<path d="M1058.26 866.774L1134.47 882.542" stroke="white" stroke-width="5"/>
<rect x="-1" y="0.911133" width="1443" height="393" fill="#5C6369"/>
<circle cx="114.5" cy="224.411" r="47.5" fill="white"/>
<circle cx="693" cy="248.911" r="46" fill="white"/>
<circle cx="1314" cy="210.911" r="46" fill="white"/>
<ellipse cx="1000.5" cy="211.911" rx="42.5" ry="43" fill="white"/>
<circle cx="520" cy="197.911" r="20" fill="#41464A"/>
<circle cx="821" cy="205.911" r="20" fill="#41464A"/>
<circle cx="1297" cy="329.911" r="20" fill="#41464A"/>
<circle cx="692.5" cy="248.411" r="58.5" stroke="white" stroke-width="4"/>
<circle cx="1313.5" cy="210.411" r="58.5" stroke="white" stroke-width="4"/>
<circle cx="519.5" cy="197.411" r="40.5" stroke="white" stroke-width="4"/>
<circle cx="820.5" cy="205.411" r="40.5" stroke="white" stroke-width="4"/>
<circle cx="1296.5" cy="329.411" r="40.5" stroke="white" stroke-width="4"/>
<path d="M147.676 161.911C169.887 173.832 185 197.349 185 224.411C185 251.474 169.887 274.991 147.676 286.911M81.3235 286.911C59.1128 274.991 44 251.474 44 224.411C44 197.349 59.1128 173.832 81.3235 161.911" stroke="white" stroke-width="4"/>
<path d="M323.382 90.9111C338.032 98.731 348 114.158 348 131.911C348 149.664 338.032 165.091 323.382 172.911M279.618 172.911C264.968 165.091 255 149.664 255 131.911C255 114.158 264.968 98.731 279.618 90.9111" stroke="white" stroke-width="4"/>
<rect x="220.5" y="256.411" width="56" height="92" rx="3.5" stroke="white" stroke-width="3"/>
<rect x="245" y="285.911" width="7" height="32" fill="white"/>
<rect x="298" y="111.911" width="7" height="32" fill="white"/>
<circle cx="301.5" cy="151.411" r="10.5" fill="white"/>
<circle cx="248.5" cy="325.411" r="10.5" fill="white"/>
<path d="M241.99 240.89C241.885 241.46 241.833 242.356 241.833 243.578C241.833 244.8 241.885 245.696 241.99 246.265C242.115 246.939 242.344 247.494 242.677 247.932C243.017 248.363 243.458 248.578 244 248.578C244.542 248.578 244.979 248.363 245.312 247.932C245.653 247.494 245.885 246.939 246.01 246.265C246.115 245.689 246.167 244.793 246.167 243.578C246.167 242.356 246.115 241.46 246.01 240.89C245.885 240.217 245.653 239.665 245.312 239.234C244.979 238.797 244.542 238.578 244 238.578C243.458 238.578 243.017 238.797 242.677 239.234C242.344 239.665 242.115 240.217 241.99 240.89ZM239.458 247.213C239.264 246.442 239.167 245.231 239.167 243.578C239.167 241.925 239.264 240.713 239.458 239.942C239.736 238.817 240.26 237.894 241.031 237.172C241.802 236.442 242.792 236.078 244 236.078C245.208 236.078 246.198 236.442 246.969 237.172C247.74 237.894 248.264 238.817 248.542 239.942C248.736 240.713 248.833 241.925 248.833 243.578C248.833 245.231 248.736 246.442 248.542 247.213C248.264 248.338 247.74 249.265 246.969 249.994C246.198 250.717 245.208 251.078 244 251.078C242.792 251.078 241.802 250.717 241.031 249.994C240.26 249.265 239.736 248.338 239.458 247.213ZM253.339 250.911H250.672V236.244H253.328L255.901 244.557H256.005V236.244H258.672V250.911H256.005L253.443 242.599H253.339V250.911Z" fill="white"/>
<path d="M86.5 38.682V41.807C84.9462 42.0153 83.5703 42.1195 82.3724 42.1195C80.5929 42.1195 79.1562 41.6768 78.0625 40.7913C76.9774 39.8972 76.2439 38.6906 75.862 37.1715C75.5929 36.1125 75.4583 34.6368 75.4583 32.7445C75.4583 30.8521 75.5929 29.3764 75.862 28.3174C76.2439 26.7896 76.9644 25.583 78.0234 24.6976C79.0825 23.8122 80.4887 23.3695 82.2422 23.3695C83.5703 23.3695 84.9245 23.4476 86.3047 23.6038V26.7288C84.5686 26.5726 83.2274 26.4945 82.2812 26.4945C80.5017 26.4945 79.4167 27.4927 79.026 29.4893C78.8698 30.3052 78.7917 31.3903 78.7917 32.7445C78.7917 34.0986 78.8698 35.1837 79.026 35.9997C79.4167 37.9962 80.5321 38.9945 82.3724 38.9945C83.3707 38.9945 84.7465 38.8903 86.5 38.682ZM92.3268 29.3851C92.1966 30.0969 92.1315 31.2167 92.1315 32.7445C92.1315 34.2722 92.1966 35.392 92.3268 36.1038C92.4831 36.9459 92.7695 37.6403 93.1862 38.1872C93.6115 38.7254 94.1628 38.9945 94.8398 38.9945C95.5169 38.9945 96.0638 38.7254 96.4805 38.1872C96.9058 37.6403 97.1966 36.9459 97.3529 36.1038C97.4831 35.3834 97.5482 34.2636 97.5482 32.7445C97.5482 31.2167 97.4831 30.0969 97.3529 29.3851C97.1966 28.5431 96.9058 27.853 96.4805 27.3148C96.0638 26.7679 95.5169 26.4945 94.8398 26.4945C94.1628 26.4945 93.6115 26.7679 93.1862 27.3148C92.7695 27.853 92.4831 28.5431 92.3268 29.3851ZM89.1628 37.2887C88.9197 36.3252 88.7982 34.8104 88.7982 32.7445C88.7982 30.6785 88.9197 29.1637 89.1628 28.2002C89.51 26.7939 90.1654 25.6394 91.1289 24.7367C92.0924 23.8252 93.3294 23.3695 94.8398 23.3695C96.3503 23.3695 97.5872 23.8252 98.5508 24.7367C99.5143 25.6394 100.17 26.7939 100.517 28.2002C100.76 29.1637 100.882 30.6785 100.882 32.7445C100.882 34.8104 100.76 36.3252 100.517 37.2887C100.17 38.695 99.5143 39.8538 98.5508 40.7653C97.5872 41.6681 96.3503 42.1195 94.8398 42.1195C93.3294 42.1195 92.0924 41.6681 91.1289 40.7653C90.1654 39.8538 89.51 38.695 89.1628 37.2887ZM102.346 23.5778H105.68V35.2445C105.68 36.0604 105.71 36.616 105.771 36.9111C105.901 37.5361 106.179 38.0396 106.604 38.4215C107.038 38.8035 107.563 38.9945 108.18 38.9945C108.796 38.9945 109.317 38.8035 109.742 38.4215C110.176 38.0396 110.458 37.5361 110.589 36.9111C110.649 36.616 110.68 36.0604 110.68 35.2445V23.5778H114.013V35.2445C114.013 36.4684 113.944 37.3755 113.805 37.9658C113.51 39.1898 112.85 40.188 111.826 40.9606C110.81 41.7332 109.595 42.1195 108.18 42.1195C106.765 42.1195 105.545 41.7332 104.521 40.9606C103.505 40.188 102.85 39.1898 102.555 37.9658C102.416 37.3755 102.346 36.4684 102.346 35.2445V23.5778ZM119.853 26.7028V32.0153H120.66C121.407 32.0153 121.949 31.9806 122.288 31.9111C122.869 31.7896 123.338 31.4988 123.694 31.0387C124.05 30.5787 124.228 30.0188 124.228 29.359C124.228 28.6993 124.05 28.1394 123.694 27.6794C123.338 27.2193 122.869 26.9285 122.288 26.807C121.941 26.7375 121.398 26.7028 120.66 26.7028H119.853ZM116.52 23.5778H120.634C121.919 23.5778 122.835 23.6429 123.382 23.7731C124.614 24.0683 125.617 24.715 126.389 25.7132C127.171 26.7028 127.561 27.9181 127.561 29.359C127.561 30.4441 127.331 31.412 126.871 32.2627C126.42 33.1047 125.803 33.7731 125.022 34.2679L127.887 41.9111H124.345L121.923 35.1273C121.663 35.136 121.233 35.1403 120.634 35.1403H119.853V41.9111H116.52V23.5778ZM134.599 42.1195C133.175 42.1195 131.569 41.9806 129.781 41.7028V38.5257C131.873 38.8382 133.479 38.9945 134.599 38.9945C136.144 38.9945 136.917 38.1698 136.917 36.5205C136.917 36.0604 136.804 35.6264 136.578 35.2184C136.361 34.8018 136.053 34.5153 135.654 34.359C135.402 34.2636 135.055 34.1854 134.612 34.1247C134.169 34.0639 133.714 33.9771 133.245 33.8643C132.785 33.7427 132.342 33.5561 131.917 33.3044C130.285 32.3321 129.469 30.7957 129.469 28.695C129.469 27.1933 129.946 25.9302 130.901 24.9059C131.865 23.8816 133.097 23.3695 134.599 23.3695C135.771 23.3695 137.377 23.478 139.417 23.695V26.833C137.307 26.6073 135.701 26.4945 134.599 26.4945C134.269 26.4945 133.978 26.5683 133.727 26.7158C133.484 26.8634 133.297 27.0544 133.167 27.2887C133.036 27.5231 132.941 27.7618 132.88 28.0049C132.828 28.2479 132.802 28.4867 132.802 28.721C132.802 29.7453 133.149 30.4137 133.844 30.7262C134.069 30.8304 134.582 30.9476 135.38 31.0778C136.188 31.1993 136.839 31.3903 137.333 31.6507C138.028 32.0066 138.601 32.4667 139.052 33.0309C139.503 33.5952 139.816 34.1637 139.99 34.7367C140.163 35.3096 140.25 35.9042 140.25 36.5205C140.25 38.2045 139.729 39.5587 138.688 40.583C137.646 41.6073 136.283 42.1195 134.599 42.1195ZM143.199 23.5778H153.199V26.7028H146.533V31.1299H151.533V34.2549H146.533V38.7861H153.199V41.9111H143.199V23.5778Z" fill="white"/>
<path d="M1269.39 35.2445C1268.88 31.9719 1268.28 29.0248 1267.57 26.4033H1267.43C1266.73 28.9988 1266.12 31.9459 1265.61 35.2445H1269.39ZM1264.92 23.5778H1270.08C1271.57 28.2479 1272.76 34.359 1273.63 41.9111H1270.26C1270.16 40.7132 1270.01 39.5327 1269.83 38.3695H1265.17C1264.99 39.5327 1264.84 40.7132 1264.74 41.9111H1261.37C1262.24 34.359 1263.43 28.2479 1264.92 23.5778ZM1275.84 41.9111V23.5778H1279.17V38.7861H1286.67V41.9111H1275.84ZM1300.01 23.5778V26.7028H1295.85V41.9111H1292.51V26.7028H1288.35V23.5778H1300.01ZM1312.52 23.5778V26.7028H1309.19V38.7861H1312.52V41.9111H1302.52V38.7861H1305.85V26.7028H1302.52V23.5778H1312.52ZM1326.69 23.5778V26.7028H1322.53V41.9111H1319.19V26.7028H1315.03V23.5778H1326.69ZM1328.37 23.5778H1331.7V35.2445C1331.7 36.0604 1331.73 36.616 1331.79 36.9111C1331.92 37.5361 1332.2 38.0396 1332.62 38.4215C1333.06 38.8035 1333.58 38.9945 1334.2 38.9945C1334.82 38.9945 1335.34 38.8035 1335.76 38.4215C1336.2 38.0396 1336.48 37.5361 1336.61 36.9111C1336.67 36.616 1336.7 36.0604 1336.7 35.2445V23.5778H1340.03V35.2445C1340.03 36.4684 1339.96 37.3755 1339.82 37.9658C1339.53 39.1898 1338.87 40.188 1337.85 40.9606C1336.83 41.7332 1335.61 42.1195 1334.2 42.1195C1332.78 42.1195 1331.56 41.7332 1330.54 40.9606C1329.52 40.188 1328.87 39.1898 1328.57 37.9658C1328.44 37.3755 1328.37 36.4684 1328.37 35.2445V23.5778ZM1346.21 23.5778C1349.01 23.5778 1351.04 24.6064 1352.32 26.6637C1352.81 27.445 1353.15 28.3304 1353.32 29.32C1353.49 30.3096 1353.58 31.4511 1353.58 32.7445C1353.58 34.0379 1353.49 35.1794 1353.32 36.1689C1353.15 37.1585 1352.81 38.0439 1352.32 38.8252C1351.04 40.8825 1349.01 41.9111 1346.21 41.9111H1341.71V23.5778H1346.21ZM1349.51 37.1195C1350 36.2861 1350.25 34.8278 1350.25 32.7445C1350.25 30.6611 1350 29.2028 1349.51 28.3695C1348.85 27.2584 1347.85 26.7028 1346.48 26.7028H1345.04V38.7861H1346.48C1347.85 38.7861 1348.85 38.2306 1349.51 37.1195ZM1355.88 23.5778H1365.88V26.7028H1359.21V31.1299H1364.21V34.2549H1359.21V38.7861H1365.88V41.9111H1355.88V23.5778Z" fill="white"/>
<path d="M951.5 23.5778H954.833V31.234H958.167V23.5778H961.5V41.9111H958.167V34.359H954.833V41.9111H951.5V23.5778ZM964.84 23.5778H974.84V26.7028H968.173V31.1299H973.173V34.2549H968.173V38.7861H974.84V41.9111H964.84V23.5778ZM985.068 35.2445C984.564 31.9719 983.957 29.0248 983.245 26.4033H983.115C982.411 28.9988 981.804 31.9459 981.292 35.2445H985.068ZM980.602 23.5778H985.758C987.251 28.2479 988.436 34.359 989.312 41.9111H985.94C985.836 40.7132 985.693 39.5327 985.51 38.3695H980.849C980.667 39.5327 980.523 40.7132 980.419 41.9111H977.047C977.924 34.359 979.109 28.2479 980.602 23.5778ZM995.191 23.5778C997.987 23.5778 1000.02 24.6064 1001.3 26.6637C1001.79 27.445 1002.13 28.3304 1002.3 29.32C1002.47 30.3096 1002.56 31.4511 1002.56 32.7445C1002.56 34.0379 1002.47 35.1794 1002.3 36.1689C1002.13 37.1585 1001.79 38.0439 1001.3 38.8252C1000.02 40.8825 997.987 41.9111 995.191 41.9111H990.686V23.5778H995.191ZM998.486 37.1195C998.98 36.2861 999.228 34.8278 999.228 32.7445C999.228 30.6611 998.98 29.2028 998.486 28.3695C997.835 27.2584 996.828 26.7028 995.465 26.7028H994.02V38.7861H995.465C996.828 38.7861 997.835 38.2306 998.486 37.1195ZM1014.86 23.5778V26.7028H1011.53V38.7861H1014.86V41.9111H1004.86V38.7861H1008.19V26.7028H1004.86V23.5778H1014.86ZM1021.53 41.9111H1018.2V23.5778H1021.52L1024.74 33.9684H1024.87V23.5778H1028.2V41.9111H1024.87L1021.66 31.5205H1021.53V41.9111ZM1042.37 41.6377C1040.59 41.9589 1039.03 42.1195 1037.67 42.1195C1035.82 42.1195 1034.33 41.6768 1033.19 40.7913C1032.06 39.8972 1031.3 38.6906 1030.9 37.1715C1030.63 36.1125 1030.5 34.6368 1030.5 32.7445C1030.5 30.8521 1030.63 29.3764 1030.9 28.3174C1031.31 26.7896 1032.06 25.583 1033.15 24.6976C1034.25 23.8122 1035.71 23.3695 1037.54 23.3695C1038.93 23.3695 1040.45 23.4606 1042.11 23.6429V26.7679C1040.25 26.5856 1038.74 26.4945 1037.58 26.4945C1035.63 26.4945 1034.46 27.4927 1034.07 29.4893C1033.91 30.3052 1033.83 31.3903 1033.83 32.7445C1033.83 34.0986 1033.91 35.1837 1034.07 35.9997C1034.25 36.9372 1034.63 37.6707 1035.22 38.2002C1035.82 38.7297 1036.64 38.9945 1037.67 38.9945C1037.96 38.9945 1038.41 38.9771 1039.04 38.9424V35.0361H1037.37V31.9111H1042.37V41.6377Z" fill="white"/>
<path d="M873.784 225.078C872.645 225.078 871.36 224.967 869.93 224.744V222.203C871.603 222.453 872.888 222.578 873.784 222.578C875.02 222.578 875.638 221.918 875.638 220.599C875.638 220.231 875.548 219.883 875.367 219.557C875.194 219.224 874.947 218.994 874.628 218.869C874.426 218.793 874.148 218.731 873.794 218.682C873.44 218.633 873.076 218.564 872.701 218.474C872.332 218.376 871.978 218.227 871.638 218.026C870.332 217.248 869.68 216.019 869.68 214.338C869.68 213.137 870.062 212.126 870.826 211.307C871.596 210.488 872.582 210.078 873.784 210.078C874.721 210.078 876.006 210.165 877.638 210.338V212.849C875.951 212.668 874.666 212.578 873.784 212.578C873.52 212.578 873.287 212.637 873.086 212.755C872.891 212.873 872.742 213.026 872.638 213.213C872.534 213.401 872.457 213.592 872.409 213.786C872.367 213.981 872.346 214.172 872.346 214.359C872.346 215.178 872.624 215.713 873.18 215.963C873.36 216.047 873.77 216.14 874.409 216.244C875.055 216.342 875.576 216.494 875.971 216.703C876.527 216.988 876.985 217.356 877.346 217.807C877.707 218.258 877.957 218.713 878.096 219.172C878.235 219.63 878.305 220.106 878.305 220.599C878.305 221.946 877.888 223.029 877.055 223.849C876.221 224.668 875.131 225.078 873.784 225.078ZM883.331 212.744V216.994H883.977C884.574 216.994 885.008 216.967 885.279 216.911C885.751 216.814 886.126 216.581 886.404 216.213C886.688 215.845 886.831 215.397 886.831 214.869C886.831 214.342 886.688 213.894 886.404 213.526C886.126 213.158 885.751 212.925 885.279 212.828C885.008 212.772 884.574 212.744 883.977 212.744H883.331ZM880.664 210.244H883.956C884.984 210.244 885.716 210.297 886.154 210.401C887.14 210.637 887.942 211.154 888.56 211.953C889.185 212.744 889.497 213.717 889.497 214.869C889.497 216.022 889.185 216.998 888.56 217.797C887.942 218.588 887.14 219.102 886.154 219.338C885.716 219.442 884.984 219.494 883.956 219.494H883.331V224.911H880.664V210.244ZM894.273 210.244C896.51 210.244 898.138 211.067 899.159 212.713C899.555 213.338 899.822 214.047 899.961 214.838C900.1 215.63 900.169 216.543 900.169 217.578C900.169 218.613 900.1 219.526 899.961 220.317C899.822 221.109 899.555 221.817 899.159 222.442C898.138 224.088 896.51 224.911 894.273 224.911H890.669V210.244H894.273ZM896.909 221.078C897.305 220.411 897.503 219.244 897.503 217.578C897.503 215.911 897.305 214.744 896.909 214.078C896.388 213.189 895.582 212.744 894.492 212.744H893.336V222.411H894.492C895.582 222.411 896.388 221.967 896.909 221.078ZM872.656 231.244V233.744H869.99V243.411H872.656V245.911H864.656V243.411H867.323V233.744H864.656V231.244H872.656ZM877.995 245.911H875.328V231.244H877.984L880.557 239.557H880.661V231.244H883.328V245.911H880.661L878.099 237.599H877.995V245.911ZM894.667 231.244V233.744H891.333V245.911H888.667V233.744H885.333V231.244H894.667ZM900.724 237.047C901.752 234.685 902.446 232.751 902.807 231.244H905.63C905.089 232.904 904.533 234.408 903.964 235.755C903.394 237.095 902.741 238.342 902.005 239.494V245.911H899.339V239.494C898.602 238.342 897.95 237.095 897.38 235.755C896.811 234.408 896.255 232.904 895.714 231.244H898.536C898.592 231.501 898.658 231.769 898.734 232.047C898.818 232.324 898.915 232.626 899.026 232.953C899.144 233.279 899.241 233.557 899.318 233.786C899.401 234.008 899.519 234.314 899.672 234.703C899.825 235.085 899.929 235.352 899.984 235.505C900.047 235.651 900.161 235.932 900.328 236.349C900.502 236.758 900.599 236.991 900.62 237.047H900.724Z" fill="white"/>
<path d="M1352 343.578C1351.6 340.96 1351.11 338.602 1350.54 336.505H1350.44C1349.88 338.581 1349.39 340.939 1348.98 343.578H1352ZM1348.43 334.244H1352.55C1353.75 337.981 1354.7 342.869 1355.4 348.911H1352.7C1352.62 347.953 1352.5 347.008 1352.36 346.078H1348.63C1348.48 347.008 1348.37 347.953 1348.28 348.911H1345.59C1346.29 342.869 1347.24 337.981 1348.43 334.244ZM1357.16 348.911V334.244H1359.83V346.411H1365.83V348.911H1357.16ZM1376.5 334.244V336.744H1373.17V348.911H1370.5V336.744H1367.17V334.244H1376.5ZM1349.16 355.244V357.744H1346.49V367.411H1349.16V369.911H1341.16V367.411H1343.82V357.744H1341.16V355.244H1349.16ZM1354.49 369.911H1351.83V355.244H1354.48L1357.06 363.557H1357.16V355.244H1359.83V369.911H1357.16L1354.6 361.599H1354.49V369.911ZM1371.17 355.244V357.744H1367.83V369.911H1365.17V357.744H1361.83V355.244H1371.17ZM1377.22 361.047C1378.25 358.685 1378.95 356.751 1379.31 355.244H1382.13C1381.59 356.904 1381.03 358.408 1380.46 359.755C1379.89 361.095 1379.24 362.342 1378.51 363.494V369.911H1375.84V363.494C1375.1 362.342 1374.45 361.095 1373.88 359.755C1373.31 358.408 1372.76 356.904 1372.21 355.244H1375.04C1375.09 355.501 1375.16 355.769 1375.23 356.047C1375.32 356.324 1375.41 356.626 1375.53 356.953C1375.64 357.279 1375.74 357.557 1375.82 357.786C1375.9 358.008 1376.02 358.314 1376.17 358.703C1376.32 359.085 1376.43 359.352 1376.48 359.505C1376.55 359.651 1376.66 359.932 1376.83 360.349C1377 360.758 1377.1 360.991 1377.12 361.047H1377.22Z" fill="white"/>
<path d="M915.911 154.244H918.328V168.911H915.661V157.39H915.557L914.318 158.297L912.995 156.369L915.911 154.244ZM924.042 156.317C924.611 154.81 925.597 154.057 927 154.057C928.403 154.057 929.389 154.81 929.958 156.317C930.083 156.658 930.177 157.126 930.24 157.724C930.302 158.321 930.337 158.866 930.344 159.359C930.358 159.845 930.365 160.585 930.365 161.578C930.365 162.571 930.358 163.314 930.344 163.807C930.337 164.293 930.302 164.835 930.24 165.432C930.177 166.029 930.083 166.498 929.958 166.838C929.389 168.345 928.403 169.099 927 169.099C925.597 169.099 924.611 168.345 924.042 166.838C923.917 166.498 923.823 166.029 923.76 165.432C923.698 164.835 923.66 164.293 923.646 163.807C923.639 163.314 923.635 162.571 923.635 161.578C923.635 160.585 923.639 159.845 923.646 159.359C923.66 158.866 923.698 158.321 923.76 157.724C923.823 157.126 923.917 156.658 924.042 156.317ZM927 156.599C926.701 156.599 926.49 157.036 926.365 157.911C926.295 158.376 926.26 159.599 926.26 161.578V162.672L927.656 158.078C927.608 157.668 927.528 157.321 927.417 157.036C927.306 156.744 927.167 156.599 927 156.599ZM926.344 165.078C926.392 165.488 926.472 165.838 926.583 166.13C926.694 166.415 926.833 166.557 927 166.557C927.299 166.557 927.51 166.119 927.635 165.244C927.705 164.779 927.74 163.557 927.74 161.578V160.484L926.344 165.078Z" fill="white"/>
<path d="M1076.33 164.442C1076.33 163.581 1076.25 162.963 1076.09 162.588C1075.94 162.206 1075.67 162.015 1075.29 162.015C1074.94 162.015 1074.6 162.088 1074.27 162.234L1072.71 160.505L1075.68 156.744H1071.99V154.244H1078.66V156.64L1076.04 159.713L1076.11 159.786C1076.21 159.751 1076.34 159.734 1076.47 159.734C1078.15 159.734 1078.99 161.31 1078.99 164.463C1078.99 166.033 1078.68 167.196 1078.04 167.953C1077.4 168.703 1076.44 169.078 1075.16 169.078C1074.31 169.078 1073.26 168.97 1071.99 168.755V166.234C1073.2 166.463 1074.26 166.578 1075.16 166.578C1075.61 166.578 1075.92 166.39 1076.08 166.015C1076.24 165.64 1076.33 165.116 1076.33 164.442ZM1083.04 156.317C1083.61 154.81 1084.6 154.057 1086 154.057C1087.4 154.057 1088.39 154.81 1088.96 156.317C1089.08 156.658 1089.18 157.126 1089.24 157.724C1089.3 158.321 1089.34 158.866 1089.34 159.359C1089.36 159.845 1089.36 160.585 1089.36 161.578C1089.36 162.571 1089.36 163.314 1089.34 163.807C1089.34 164.293 1089.3 164.835 1089.24 165.432C1089.18 166.029 1089.08 166.498 1088.96 166.838C1088.39 168.345 1087.4 169.099 1086 169.099C1084.6 169.099 1083.61 168.345 1083.04 166.838C1082.92 166.498 1082.82 166.029 1082.76 165.432C1082.7 164.835 1082.66 164.293 1082.65 163.807C1082.64 163.314 1082.64 162.571 1082.64 161.578C1082.64 160.585 1082.64 159.845 1082.65 159.359C1082.66 158.866 1082.7 158.321 1082.76 157.724C1082.82 157.126 1082.92 156.658 1083.04 156.317ZM1086 156.599C1085.7 156.599 1085.49 157.036 1085.36 157.911C1085.3 158.376 1085.26 159.599 1085.26 161.578V162.672L1086.66 158.078C1086.61 157.668 1086.53 157.321 1086.42 157.036C1086.31 156.744 1086.17 156.599 1086 156.599ZM1085.34 165.078C1085.39 165.488 1085.47 165.838 1085.58 166.13C1085.69 166.415 1085.83 166.557 1086 166.557C1086.3 166.557 1086.51 166.119 1086.64 165.244C1086.7 164.779 1086.74 163.557 1086.74 161.578V160.484L1085.34 165.078Z" fill="white"/>
<path d="M569.5 23.5778V26.7028H566.167V38.7861H569.5V41.9111H559.5V38.7861H562.833V26.7028H559.5V23.5778H569.5ZM579.728 35.2445C579.224 31.9719 578.617 29.0248 577.905 26.4033H577.775C577.072 28.9988 576.464 31.9459 575.952 35.2445H579.728ZM575.262 23.5778H580.418C581.911 28.2479 583.096 34.359 583.973 41.9111H580.6C580.496 40.7132 580.353 39.5327 580.171 38.3695H575.509C575.327 39.5327 575.184 40.7132 575.079 41.9111H571.707C572.584 34.359 573.769 28.2479 575.262 23.5778ZM590.919 42.1195C589.496 42.1195 587.89 41.9806 586.102 41.7028V38.5257C588.194 38.8382 589.799 38.9945 590.919 38.9945C592.464 38.9945 593.237 38.1698 593.237 36.5205C593.237 36.0604 593.124 35.6264 592.898 35.2184C592.681 34.8018 592.373 34.5153 591.974 34.359C591.722 34.2636 591.375 34.1854 590.932 34.1247C590.49 34.0639 590.034 33.9771 589.565 33.8643C589.105 33.7427 588.662 33.5561 588.237 33.3044C586.605 32.3321 585.789 30.7957 585.789 28.695C585.789 27.1933 586.266 25.9302 587.221 24.9059C588.185 23.8816 589.418 23.3695 590.919 23.3695C592.091 23.3695 593.697 23.478 595.737 23.695V26.833C593.628 26.6073 592.022 26.4945 590.919 26.4945C590.589 26.4945 590.299 26.5683 590.047 26.7158C589.804 26.8634 589.617 27.0544 589.487 27.2887C589.357 27.5231 589.261 27.7618 589.201 28.0049C589.148 28.2479 589.122 28.4867 589.122 28.721C589.122 29.7453 589.47 30.4137 590.164 30.7262C590.39 30.8304 590.902 30.9476 591.701 31.0778C592.508 31.1993 593.159 31.3903 593.654 31.6507C594.348 32.0066 594.921 32.4667 595.372 33.0309C595.824 33.5952 596.136 34.1637 596.31 34.7367C596.484 35.3096 596.57 35.9042 596.57 36.5205C596.57 38.2045 596.049 39.5587 595.008 40.583C593.966 41.6073 592.603 42.1195 590.919 42.1195ZM602.02 41.9111H598.686V23.5778H602.02L604.454 29.2809H604.598L607.02 23.5778H610.353V41.9111H607.02V30.2445H606.889L605.236 33.5778H603.803L602.15 30.1924H602.02V41.9111ZM619.747 35.2445C619.244 31.9719 618.636 29.0248 617.924 26.4033H617.794C617.091 28.9988 616.484 31.9459 615.971 35.2445H619.747ZM615.281 23.5778H620.438C621.931 28.2479 623.115 34.359 623.992 41.9111H620.62C620.516 40.7132 620.372 39.5327 620.19 38.3695H615.529C615.346 39.5327 615.203 40.7132 615.099 41.9111H611.727C612.603 34.359 613.788 28.2479 615.281 23.5778ZM636.199 38.682V41.807C634.645 42.0153 633.27 42.1195 632.072 42.1195C630.292 42.1195 628.855 41.6768 627.762 40.7913C626.677 39.8972 625.943 38.6906 625.561 37.1715C625.292 36.1125 625.158 34.6368 625.158 32.7445C625.158 30.8521 625.292 29.3764 625.561 28.3174C625.943 26.7896 626.664 25.583 627.723 24.6976C628.782 23.8122 630.188 23.3695 631.941 23.3695C633.27 23.3695 634.624 23.4476 636.004 23.6038V26.7288C634.268 26.5726 632.927 26.4945 631.98 26.4945C630.201 26.4945 629.116 27.4927 628.725 29.4893C628.569 30.3052 628.491 31.3903 628.491 32.7445C628.491 34.0986 628.569 35.1837 628.725 35.9997C629.116 37.9962 630.231 38.9945 632.072 38.9945C633.07 38.9945 634.446 38.8903 636.199 38.682ZM639.539 23.5778H642.872V31.234H646.206V23.5778H649.539V41.9111H646.206V34.359H642.872V41.9111H639.539V23.5778Z" fill="white"/>
<path d="M235.99 357.89C235.885 358.46 235.833 359.356 235.833 360.578C235.833 361.8 235.885 362.696 235.99 363.265C236.115 363.939 236.344 364.494 236.677 364.932C237.017 365.363 237.458 365.578 238 365.578C238.542 365.578 238.979 365.363 239.312 364.932C239.653 364.494 239.885 363.939 240.01 363.265C240.115 362.689 240.167 361.793 240.167 360.578C240.167 359.356 240.115 358.46 240.01 357.89C239.885 357.217 239.653 356.665 239.312 356.234C238.979 355.797 238.542 355.578 238 355.578C237.458 355.578 237.017 355.797 236.677 356.234C236.344 356.665 236.115 357.217 235.99 357.89ZM233.458 364.213C233.264 363.442 233.167 362.231 233.167 360.578C233.167 358.925 233.264 357.713 233.458 356.942C233.736 355.817 234.26 354.894 235.031 354.172C235.802 353.442 236.792 353.078 238 353.078C239.208 353.078 240.198 353.442 240.969 354.172C241.74 354.894 242.264 355.817 242.542 356.942C242.736 357.713 242.833 358.925 242.833 360.578C242.833 362.231 242.736 363.442 242.542 364.213C242.264 365.338 241.74 366.265 240.969 366.994C240.198 367.717 239.208 368.078 238 368.078C236.792 368.078 235.802 367.717 235.031 366.994C234.26 366.265 233.736 365.338 233.458 364.213ZM244.672 353.244H252.672V355.744H247.339V359.369H251.339V361.869H247.339V367.911H244.672V353.244ZM255.344 353.244H263.344V355.744H258.01V359.369H262.01V361.869H258.01V367.911H255.344V353.244Z" fill="white"/>
<path d="M281.99 189.89C281.885 190.46 281.833 191.356 281.833 192.578C281.833 193.8 281.885 194.696 281.99 195.265C282.115 195.939 282.344 196.494 282.677 196.932C283.017 197.363 283.458 197.578 284 197.578C284.542 197.578 284.979 197.363 285.312 196.932C285.653 196.494 285.885 195.939 286.01 195.265C286.115 194.689 286.167 193.793 286.167 192.578C286.167 191.356 286.115 190.46 286.01 189.89C285.885 189.217 285.653 188.665 285.312 188.234C284.979 187.797 284.542 187.578 284 187.578C283.458 187.578 283.017 187.797 282.677 188.234C282.344 188.665 282.115 189.217 281.99 189.89ZM279.458 196.213C279.264 195.442 279.167 194.231 279.167 192.578C279.167 190.925 279.264 189.713 279.458 188.942C279.736 187.817 280.26 186.894 281.031 186.172C281.802 185.442 282.792 185.078 284 185.078C285.208 185.078 286.198 185.442 286.969 186.172C287.74 186.894 288.264 187.817 288.542 188.942C288.736 189.713 288.833 190.925 288.833 192.578C288.833 194.231 288.736 195.442 288.542 196.213C288.264 197.338 287.74 198.265 286.969 198.994C286.198 199.717 285.208 200.078 284 200.078C282.792 200.078 281.802 199.717 281.031 198.994C280.26 198.265 279.736 197.338 279.458 196.213ZM290.672 185.244H298.672V187.744H293.339V191.369H297.339V193.869H293.339V199.911H290.672V185.244ZM301.344 185.244H309.344V187.744H304.01V191.369H308.01V193.869H304.01V199.911H301.344V185.244Z" fill="white"/>
<path d="M285.51 56.5778C285.108 53.9597 284.622 51.6021 284.052 49.5049H283.948C283.385 51.5813 282.899 53.9389 282.49 56.5778H285.51ZM281.938 47.2445H286.062C287.257 50.9806 288.205 55.8695 288.906 61.9111H286.208C286.125 60.9528 286.01 60.0084 285.865 59.0778H282.135C281.99 60.0084 281.875 60.9528 281.792 61.9111H279.094C279.795 55.8695 280.743 50.9806 281.938 47.2445ZM293.339 49.7445V53.9945H293.984C294.582 53.9945 295.016 53.9667 295.286 53.9111C295.752 53.8139 296.127 53.5813 296.411 53.2132C296.696 52.8452 296.839 52.3972 296.839 51.8695C296.839 51.3417 296.696 50.8938 296.411 50.5257C296.127 50.1577 295.752 49.925 295.286 49.8278C295.009 49.7722 294.575 49.7445 293.984 49.7445H293.339ZM290.672 47.2445H293.964C294.991 47.2445 295.724 47.2965 296.161 47.4007C297.148 47.6368 297.95 48.1542 298.568 48.9528C299.193 49.7445 299.505 50.7167 299.505 51.8695C299.505 52.7375 299.321 53.5118 298.953 54.1924C298.592 54.866 298.099 55.4007 297.474 55.7965L299.766 61.9111H296.932L294.995 56.484C294.786 56.491 294.443 56.4945 293.964 56.4945H293.339V61.9111H290.672V47.2445ZM303.344 61.9111H300.677V47.2445H303.344L305.292 51.807H305.406L307.344 47.2445H310.01V61.9111H307.344V52.5778H307.24L305.917 55.2445H304.771L303.448 52.5361H303.344V61.9111Z" fill="white"/>
<rect x="44" y="47.9111" width="141" height="85" fill="#41464A"/>
<rect x="1227" y="47.9111" width="173" height="85" fill="#41464A"/>
<rect x="925" y="47.9111" width="142" height="85" fill="#41464A"/>
<rect x="348" y="267.911" width="96" height="107" fill="#41464A"/>
<rect x="477" y="267.911" width="96" height="107" fill="#41464A"/>
<rect x="1099" y="20.9111" width="96" height="107" fill="#41464A"/>
<rect x="1099" y="266.911" width="96" height="107" fill="#41464A"/>
<rect x="1099" y="136.911" width="96" height="107" fill="#41464A"/>
<rect x="951" y="267.911" width="96" height="107" fill="#41464A"/>
<rect x="798" y="25.9111" width="95" height="107" fill="#41464A"/>
<rect x="442" y="47.9111" width="324" height="85" fill="#41464A"/>
<rect x="814" y="267.911" width="96" height="107" fill="#41464A"/>
<path d="M389.667 322.911H387V308.244H389.656L392.229 316.557H392.333V308.244H395V322.911H392.333L389.771 314.599H389.667V322.911ZM405.672 308.244V310.744H403.005V320.411H405.672V322.911H397.672V320.411H400.339V310.744H397.672V308.244H405.672Z" fill="#FCC945"/>
<path d="M503.792 323.078C502.653 323.078 501.368 322.967 499.938 322.744V320.203C501.611 320.453 502.896 320.578 503.792 320.578C505.028 320.578 505.646 319.918 505.646 318.599C505.646 318.231 505.556 317.883 505.375 317.557C505.201 317.224 504.955 316.994 504.635 316.869C504.434 316.793 504.156 316.731 503.802 316.682C503.448 316.633 503.083 316.564 502.708 316.474C502.34 316.376 501.986 316.227 501.646 316.026C500.34 315.248 499.688 314.019 499.688 312.338C499.688 311.137 500.069 310.126 500.833 309.307C501.604 308.488 502.59 308.078 503.792 308.078C504.729 308.078 506.014 308.165 507.646 308.338V310.849C505.958 310.668 504.674 310.578 503.792 310.578C503.528 310.578 503.295 310.637 503.094 310.755C502.899 310.873 502.75 311.026 502.646 311.213C502.542 311.401 502.465 311.592 502.417 311.786C502.375 311.981 502.354 312.172 502.354 312.359C502.354 313.178 502.632 313.713 503.188 313.963C503.368 314.047 503.778 314.14 504.417 314.244C505.063 314.342 505.583 314.494 505.979 314.703C506.535 314.988 506.993 315.356 507.354 315.807C507.715 316.258 507.965 316.713 508.104 317.172C508.243 317.63 508.312 318.106 508.312 318.599C508.312 319.946 507.896 321.029 507.062 321.849C506.229 322.668 505.139 323.078 503.792 323.078ZM513.339 310.744V314.994H513.984C514.582 314.994 515.016 314.967 515.286 314.911C515.759 314.814 516.134 314.581 516.411 314.213C516.696 313.845 516.839 313.397 516.839 312.869C516.839 312.342 516.696 311.894 516.411 311.526C516.134 311.158 515.759 310.925 515.286 310.828C515.016 310.772 514.582 310.744 513.984 310.744H513.339ZM510.672 308.244H513.964C514.991 308.244 515.724 308.297 516.161 308.401C517.148 308.637 517.95 309.154 518.568 309.953C519.193 310.744 519.505 311.717 519.505 312.869C519.505 314.022 519.193 314.998 518.568 315.797C517.95 316.588 517.148 317.102 516.161 317.338C515.724 317.442 514.991 317.494 513.964 317.494H513.339V322.911H510.672V308.244ZM521.344 308.244H529.344V310.744H524.01V314.286H528.01V316.786H524.01V320.411H529.344V322.911H521.344V308.244ZM532.016 308.244H540.016V310.744H534.682V314.286H538.682V316.786H534.682V320.411H540.016V322.911H532.016V308.244ZM545.625 308.244C547.861 308.244 549.49 309.067 550.51 310.713C550.906 311.338 551.174 312.047 551.312 312.838C551.451 313.63 551.521 314.543 551.521 315.578C551.521 316.613 551.451 317.526 551.312 318.317C551.174 319.109 550.906 319.817 550.51 320.442C549.49 322.088 547.861 322.911 545.625 322.911H542.021V308.244H545.625ZM548.26 319.078C548.656 318.411 548.854 317.244 548.854 315.578C548.854 313.911 548.656 312.744 548.26 312.078C547.74 311.189 546.934 310.744 545.844 310.744H544.688V320.411H545.844C546.934 320.411 547.74 319.967 548.26 319.078Z" fill="#FCC945"/>
<path d="M1128 75.9111V61.2445H1130.67V73.4111H1136.67V75.9111H1128ZM1141.34 75.9111H1138.67V61.2445H1141.33L1143.9 69.557H1144.01V61.2445H1146.67V75.9111H1144.01L1141.44 67.5986H1141.34V75.9111ZM1154.85 70.5778C1154.45 67.9597 1153.97 65.6021 1153.4 63.5049H1153.29C1152.73 65.5813 1152.24 67.9389 1151.83 70.5778H1154.85ZM1151.28 61.2445H1155.41C1156.6 64.9806 1157.55 69.8695 1158.25 75.9111H1155.55C1155.47 74.9528 1155.35 74.0084 1155.21 73.0778H1151.48C1151.33 74.0084 1151.22 74.9528 1151.14 75.9111H1148.44C1149.14 69.8695 1150.09 64.9806 1151.28 61.2445ZM1164.07 73.6507C1164.94 70.4563 1165.65 66.3209 1166.22 61.2445H1168.92C1168.22 67.2861 1167.27 72.175 1166.08 75.9111H1161.95C1160.76 72.175 1159.81 67.2861 1159.11 61.2445H1161.81C1162.38 66.3486 1163.1 70.484 1163.96 73.6507H1164.07Z" fill="#FCC945"/>
<path d="M1138.51 316.578C1138.11 313.96 1137.62 311.602 1137.05 309.505H1136.95C1136.39 311.581 1135.9 313.939 1135.49 316.578H1138.51ZM1134.94 307.244H1139.06C1140.26 310.981 1141.2 315.869 1141.91 321.911H1139.21C1139.13 320.953 1139.01 320.008 1138.86 319.078H1135.14C1134.99 320.008 1134.88 320.953 1134.79 321.911H1132.09C1132.8 315.869 1133.74 310.981 1134.94 307.244ZM1146.34 309.744V313.994H1146.98C1147.58 313.994 1148.02 313.967 1148.29 313.911C1148.76 313.814 1149.13 313.581 1149.41 313.213C1149.7 312.845 1149.84 312.397 1149.84 311.869C1149.84 311.342 1149.7 310.894 1149.41 310.526C1149.13 310.158 1148.76 309.925 1148.29 309.828C1148.02 309.772 1147.58 309.744 1146.98 309.744H1146.34ZM1143.67 307.244H1146.96C1147.99 307.244 1148.72 307.297 1149.16 307.401C1150.15 307.637 1150.95 308.154 1151.57 308.953C1152.19 309.744 1152.51 310.717 1152.51 311.869C1152.51 313.022 1152.19 313.998 1151.57 314.797C1150.95 315.588 1150.15 316.102 1149.16 316.338C1148.72 316.442 1147.99 316.494 1146.96 316.494H1146.34V321.911H1143.67V307.244ZM1157.01 309.744V313.994H1157.66C1158.25 313.994 1158.69 313.967 1158.96 313.911C1159.43 313.814 1159.81 313.581 1160.08 313.213C1160.37 312.845 1160.51 312.397 1160.51 311.869C1160.51 311.342 1160.37 310.894 1160.08 310.526C1159.81 310.158 1159.43 309.925 1158.96 309.828C1158.69 309.772 1158.25 309.744 1157.66 309.744H1157.01ZM1154.34 307.244H1157.64C1158.66 307.244 1159.4 307.297 1159.83 307.401C1160.82 307.637 1161.62 308.154 1162.24 308.953C1162.86 309.744 1163.18 310.717 1163.18 311.869C1163.18 313.022 1162.86 313.998 1162.24 314.797C1161.62 315.588 1160.82 316.102 1159.83 316.338C1159.4 316.442 1158.66 316.494 1157.64 316.494H1157.01V321.911H1154.34V307.244Z" fill="#FCC945"/>
<path d="M1117.05 189.651C1117.92 186.456 1118.64 182.321 1119.21 177.244H1121.91C1121.2 183.286 1120.26 188.175 1119.06 191.911H1114.94C1113.74 188.175 1112.8 183.286 1112.09 177.244H1114.79C1115.37 182.349 1116.09 186.484 1116.95 189.651H1117.05ZM1125.66 181.89C1125.56 182.46 1125.51 183.356 1125.51 184.578C1125.51 185.8 1125.56 186.696 1125.66 187.265C1125.79 187.939 1126.02 188.494 1126.35 188.932C1126.69 189.363 1127.13 189.578 1127.67 189.578C1128.21 189.578 1128.65 189.363 1128.98 188.932C1129.32 188.494 1129.56 187.939 1129.68 187.265C1129.79 186.689 1129.84 185.793 1129.84 184.578C1129.84 183.356 1129.79 182.46 1129.68 181.89C1129.56 181.217 1129.32 180.665 1128.98 180.234C1128.65 179.797 1128.21 179.578 1127.67 179.578C1127.13 179.578 1126.69 179.797 1126.35 180.234C1126.02 180.665 1125.79 181.217 1125.66 181.89ZM1123.13 188.213C1122.94 187.442 1122.84 186.231 1122.84 184.578C1122.84 182.925 1122.94 181.713 1123.13 180.942C1123.41 179.817 1123.93 178.894 1124.7 178.172C1125.47 177.442 1126.46 177.078 1127.67 177.078C1128.88 177.078 1129.87 177.442 1130.64 178.172C1131.41 178.894 1131.94 179.817 1132.21 180.942C1132.41 181.713 1132.51 182.925 1132.51 184.578C1132.51 186.231 1132.41 187.442 1132.21 188.213C1131.94 189.338 1131.41 190.265 1130.64 190.994C1129.87 191.717 1128.88 192.078 1127.67 192.078C1126.46 192.078 1125.47 191.717 1124.7 190.994C1123.93 190.265 1123.41 189.338 1123.13 188.213ZM1137.01 179.744V183.994H1137.66C1138.25 183.994 1138.69 183.967 1138.96 183.911C1139.42 183.814 1139.8 183.581 1140.08 183.213C1140.37 182.845 1140.51 182.397 1140.51 181.869C1140.51 181.342 1140.37 180.894 1140.08 180.526C1139.8 180.158 1139.42 179.925 1138.96 179.828C1138.68 179.772 1138.25 179.744 1137.66 179.744H1137.01ZM1134.34 177.244H1137.64C1138.66 177.244 1139.4 177.297 1139.83 177.401C1140.82 177.637 1141.62 178.154 1142.24 178.953C1142.86 179.744 1143.18 180.717 1143.18 181.869C1143.18 182.738 1142.99 183.512 1142.62 184.192C1142.26 184.866 1141.77 185.401 1141.15 185.797L1143.44 191.911H1140.6L1138.67 186.484C1138.46 186.491 1138.11 186.494 1137.64 186.494H1137.01V191.911H1134.34V177.244Z" fill="#FCC945"/>
<path d="M1154 191.911V177.244H1156.67V189.411H1162.67V191.911H1154ZM1166.66 181.89C1166.56 182.46 1166.51 183.356 1166.51 184.578C1166.51 185.8 1166.56 186.696 1166.66 187.265C1166.79 187.939 1167.02 188.494 1167.35 188.932C1167.69 189.363 1168.13 189.578 1168.67 189.578C1169.21 189.578 1169.65 189.363 1169.98 188.932C1170.32 188.494 1170.56 187.939 1170.68 187.265C1170.79 186.689 1170.84 185.793 1170.84 184.578C1170.84 183.356 1170.79 182.46 1170.68 181.89C1170.56 181.217 1170.32 180.665 1169.98 180.234C1169.65 179.797 1169.21 179.578 1168.67 179.578C1168.13 179.578 1167.69 179.797 1167.35 180.234C1167.02 180.665 1166.79 181.217 1166.66 181.89ZM1164.13 188.213C1163.94 187.442 1163.84 186.231 1163.84 184.578C1163.84 182.925 1163.94 181.713 1164.13 180.942C1164.41 179.817 1164.93 178.894 1165.7 178.172C1166.47 177.442 1167.46 177.078 1168.67 177.078C1169.88 177.078 1170.87 177.442 1171.64 178.172C1172.41 178.894 1172.94 179.817 1173.21 180.942C1173.41 181.713 1173.51 182.925 1173.51 184.578C1173.51 186.231 1173.41 187.442 1173.21 188.213C1172.94 189.338 1172.41 190.265 1171.64 190.994C1170.87 191.717 1169.88 192.078 1168.67 192.078C1167.46 192.078 1166.47 191.717 1165.7 190.994C1164.93 190.265 1164.41 189.338 1164.13 188.213ZM1183.34 189.328V191.828C1182.1 191.994 1181 192.078 1180.04 192.078C1178.62 192.078 1177.47 191.724 1176.59 191.015C1175.73 190.3 1175.14 189.335 1174.83 188.119C1174.62 187.272 1174.51 186.092 1174.51 184.578C1174.51 183.064 1174.62 181.883 1174.83 181.036C1175.14 179.814 1175.72 178.849 1176.56 178.14C1177.41 177.432 1178.53 177.078 1179.94 177.078C1181 177.078 1182.08 177.14 1183.19 177.265V179.765C1181.8 179.64 1180.73 179.578 1179.97 179.578C1178.55 179.578 1177.68 180.376 1177.36 181.974C1177.24 182.626 1177.18 183.494 1177.18 184.578C1177.18 185.661 1177.24 186.529 1177.36 187.182C1177.68 188.779 1178.57 189.578 1180.04 189.578C1180.84 189.578 1181.94 189.494 1183.34 189.328Z" fill="#FCC945"/>
<path d="M966 308.244H968.667V314.369H971.333V308.244H974V322.911H971.333V316.869H968.667V322.911H966V308.244ZM979.609 308.244C981.845 308.244 983.474 309.067 984.495 310.713C984.891 311.338 985.158 312.047 985.297 312.838C985.436 313.63 985.505 314.543 985.505 315.578C985.505 316.613 985.436 317.526 985.297 318.317C985.158 319.109 984.891 319.817 984.495 320.442C983.474 322.088 981.845 322.911 979.609 322.911H976.005V308.244H979.609ZM982.245 319.078C982.641 318.411 982.839 317.244 982.839 315.578C982.839 313.911 982.641 312.744 982.245 312.078C981.724 311.189 980.918 310.744 979.828 310.744H978.672V320.411H979.828C980.918 320.411 981.724 319.967 982.245 319.078ZM996.01 322.692C994.587 322.949 993.333 323.078 992.25 323.078C990.771 323.078 989.576 322.724 988.667 322.015C987.764 321.3 987.153 320.335 986.833 319.119C986.618 318.272 986.51 317.092 986.51 315.578C986.51 314.064 986.618 312.883 986.833 312.036C987.16 310.814 987.76 309.849 988.635 309.14C989.51 308.432 990.681 308.078 992.146 308.078C993.257 308.078 994.476 308.151 995.802 308.297V310.797C994.316 310.651 993.108 310.578 992.177 310.578C990.615 310.578 989.677 311.376 989.365 312.974C989.24 313.626 989.177 314.494 989.177 315.578C989.177 316.661 989.24 317.529 989.365 318.182C989.51 318.932 989.819 319.519 990.292 319.942C990.771 320.366 991.424 320.578 992.25 320.578C992.479 320.578 992.844 320.564 993.344 320.536V317.411H992.01V314.911H996.01V322.692Z" fill="#FCC945"/>
<path d="M1010.79 323.078C1009.65 323.078 1008.37 322.967 1006.94 322.744V320.203C1008.61 320.453 1009.9 320.578 1010.79 320.578C1012.03 320.578 1012.65 319.918 1012.65 318.599C1012.65 318.231 1012.56 317.883 1012.38 317.557C1012.2 317.224 1011.95 316.994 1011.64 316.869C1011.43 316.793 1011.16 316.731 1010.8 316.682C1010.45 316.633 1010.08 316.564 1009.71 316.474C1009.34 316.376 1008.99 316.227 1008.65 316.026C1007.34 315.248 1006.69 314.019 1006.69 312.338C1006.69 311.137 1007.07 310.126 1007.83 309.307C1008.6 308.488 1009.59 308.078 1010.79 308.078C1011.73 308.078 1013.01 308.165 1014.65 308.338V310.849C1012.96 310.668 1011.67 310.578 1010.79 310.578C1010.53 310.578 1010.3 310.637 1010.09 310.755C1009.9 310.873 1009.75 311.026 1009.65 311.213C1009.54 311.401 1009.47 311.592 1009.42 311.786C1009.38 311.981 1009.35 312.172 1009.35 312.359C1009.35 313.178 1009.63 313.713 1010.19 313.963C1010.37 314.047 1010.78 314.14 1011.42 314.244C1012.06 314.342 1012.58 314.494 1012.98 314.703C1013.53 314.988 1013.99 315.356 1014.35 315.807C1014.72 316.258 1014.97 316.713 1015.1 317.172C1015.24 317.63 1015.31 318.106 1015.31 318.599C1015.31 319.946 1014.9 321.029 1014.06 321.849C1013.23 322.668 1012.14 323.078 1010.79 323.078ZM1017.67 308.244H1025.67V310.744H1020.34V314.369H1024.34V316.869H1020.34V322.911H1017.67V308.244ZM1028.34 322.911V308.244H1031.01V320.411H1037.01V322.911H1028.34Z" fill="#FCC945"/>
<path d="M830.052 78.6507C830.92 75.4563 831.639 71.3209 832.208 66.2445H834.906C834.205 72.2861 833.257 77.175 832.062 80.9111H827.938C826.743 77.175 825.795 72.2861 825.094 66.2445H827.792C828.368 71.3486 829.087 75.484 829.948 78.6507H830.052ZM839.339 80.9111H836.672V66.2445H839.328L841.901 74.557H842.005V66.2445H844.672V80.9111H842.005L839.443 72.5986H839.339V80.9111ZM852.854 75.5778C852.451 72.9597 851.965 70.6021 851.396 68.5049H851.292C850.729 70.5813 850.243 72.9389 849.833 75.5778H852.854ZM849.281 66.2445H853.406C854.601 69.9806 855.549 74.8695 856.25 80.9111H853.552C853.469 79.9528 853.354 79.0084 853.208 78.0778H849.479C849.333 79.0084 849.219 79.9528 849.135 80.9111H846.438C847.139 74.8695 848.087 69.9806 849.281 66.2445ZM862.068 72.0465C863.095 69.6854 863.79 67.7514 864.151 66.2445H866.974C866.432 67.9042 865.877 69.4077 865.307 70.7549C864.738 72.0952 864.085 73.3417 863.349 74.4945V80.9111H860.682V74.4945C859.946 73.3417 859.293 72.0952 858.724 70.7549C858.155 69.4077 857.599 67.9042 857.057 66.2445H859.88C859.936 66.5014 860.002 66.7688 860.078 67.0465C860.161 67.3243 860.259 67.6264 860.37 67.9528C860.488 68.2792 860.585 68.557 860.661 68.7861C860.745 69.0084 860.863 69.3139 861.016 69.7028C861.168 70.0847 861.273 70.3521 861.328 70.5049C861.391 70.6507 861.505 70.932 861.672 71.3486C861.845 71.7584 861.943 71.991 861.964 72.0465H862.068Z" fill="#FCC945"/>
<path d="M828 322.911V308.244H830.667V320.411H836.667V322.911H828ZM842.724 320.651C843.592 317.456 844.311 313.321 844.88 308.244H847.578C846.877 314.286 845.929 319.175 844.734 322.911H840.609C839.415 319.175 838.467 314.286 837.766 308.244H840.464C841.04 313.349 841.759 317.484 842.62 320.651H842.724ZM849.344 322.911V308.244H852.01V320.411H858.01V322.911H849.344Z" fill="#FCC945"/>
<path d="M877 320.328V322.828C875.757 322.994 874.656 323.078 873.698 323.078C872.274 323.078 871.125 322.724 870.25 322.015C869.382 321.3 868.795 320.335 868.49 319.119C868.274 318.272 868.167 317.092 868.167 315.578C868.167 314.064 868.274 312.883 868.49 312.036C868.795 310.814 869.372 309.849 870.219 309.14C871.066 308.432 872.191 308.078 873.594 308.078C874.656 308.078 875.74 308.14 876.844 308.265V310.765C875.455 310.64 874.382 310.578 873.625 310.578C872.201 310.578 871.333 311.376 871.021 312.974C870.896 313.626 870.833 314.494 870.833 315.578C870.833 316.661 870.896 317.529 871.021 318.182C871.333 319.779 872.226 320.578 873.698 320.578C874.497 320.578 875.597 320.494 877 320.328ZM879.672 308.244H882.339V314.369H885.005V308.244H887.672V322.911H885.005V316.869H882.339V322.911H879.672V308.244ZM899.01 322.692C897.587 322.949 896.333 323.078 895.25 323.078C893.771 323.078 892.576 322.724 891.667 322.015C890.764 321.3 890.153 320.335 889.833 319.119C889.618 318.272 889.51 317.092 889.51 315.578C889.51 314.064 889.618 312.883 889.833 312.036C890.16 310.814 890.76 309.849 891.635 309.14C892.51 308.432 893.681 308.078 895.146 308.078C896.257 308.078 897.476 308.151 898.802 308.297V310.797C897.316 310.651 896.108 310.578 895.177 310.578C893.615 310.578 892.677 311.376 892.365 312.974C892.24 313.626 892.177 314.494 892.177 315.578C892.177 316.661 892.24 317.529 892.365 318.182C892.51 318.932 892.819 319.519 893.292 319.942C893.771 320.366 894.424 320.578 895.25 320.578C895.479 320.578 895.844 320.564 896.344 320.536V317.411H895.01V314.911H899.01V322.692Z" fill="#FCC945"/>
<path d="M72 67.3799C75.3125 66.734 78.3125 66.4111 81 66.4111C83 66.4111 84.75 66.7132 86.25 67.3174C87.7708 67.9215 88.9583 68.7445 89.8125 69.7861C90.6875 70.8278 91.3333 71.9736 91.75 73.2236C92.1667 74.4736 92.375 75.807 92.375 77.2236C92.375 78.5986 92.2292 79.7861 91.9375 80.7861C91.6667 81.7653 91.2292 82.8174 90.625 83.9424L81.125 103.411H92.625V110.911H72V104.38L83.0625 82.1924C83.9375 80.5674 84.375 78.9111 84.375 77.2236C84.375 75.0153 83.25 73.9111 81 73.9111C78.4792 73.9111 75.4792 74.234 72 74.8799V67.3799ZM105.141 73.1299C106.849 68.609 109.807 66.3486 114.016 66.3486C118.224 66.3486 121.182 68.609 122.891 73.1299C123.266 74.1507 123.547 75.557 123.734 77.3486C123.922 79.1403 124.026 80.7757 124.047 82.2549C124.089 83.7132 124.109 85.932 124.109 88.9111C124.109 91.8903 124.089 94.1195 124.047 95.5986C124.026 97.057 123.922 98.682 123.734 100.474C123.547 102.265 123.266 103.672 122.891 104.692C121.182 109.213 118.224 111.474 114.016 111.474C109.807 111.474 106.849 109.213 105.141 104.692C104.766 103.672 104.484 102.265 104.297 100.474C104.109 98.682 103.995 97.057 103.953 95.5986C103.932 94.1195 103.922 91.8903 103.922 88.9111C103.922 85.932 103.932 83.7132 103.953 82.2549C103.995 80.7757 104.109 79.1403 104.297 77.3486C104.484 75.557 104.766 74.1507 105.141 73.1299ZM114.016 73.9736C113.12 73.9736 112.484 75.2861 112.109 77.9111C111.901 79.307 111.797 82.9736 111.797 88.9111V92.1924L115.984 78.4111C115.839 77.182 115.599 76.1403 115.266 75.2861C114.932 74.4111 114.516 73.9736 114.016 73.9736ZM112.047 99.4111C112.193 100.64 112.432 101.692 112.766 102.567C113.099 103.422 113.516 103.849 114.016 103.849C114.911 103.849 115.547 102.536 115.922 99.9111C116.13 98.5153 116.234 94.8486 116.234 88.9111V85.6299L112.047 99.4111ZM134.469 66.9111H156.969V73.4736L147.156 110.911H139.063L148.688 74.7236V74.4111H134.469V66.9111Z" fill="white"/>
<path d="M1276 80.8799C1276 87.234 1275.55 92.1715 1274.66 95.6924C1273.3 100.963 1270.2 106.411 1265.34 112.036L1259.25 107.005C1261.17 104.776 1262.74 102.703 1263.97 100.786C1265.2 98.8695 1266.12 96.7549 1266.75 94.4424L1266.44 94.3174C1265.56 95.0465 1264.52 95.4111 1263.31 95.4111C1261 95.4111 1259.22 94.5674 1257.97 92.8799C1255.99 90.234 1255 86.2445 1255 80.9111C1255 77.2236 1255.33 74.4736 1256 72.6611C1256.71 70.7445 1257.88 69.2236 1259.5 68.0986C1261.13 66.9736 1263.13 66.4111 1265.5 66.4111C1267.88 66.4111 1269.88 66.9736 1271.5 68.0986C1273.13 69.2236 1274.29 70.7445 1275 72.6611C1275.42 73.7653 1275.69 74.9111 1275.81 76.0986C1275.94 77.2861 1276 78.8799 1276 80.8799ZM1264.03 74.8486C1263.34 75.9111 1263 77.932 1263 80.9111C1263 83.8903 1263.34 85.9111 1264.03 86.9736C1264.43 87.5986 1264.92 87.9111 1265.5 87.9111C1266.08 87.9111 1266.57 87.5986 1266.97 86.9736C1267.66 85.9111 1268 83.8903 1268 80.9111C1268 77.932 1267.66 75.9111 1266.97 74.8486C1266.57 74.2236 1266.08 73.9111 1265.5 73.9111C1264.92 73.9111 1264.43 74.2236 1264.03 74.8486ZM1289.14 73.1299C1290.85 68.609 1293.81 66.3486 1298.02 66.3486C1302.22 66.3486 1305.18 68.609 1306.89 73.1299C1307.27 74.1507 1307.55 75.557 1307.73 77.3486C1307.92 79.1403 1308.03 80.7757 1308.05 82.2549C1308.09 83.7132 1308.11 85.932 1308.11 88.9111C1308.11 91.8903 1308.09 94.1195 1308.05 95.5986C1308.03 97.057 1307.92 98.682 1307.73 100.474C1307.55 102.265 1307.27 103.672 1306.89 104.692C1305.18 109.213 1302.22 111.474 1298.02 111.474C1293.81 111.474 1290.85 109.213 1289.14 104.692C1288.77 103.672 1288.48 102.265 1288.3 100.474C1288.11 98.682 1287.99 97.057 1287.95 95.5986C1287.93 94.1195 1287.92 91.8903 1287.92 88.9111C1287.92 85.932 1287.93 83.7132 1287.95 82.2549C1287.99 80.7757 1288.11 79.1403 1288.3 77.3486C1288.48 75.557 1288.77 74.1507 1289.14 73.1299ZM1298.02 73.9736C1297.12 73.9736 1296.48 75.2861 1296.11 77.9111C1295.9 79.307 1295.8 82.9736 1295.8 88.9111V92.1924L1299.98 78.4111C1299.84 77.182 1299.6 76.1403 1299.27 75.2861C1298.93 74.4111 1298.52 73.9736 1298.02 73.9736ZM1296.05 99.4111C1296.19 100.64 1296.43 101.692 1296.77 102.567C1297.1 103.422 1297.52 103.849 1298.02 103.849C1298.91 103.849 1299.55 102.536 1299.92 99.9111C1300.13 98.5153 1300.23 94.8486 1300.23 88.9111V85.6299L1296.05 99.4111ZM1321.16 73.1299C1322.86 68.609 1325.82 66.3486 1330.03 66.3486C1334.24 66.3486 1337.2 68.609 1338.91 73.1299C1339.28 74.1507 1339.56 75.557 1339.75 77.3486C1339.94 79.1403 1340.04 80.7757 1340.06 82.2549C1340.1 83.7132 1340.13 85.932 1340.13 88.9111C1340.13 91.8903 1340.1 94.1195 1340.06 95.5986C1340.04 97.057 1339.94 98.682 1339.75 100.474C1339.56 102.265 1339.28 103.672 1338.91 104.692C1337.2 109.213 1334.24 111.474 1330.03 111.474C1325.82 111.474 1322.86 109.213 1321.16 104.692C1320.78 103.672 1320.5 102.265 1320.31 100.474C1320.13 98.682 1320.01 97.057 1319.97 95.5986C1319.95 94.1195 1319.94 91.8903 1319.94 88.9111C1319.94 85.932 1319.95 83.7132 1319.97 82.2549C1320.01 80.7757 1320.13 79.1403 1320.31 77.3486C1320.5 75.557 1320.78 74.1507 1321.16 73.1299ZM1330.03 73.9736C1329.14 73.9736 1328.5 75.2861 1328.13 77.9111C1327.92 79.307 1327.81 82.9736 1327.81 88.9111V92.1924L1332 78.4111C1331.85 77.182 1331.61 76.1403 1331.28 75.2861C1330.95 74.4111 1330.53 73.9736 1330.03 73.9736ZM1328.06 99.4111C1328.21 100.64 1328.45 101.692 1328.78 102.567C1329.11 103.422 1329.53 103.849 1330.03 103.849C1330.93 103.849 1331.56 102.536 1331.94 99.9111C1332.15 98.5153 1332.25 94.8486 1332.25 88.9111V85.6299L1328.06 99.4111ZM1353.17 73.1299C1354.88 68.609 1357.84 66.3486 1362.05 66.3486C1366.26 66.3486 1369.21 68.609 1370.92 73.1299C1371.3 74.1507 1371.58 75.557 1371.77 77.3486C1371.95 79.1403 1372.06 80.7757 1372.08 82.2549C1372.12 83.7132 1372.14 85.932 1372.14 88.9111C1372.14 91.8903 1372.12 94.1195 1372.08 95.5986C1372.06 97.057 1371.95 98.682 1371.77 100.474C1371.58 102.265 1371.3 103.672 1370.92 104.692C1369.21 109.213 1366.26 111.474 1362.05 111.474C1357.84 111.474 1354.88 109.213 1353.17 104.692C1352.8 103.672 1352.52 102.265 1352.33 100.474C1352.14 98.682 1352.03 97.057 1351.98 95.5986C1351.96 94.1195 1351.95 91.8903 1351.95 88.9111C1351.95 85.932 1351.96 83.7132 1351.98 82.2549C1352.03 80.7757 1352.14 79.1403 1352.33 77.3486C1352.52 75.557 1352.8 74.1507 1353.17 73.1299ZM1362.05 73.9736C1361.15 73.9736 1360.52 75.2861 1360.14 77.9111C1359.93 79.307 1359.83 82.9736 1359.83 88.9111V92.1924L1364.02 78.4111C1363.87 77.182 1363.63 76.1403 1363.3 75.2861C1362.96 74.4111 1362.55 73.9736 1362.05 73.9736ZM1360.08 99.4111C1360.22 100.64 1360.46 101.692 1360.8 102.567C1361.13 103.422 1361.55 103.849 1362.05 103.849C1362.94 103.849 1363.58 102.536 1363.95 99.9111C1364.16 98.5153 1364.27 94.8486 1364.27 88.9111V85.6299L1360.08 99.4111Z" fill="white"/>
<path d="M967 97.5049C967 94.9215 966.76 93.0674 966.281 91.9424C965.823 90.7965 965.021 90.2236 963.875 90.2236C962.833 90.2236 961.812 90.4424 960.812 90.8799L956.156 85.6924L965.063 74.4111H954V66.9111H974V74.0986L966.125 83.3174L966.344 83.5361C966.656 83.432 967.021 83.3799 967.438 83.3799C972.479 83.3799 975 88.109 975 97.5674C975 102.276 974.042 105.765 972.125 108.036C970.208 110.286 967.333 111.411 963.5 111.411C960.958 111.411 957.792 111.088 954 110.442V102.88C957.625 103.567 960.792 103.911 963.5 103.911C964.854 103.911 965.771 103.349 966.25 102.224C966.75 101.099 967 99.5257 967 97.5049ZM994.766 66.9111H1002.02V110.911H994.016V76.3486H993.703L989.984 79.0674L986.016 73.2861L994.766 66.9111ZM1018.03 102.88C1021.43 103.567 1024.39 103.911 1026.91 103.911C1027.8 103.911 1028.55 103.734 1029.16 103.38C1029.76 103.026 1030.21 102.505 1030.5 101.817C1030.79 101.13 1030.99 100.401 1031.09 99.6299C1031.22 98.859 1031.28 97.9424 1031.28 96.8799C1031.28 92.234 1030.05 89.9111 1027.59 89.9111C1026.26 89.9111 1025.23 90.3174 1024.5 91.1299L1018.03 89.4424V66.9111H1038.03V74.4111H1026.03V84.1611H1026.34C1027.61 83.3486 1028.99 82.9424 1030.47 82.9424C1036.18 82.9424 1039.03 87.609 1039.03 96.9424C1039.03 101.859 1038.07 105.505 1036.16 107.88C1034.26 110.234 1031.39 111.411 1027.53 111.411C1024.99 111.411 1021.82 111.088 1018.03 110.442V102.88Z" fill="white"/>
<path d="M655 67.3799C658.313 66.734 661.313 66.4111 664 66.4111C666 66.4111 667.75 66.7132 669.25 67.3174C670.771 67.9215 671.958 68.7445 672.813 69.7861C673.688 70.8278 674.333 71.9736 674.75 73.2236C675.167 74.4736 675.375 75.807 675.375 77.2236C675.375 78.5986 675.229 79.7861 674.938 80.7861C674.667 81.7653 674.229 82.8174 673.625 83.9424L664.125 103.411H675.625V110.911H655V104.38L666.063 82.1924C666.938 80.5674 667.375 78.9111 667.375 77.2236C667.375 75.0153 666.25 73.9111 664 73.9111C661.479 73.9111 658.479 74.234 655 74.8799V67.3799ZM695.766 66.9111H703.016V110.911H695.016V76.3486H694.703L690.984 79.0674L687.016 73.2861L695.766 66.9111ZM719.031 102.88C722.427 103.567 725.385 103.911 727.906 103.911C728.802 103.911 729.552 103.734 730.156 103.38C730.76 103.026 731.208 102.505 731.5 101.817C731.792 101.13 731.99 100.401 732.094 99.6299C732.219 98.859 732.281 97.9424 732.281 96.8799C732.281 92.234 731.052 89.9111 728.594 89.9111C727.26 89.9111 726.229 90.3174 725.5 91.1299L719.031 89.4424V66.9111H739.031V74.4111H727.031V84.1611H727.344C728.615 83.3486 729.99 82.9424 731.469 82.9424C737.177 82.9424 740.031 87.609 740.031 96.9424C740.031 101.859 739.073 105.505 737.156 107.88C735.26 110.234 732.385 111.411 728.531 111.411C725.99 111.411 722.823 111.088 719.031 110.442V102.88Z" fill="white"/>
<rect x="360" y="350.911" width="72" height="11" rx="3" fill="#5C6369"/>
<rect x="489" y="350.911" width="73" height="11" rx="3" fill="#5C6369"/>
<rect x="1111" y="103.911" width="73" height="11" rx="3" fill="#5C6369"/>
<rect x="1111" y="349.911" width="73" height="11" rx="3" fill="#5C6369"/>
<rect x="1111" y="219.911" width="73" height="11" rx="3" fill="#5C6369"/>
<rect x="963" y="350.911" width="73" height="11" rx="3" fill="#FCC945"/>
<rect x="810" y="108.911" width="72" height="11" rx="3" fill="#5C6369"/>
<rect x="827" y="350.911" width="72" height="11" rx="3" fill="#5C6369"/>
<path d="M589 285.911L625 273.911" stroke="white" stroke-width="4" stroke-linejoin="round"/>
<path d="M798 286.911L762 274.911" stroke="white" stroke-width="4" stroke-linejoin="round"/>
<path d="M693 179.911L693 142.911" stroke="white" stroke-width="4" stroke-linejoin="round"/>
<path d="M999 162.911L999 142.911" stroke="white" stroke-width="4" stroke-linejoin="round"/>
<path d="M956.554 190.778L935 169.911" stroke="white" stroke-width="4" stroke-linejoin="round"/>
<path d="M1044 190.778L1065.55 169.911" stroke="white" stroke-width="4" stroke-linejoin="round"/>
<path d="M594 142.911L594 169.166L571 180.911" stroke="white" stroke-width="4" stroke-linejoin="round"/>
<path d="M131.43 136.275L135.562 157.991L125.5 171.911" stroke="white" stroke-width="4" stroke-linejoin="round"/>
</svg>
